<svg width="73" height="73" viewBox="0 0 73 73" fill="none" xmlns="http://www.w3.org/2000/svg">
<path fill-rule="evenodd" clip-rule="evenodd" d="M73 36.5C73 56.6584 56.6582 73 36.5 73C16.3418 73 0 56.6584 0 36.5C0 16.3416 16.3418 0 36.5 0C56.6582 0 73 16.3416 73 36.5ZM21.9551 48.8571C21.3213 48.8571 20.7129 49.0145 20.1729 49.3103C17.3281 45.6761 15.7666 41.1616 15.7666 36.5367C15.7666 25.0806 25.1191 15.7607 36.6143 15.7607C38.0117 15.7607 39.4082 15.8993 40.7656 16.1727C41.2432 16.2689 41.71 15.9608 41.8066 15.4842C41.9033 15.0076 41.5938 14.5433 41.1162 14.4467C39.6436 14.1503 38.1289 14 36.6143 14C30.5742 14 24.8945 16.3442 20.623 20.6008C16.3525 24.8574 14 30.517 14 36.5367C14 41.6004 15.7256 46.542 18.8662 50.5035C18.4619 51.1057 18.2451 51.8134 18.2451 52.5545C18.2451 53.5421 18.6309 54.4706 19.332 55.1687C20.0322 55.8671 20.9639 56.2519 21.9551 56.2519C22.9463 56.2519 23.8779 55.8671 24.5781 55.1687C25.2793 54.4706 25.665 53.5417 25.665 52.5541C25.665 51.5668 25.2793 50.638 24.5781 49.9399C23.8779 49.2415 22.9463 48.8571 21.9551 48.8571ZM23.3291 53.9238C22.9619 54.2897 22.4736 54.4912 21.9551 54.4912C21.4355 54.4912 20.9482 54.2897 20.5811 53.9238C20.2139 53.5579 20.0117 53.0717 20.0117 52.5545C20.0117 52.3156 20.0547 52.0833 20.1377 51.8664C20.2344 51.6136 20.3838 51.3818 20.5811 51.1848C20.9473 50.8189 21.4355 50.6177 21.9551 50.6177C22.4736 50.6177 22.9619 50.8192 23.3291 51.1848C23.6963 51.5507 23.8984 52.0369 23.8984 52.5545C23.8984 53.0717 23.6963 53.5579 23.3291 53.9238ZM53.7266 17.8309C54.9834 19.0968 55.1357 21.0597 54.1855 22.4954C57.293 26.4573 59 31.3992 59 36.4633C59 42.4829 56.6738 48.1425 52.4482 52.3991C48.2236 56.6557 42.6064 59 36.6318 59C35.1484 59 33.6641 58.8525 32.2217 58.5619C31.749 58.4662 31.4414 58.0027 31.5361 57.5258C31.6309 57.0491 32.0918 56.74 32.5645 56.8352C33.8945 57.1035 35.2637 57.2393 36.6318 57.2393C48.0029 57.2393 57.2529 47.9194 57.2529 36.4633C57.2529 31.8384 55.708 27.3242 52.8945 23.6897C52.751 23.7688 52.6035 23.838 52.4521 23.897L52.3506 23.9346L52.2324 23.9746C52.1572 23.9981 52.0811 24.0192 52.0049 24.0379C51.7227 24.1072 51.4297 24.1429 51.1318 24.1429C50.1514 24.1429 49.2305 23.7585 48.5371 23.0601C47.8438 22.3616 47.4619 21.4331 47.4619 20.4455C47.4619 19.4579 47.8438 18.5294 48.5371 17.8309C49.2305 17.1329 50.1514 16.748 51.1318 16.748C52.1123 16.748 53.0342 17.1329 53.7266 17.8309ZM49.21 20.4455C49.21 20.963 49.4102 21.4493 49.7725 21.8152C50.1357 22.1807 50.6182 22.3823 51.1318 22.3823C51.6455 22.3823 52.1279 22.1807 52.4912 21.8152C53.2402 21.06 53.2402 19.8313 52.4912 19.0762C52.1279 18.7103 51.6455 18.5087 51.1318 18.5087C50.6182 18.5087 50.1357 18.7103 49.7725 19.0762C49.4102 19.442 49.21 19.9283 49.21 20.4455ZM32.8789 51.5956C32.8789 52.0804 33.2715 52.4733 33.7559 52.4733H39.2432C39.7285 52.4733 40.1211 52.0804 40.1211 51.5956V49.8941C41.2754 49.5835 42.3779 49.1262 43.415 48.529L44.6162 49.7303C44.7803 49.8948 45.0039 49.9874 45.2363 49.9874C45.4688 49.9874 45.6924 49.8948 45.8574 49.7299L49.7354 45.8484C50.0781 45.5056 50.0781 44.9498 49.7354 44.6073L48.5361 43.4074C49.1328 42.3707 49.5908 41.2674 49.9014 40.1135H51.5957C52.0801 40.1135 52.4736 39.7206 52.4736 39.2358V33.748C52.4736 33.2633 52.0801 32.8704 51.5957 32.8704H49.9004C49.5898 31.7168 49.1328 30.6135 48.5361 29.5768L49.7295 28.3834C49.8936 28.2189 49.9863 27.9953 49.9863 27.7625C49.9863 27.5298 49.8936 27.3062 49.7285 27.1417L45.8477 23.2629C45.5049 22.9203 44.9492 22.9203 44.6064 23.2632L43.415 24.4552C42.3779 23.858 41.2754 23.4007 40.1211 23.0901V21.4044C40.1211 20.9196 39.7285 20.5267 39.2432 20.5267H33.7559C33.2715 20.5267 32.8789 20.9196 32.8789 21.4044V23.0904C31.7256 23.4007 30.6221 23.858 29.585 24.4552L28.3936 23.2632C28.0508 22.9207 27.4951 22.9203 27.1523 23.2629L23.2715 27.142C23.1064 27.3066 23.0137 27.5298 23.0137 27.7625C23.0137 27.9953 23.1064 28.2189 23.2705 28.3834L24.4639 29.5768C23.8672 30.6135 23.4102 31.7164 23.0996 32.8704H21.4072C20.9229 32.8704 20.5303 33.2633 20.5303 33.7477L20.5264 39.2355C20.5264 39.4683 20.6191 39.6918 20.7832 39.8563C20.9482 40.0209 21.1709 40.1135 21.4043 40.1135H23.0996C23.4102 41.2674 23.8672 42.3707 24.4639 43.4074L23.2646 44.6073C22.9219 44.9498 22.9219 45.5056 23.2646 45.8484L27.1426 49.7299C27.3076 49.8945 27.5303 49.9874 27.7637 49.9874C27.9961 49.9874 28.2197 49.8948 28.3838 49.7303L29.585 48.529C30.6221 49.1262 31.7256 49.5835 32.8789 49.8941V51.5956ZM29.9287 46.6832C29.582 46.4586 29.125 46.5073 28.832 46.7997L27.7637 47.8683L25.126 45.2281L26.1934 44.1603C26.4854 43.8678 26.5342 43.4108 26.3096 43.0635C25.5146 41.8321 24.9551 40.4824 24.6475 39.0513C24.6299 38.9694 24.6016 38.8921 24.5635 38.821C24.4131 38.5417 24.1191 38.3582 23.79 38.3582H22.2822L22.2842 34.6257H23.79C24.2031 34.6257 24.5605 34.337 24.6475 33.9325C24.9551 32.5019 25.5146 31.1522 26.3096 29.9207C26.5342 29.5734 26.4854 29.1164 26.1934 28.824L25.1328 27.7629L27.7725 25.1248L28.832 26.1848C29.125 26.4772 29.582 26.5256 29.9287 26.3014C31.1602 25.5057 32.5098 24.9462 33.9404 24.639C34.3447 24.5519 34.6338 24.1943 34.6338 23.7809V22.282H38.3662V23.7805C38.3662 24.1943 38.6543 24.5519 39.0586 24.6387C40.4893 24.9462 41.8398 25.5053 43.0703 26.301C43.418 26.5256 43.875 26.4772 44.167 26.1844L45.2275 25.1248L47.8672 27.7629L46.8066 28.8236C46.5137 29.1164 46.4658 29.5734 46.6895 29.9207C47.4854 31.1522 48.0449 32.5019 48.3525 33.9325C48.3887 34.1042 48.4746 34.2551 48.5928 34.3718C48.7529 34.5301 48.9727 34.6257 49.21 34.6257H50.7178V38.3582H49.21C48.7969 38.3582 48.4395 38.6472 48.3525 39.0513C48.0449 40.482 47.4854 41.8321 46.6895 43.0632C46.4658 43.4108 46.5137 43.8678 46.8066 44.1603L47.874 45.2278L45.2363 47.868L44.168 46.7997C43.875 46.507 43.418 46.4586 43.0703 46.6832C41.8389 47.4789 40.4893 48.038 39.0586 48.3456C38.6543 48.4326 38.3662 48.7899 38.3662 49.2037V50.718H34.6338V49.2037C34.6338 48.7902 34.3447 48.4326 33.9404 48.3456C32.5098 48.0384 31.1602 47.4789 29.9287 46.6832ZM36.5 29.1145C40.5723 29.1145 43.8857 32.4276 43.8857 36.5C43.8857 40.5724 40.5723 43.8855 36.5 43.8855C32.4277 43.8855 29.1143 40.5724 29.1143 36.5C29.1143 32.4276 32.4277 29.1145 36.5 29.1145ZM36.5 30.9021C33.4131 30.9021 30.9023 33.4132 30.9023 36.5C30.9023 39.5868 33.4131 42.0978 36.5 42.0978C39.5869 42.0978 42.0977 39.5864 42.0977 36.5C42.0977 33.4135 39.5869 30.9021 36.5 30.9021ZM44.7441 17.4351C44.9707 17.4351 45.1914 17.3433 45.3516 17.1837C45.5107 17.0231 45.6025 16.8018 45.6025 16.5758C45.6025 16.3512 45.5117 16.1296 45.3516 15.969C45.1914 15.8094 44.9707 15.7175 44.7441 15.7175C44.6641 15.7175 44.584 15.729 44.5088 15.751C44.4727 15.7613 44.4375 15.7739 44.4033 15.7888C44.3047 15.8315 44.2139 15.8925 44.1377 15.969C43.9775 16.1296 43.8857 16.3502 43.8857 16.5758C43.8857 16.6792 43.9053 16.7813 43.9404 16.877C43.9834 16.9912 44.0508 17.0963 44.1377 17.1837C44.2969 17.3433 44.5176 17.4351 44.7441 17.4351ZM27.6992 55.8165C27.8906 55.6568 28.1572 55.5649 28.4277 55.5649C28.6982 55.5649 28.9648 55.6568 29.1562 55.8165C29.3477 55.9762 29.458 56.1979 29.458 56.4237C29.458 56.6495 29.3477 56.8712 29.1562 57.0309C28.9648 57.1906 28.6982 57.2825 28.4277 57.2825C28.1572 57.2825 27.8906 57.1906 27.6992 57.0309C27.5078 56.8712 27.3975 56.6505 27.3975 56.4237C27.3975 56.1979 27.5078 55.9762 27.6992 55.8165Z" fill="#EC681C"/>
</svg>
