<svg width="73" height="73" viewBox="0 0 73 73" fill="none" xmlns="http://www.w3.org/2000/svg">
<path fill-rule="evenodd" clip-rule="evenodd" d="M73 36.5C73 56.6584 56.6582 73 36.5 73C16.3418 73 0 56.6584 0 36.5C0 16.3416 16.3418 0 36.5 0C56.6582 0 73 16.3416 73 36.5ZM32.0586 21.7631C32.0068 21.7631 31.9541 21.7584 31.9033 21.7481C31.875 21.7422 31.8467 21.7351 31.8184 21.7265C31.7959 21.7195 31.7734 21.7115 31.752 21.7025C31.7041 21.6824 31.6582 21.6574 31.6143 21.6286L31.5674 21.5948C31.541 21.5745 31.5156 21.5528 31.4932 21.5295C31.4561 21.4916 31.4229 21.4509 31.3936 21.4078C31.3652 21.3636 31.3398 21.3171 31.3193 21.2692C31.2998 21.221 31.2842 21.1707 31.2744 21.1194C31.2695 21.098 31.2666 21.0765 31.2637 21.0551C31.2598 21.0245 31.2578 20.9938 31.2578 20.9633C31.2578 20.9104 31.2637 20.8585 31.2744 20.8063C31.2842 20.7549 31.2998 20.7046 31.3193 20.6564C31.3301 20.6324 31.3418 20.6088 31.3545 20.5856C31.3662 20.5625 31.3799 20.54 31.3936 20.5182C31.4229 20.4747 31.4561 20.4331 31.4932 20.3962C31.5293 20.3596 31.5703 20.3258 31.6143 20.297C31.6582 20.2682 31.7041 20.2432 31.752 20.2232C31.7764 20.2132 31.8018 20.2044 31.8271 20.1968C31.8525 20.1893 31.8779 20.183 31.9033 20.1779C32.1631 20.1256 32.4395 20.2104 32.625 20.3962C32.6621 20.4331 32.6953 20.4747 32.7246 20.5182C32.7529 20.562 32.7783 20.6086 32.7979 20.6564C32.8184 20.7046 32.833 20.7549 32.8438 20.8063C32.8545 20.8585 32.8594 20.9104 32.8594 20.9633C32.8594 21.0152 32.8545 21.0674 32.8438 21.1194C32.833 21.1707 32.8184 21.221 32.7979 21.2692C32.7783 21.3171 32.7529 21.3636 32.7246 21.4078C32.6953 21.4509 32.6621 21.4916 32.625 21.5295C32.5586 21.5965 32.4795 21.6505 32.3945 21.6896C32.3428 21.7132 32.2891 21.7314 32.2334 21.7438C32.2002 21.7511 32.166 21.7564 32.1318 21.7596L32.0908 21.7625L32.0586 21.7631ZM28.5996 16H44.3506C46.3525 16 47.9814 17.6288 47.9814 19.631V53.3689C47.9814 55.3712 46.3525 56.9999 44.3506 56.9999H28.5996C26.5977 56.9999 24.9688 55.3712 24.9688 53.3689V19.631C24.9688 17.6288 26.5977 16 28.5996 16ZM44.3506 17.6016H28.5996C27.4805 17.6016 26.5703 18.5121 26.5703 19.631V20.1622H28.6807C29.123 20.1622 29.4814 20.5206 29.4814 20.963C29.4814 21.405 29.123 21.7637 28.6807 21.7637H26.5703V50.4344H46.3799V21.7637H35.8877C35.4453 21.7637 35.0869 21.405 35.0869 20.963C35.0869 20.5206 35.4453 20.1622 35.8877 20.1622H46.3799V19.631C46.3799 18.5121 45.4697 17.6016 44.3506 17.6016ZM44.3506 55.3984C45.4697 55.3984 46.3799 54.4878 46.3799 53.3689V52.036H26.5703V53.3689C26.5703 54.4878 27.4805 55.3984 28.5996 55.3984H44.3506ZM34.8037 34.067H29.1533C28.7109 34.067 28.3525 33.7085 28.3525 33.2662V27.6154C28.3525 27.173 28.7109 26.8146 29.1533 26.8146H34.8037C35.2461 26.8146 35.6045 27.173 35.6045 27.6154V33.2662C35.6045 33.7085 35.2461 34.067 34.8037 34.067ZM29.9541 32.4654H34.0029V28.4161H29.9541V32.4654ZM38.1465 34.067H43.7979C44.0479 34.067 44.2715 33.952 44.4189 33.772C44.4541 33.7285 44.4854 33.6811 44.5107 33.6306C44.5273 33.5979 44.542 33.564 44.5547 33.5289C44.5615 33.5104 44.5674 33.4916 44.5723 33.4725C44.5801 33.4429 44.5859 33.4126 44.5898 33.3818C44.5957 33.344 44.5986 33.3054 44.5986 33.2662V27.6154C44.5986 27.173 44.2393 26.8146 43.7979 26.8146H38.1465C37.7041 26.8146 37.3457 27.173 37.3457 27.6154V33.2662C37.3457 33.7085 37.7041 34.067 38.1465 34.067ZM42.9971 32.4654H38.9473V28.4161H42.9971V32.4654ZM34.8037 42.9803H29.1533C28.7109 42.9803 28.3525 42.6219 28.3525 42.1796V36.5284C28.3525 36.0864 28.7109 35.7277 29.1533 35.7277H34.8037C34.915 35.7277 35.0205 35.7502 35.1162 35.791C35.1484 35.8048 35.1797 35.8207 35.21 35.8384C35.2539 35.8644 35.2959 35.8944 35.334 35.928C35.4336 36.0161 35.5107 36.1285 35.5566 36.256C35.5752 36.3062 35.5889 36.3588 35.5967 36.4131C35.6016 36.4507 35.6045 36.4893 35.6045 36.5284V42.1796C35.6045 42.6219 35.2461 42.9803 34.8037 42.9803ZM29.9541 41.3788H34.0029V37.3292H29.9541V41.3788ZM38.1465 42.9803H43.7979C44.2393 42.9803 44.5986 42.6219 44.5986 42.1796V36.5284C44.5986 36.0864 44.2393 35.7277 43.7979 35.7277H38.1465C37.7041 35.7277 37.3457 36.0864 37.3457 36.5284V42.1796C37.3457 42.6219 37.7041 42.9803 38.1465 42.9803ZM42.9971 41.3788H38.9473V37.3292H42.9971V41.3788ZM37.4629 54.5178H35.4873C35.0449 54.5178 34.6865 54.1594 34.6865 53.717C34.6865 53.2747 35.0449 52.9163 35.4873 52.9163H37.4629C37.9053 52.9163 38.2637 53.2747 38.2637 53.717C38.2637 54.1594 37.9053 54.5178 37.4629 54.5178ZM33.833 46.5097H39.1182C39.5596 46.5097 39.9189 46.1512 39.9189 45.7089C39.9189 45.2666 39.5596 44.9081 39.1182 44.9081H33.833C33.3906 44.9081 33.0322 45.2666 33.0322 45.7089C33.0322 46.1512 33.3906 46.5097 33.833 46.5097Z" fill="#EC681C"/>
</svg>
