<svg width="75" height="75" viewBox="0 0 75 75" fill="none" xmlns="http://www.w3.org/2000/svg">
<path fill-rule="evenodd" clip-rule="evenodd" d="M37.5 75C58.2107 75 75 58.2107 75 37.5C75 16.7893 58.2107 0 37.5 0C16.7893 0 0 16.7893 0 37.5C0 58.2107 16.7893 75 37.5 75ZM17 30.359H26.5597V59.7488H17V30.359ZM52.5989 30.7037C52.5651 30.693 52.5318 30.682 52.4986 30.671C52.4321 30.649 52.3656 30.6271 52.2943 30.6075C52.1661 30.5781 52.0378 30.554 51.9069 30.5327C51.3993 30.4311 50.8435 30.359 50.1916 30.359C44.6182 30.359 41.0834 34.4121 39.9185 35.9778V30.359H30.3588V59.7488H39.9185V43.718C39.9185 43.718 47.1431 33.656 50.1916 41.0462V59.7488H59.7486V39.916C59.7486 35.4755 56.7055 31.775 52.5989 30.7037ZM26.3513 21.6756C26.3513 24.2579 24.2579 26.3513 21.6756 26.3513C19.0934 26.3513 17 24.2579 17 21.6756C17 19.0934 19.0934 17 21.6756 17C24.2579 17 26.3513 19.0934 26.3513 21.6756Z" fill="#EC681C"/>
</svg>
