<svg width="75" height="75" viewBox="0 0 75 75" fill="none" xmlns="http://www.w3.org/2000/svg">
<path fill-rule="evenodd" clip-rule="evenodd" d="M37.5 75C58.2107 75 75 58.2107 75 37.5C75 16.7893 58.2107 0 37.5 0C16.7893 0 0 16.7893 0 37.5C0 58.2107 16.7893 75 37.5 75ZM29.3404 16H45.3489C52.7155 16 58.6894 21.879 58.6894 29.1287V44.8831C58.6894 52.1327 52.7155 58.0117 45.3489 58.0117H29.3404C21.9738 58.0117 16 52.1327 16 44.8831V29.1287C16 21.879 21.9738 16 29.3404 16ZM45.3489 54.0731C50.4983 54.0731 54.6872 49.9507 54.6872 44.8831V29.1287C54.6872 24.061 50.4983 19.9386 45.3489 19.9386H29.3404C24.191 19.9386 20.0021 24.061 20.0021 29.1287V44.8831C20.0021 49.9507 24.191 54.0731 29.3404 54.0731H45.3489ZM37.3448 26.5029C31.451 26.5029 26.6725 31.2056 26.6725 37.0059C26.6725 42.8061 31.451 47.5088 37.3448 47.5088C43.2386 47.5088 48.0171 42.8061 48.0171 37.0059C48.0171 31.2056 43.2386 26.5029 37.3448 26.5029ZM37.3448 43.5702C33.6682 43.5702 30.6746 40.6241 30.6746 37.0059C30.6746 33.385 33.6682 30.4415 37.3448 30.4415C41.0214 30.4415 44.015 33.385 44.015 37.0059C44.015 40.6241 41.0214 43.5702 37.3448 43.5702ZM50.2397 25.7152C50.2397 26.4881 49.603 27.1147 48.8176 27.1147C48.0322 27.1147 47.3955 26.4881 47.3955 25.7152C47.3955 24.9423 48.0322 24.3157 48.8176 24.3157C49.603 24.3157 50.2397 24.9423 50.2397 25.7152Z" fill="#EC681C"/>
</svg>
