<svg width="224" height="138" viewBox="0 0 224 138" fill="none" xmlns="http://www.w3.org/2000/svg">
<g clip-path="url(#clip0)">
<path d="M61.9037 51.5885C67.6464 52.8646 70.935 58.362 69.6097 64.3992C68.1372 70.8291 62.9835 75.1485 56.2591 75.2957C50.7127 75.3939 45.1172 75.2466 39.5707 75.3448C37.6074 75.3939 37.8037 74.5104 38.4418 73.2833C39.7671 70.8291 41.8286 69.6021 44.5772 69.553C48.5039 69.5039 52.4306 69.553 56.3572 69.553C61.1183 69.5039 64.6032 64.841 63.4252 60.2271C62.6399 57.2331 58.8605 56.0551 55.7192 57.8221C52.4797 59.6381 51.3017 63.1721 52.4797 68.0805C51.3507 68.0805 50.4672 68.0805 49.5837 68.0805C45.608 68.0805 45.608 68.0805 45.7552 64.0066C46.0497 56.1041 54.2467 49.8215 61.9037 51.5885Z" fill="#A0A0A0"/>
<path d="M102.937 75.5416C100.581 75.4926 98.3721 75.1981 96.4088 73.8237C95.378 73.0875 94.5927 72.0567 94.4454 70.8296C94.2491 69.1608 94.3473 67.492 91.844 68.0319C91.3532 68.1301 91.2059 67.7374 91.255 67.2466C91.4023 66.1667 91.5004 64.6942 92.5803 64.547C95.2308 64.3016 95.4271 62.1419 96.3597 60.4731C98.4703 56.7427 104.115 55.1721 107.943 57.2336C109.809 58.2643 110.594 59.8841 110.398 61.9456C110.201 64.547 109.072 66.6085 106.422 67.5411C104.508 68.1791 102.544 67.9828 100.581 68.081C99.8937 68.1301 98.7648 67.492 98.6175 68.7681C98.4703 69.8971 99.0102 70.7806 100.286 71.1241C102.25 71.615 104.164 71.3696 106.127 71.2714C106.765 71.2223 108.091 70.437 107.992 71.8113C107.943 72.9402 108.336 74.6091 106.569 75.0508C105.391 75.3453 104.164 75.3944 102.937 75.5416ZM99.4519 64.1052C100.777 64.1052 102.053 64.1052 103.33 64.1052C103.722 64.1052 104.164 64.0561 104.557 63.958C105.686 63.6635 106.127 62.9272 106.127 61.7983C106.127 60.4731 105.047 60.5712 104.213 60.4731C101.661 60.1786 100.385 61.1602 99.4519 64.1052Z" fill="#717070"/>
<path d="M168.955 63.6635C169.004 65.4305 168.513 67.2466 167.973 69.0136C166.402 73.971 162.721 76.1798 157.567 75.1981C154.279 74.6091 152.512 72.7439 152.364 69.4063C152.168 66.3631 152.708 63.369 154.033 60.6204C156.046 56.3992 162.23 54.6322 166.304 57.1354C168.709 58.6079 169.053 60.9639 168.955 63.6635ZM156.487 67.7374C156.438 70.7315 157.567 71.7623 160.561 71.2714C162.083 71.026 163.114 70.3389 163.654 68.8664C164.39 66.9521 164.782 64.9397 164.832 62.9273C164.881 61.7493 164.635 60.6694 163.212 60.2768C160.316 59.4914 158.156 60.5713 157.322 63.4672C156.978 64.8415 156.782 66.314 156.487 67.7374Z" fill="#717070"/>
<path d="M142.792 56.252C148.192 56.252 150.597 59.0988 149.566 64.3998C149.026 67.1975 148.437 69.9953 147.946 72.793C147.75 73.971 147.161 74.7073 146.032 75.0509C143.774 75.6889 143.185 75.149 143.627 72.8912C144.216 69.9462 144.854 67.0012 145.345 64.0071C145.59 62.6328 146.179 61.013 144.02 60.424C141.811 59.835 139.455 60.6695 138.964 62.5346C138.13 65.676 137.59 68.9154 137.001 72.1059C136.608 74.1674 135.577 75.2963 133.368 75.1981C132.338 75.149 132.092 74.8054 132.289 73.8238C133.123 69.848 133.761 65.7741 134.743 61.8475C135.675 57.9699 138.375 56.252 142.792 56.252Z" fill="#717070"/>
<path d="M126.988 52.129C126.645 53.356 126.89 54.9267 125.221 55.3194C124.288 55.5157 123.258 55.5157 122.276 55.5648C121.294 55.663 120.313 55.7611 119.626 56.5955C118.938 57.43 118.202 58.4607 118.546 59.4424C118.889 60.4731 120.116 59.7369 120.902 59.9823C121.834 60.2768 123.503 59.0497 123.552 60.9149C123.601 62.6328 122.767 64.3016 120.607 64.0071C117.81 63.6145 116.828 64.7925 116.73 67.3939C116.632 69.1118 116.141 70.7806 115.797 72.4495C115.404 74.3146 114.276 75.2963 112.41 75.1981C111.232 75.3454 110.889 74.9527 111.134 73.7747C112.214 68.5719 113.098 63.32 114.276 58.1662C115.552 52.767 120.951 49.8711 126.301 51.3436" fill="#717070"/>
<path d="M93.3169 56.7428C92.5806 60.6694 92.5806 60.7676 88.9976 60.7185C86.5434 60.7185 85.2181 61.7002 84.7764 64.1543C84.2856 67.0503 83.6475 69.8971 83.1076 72.793C82.9112 73.9219 82.3222 74.7073 81.1933 75.0999C78.9846 75.8362 78.2974 75.2472 78.7391 72.9893C79.3281 69.9462 79.9171 66.903 80.5552 63.8598C81.6351 58.5098 83.6966 56.7918 89.0466 56.7428C90.4701 56.6937 91.8444 56.7428 93.3169 56.7428Z" fill="#717070"/>
<path d="M185.004 56.7427C184.563 60.5222 184.415 60.6694 181.029 60.7676C177.838 60.8167 177.249 61.2584 176.562 64.4488C175.973 67.0993 175.482 69.7498 174.991 72.3512C174.795 73.382 174.402 74.2655 173.47 74.7563C172.586 75.2471 171.556 75.6398 170.672 75.0999C169.887 74.56 170.427 73.5783 170.574 72.8421C171.114 69.848 171.703 66.903 172.292 63.958C173.372 58.5588 175.384 56.8409 180.783 56.7918C182.207 56.6937 183.63 56.7427 185.004 56.7427Z" fill="#717070"/>
<path d="M125.86 75.1981C124.682 75.3454 124.338 75.0018 124.583 73.6765C125.565 69.0627 126.399 64.3998 127.283 59.786C127.479 58.7061 127.97 57.8226 128.952 57.1845C129.737 56.6937 130.719 56.4483 131.504 56.7919C132.633 57.2827 131.75 58.2644 131.602 58.9025C130.866 63.369 129.983 67.8356 129.148 72.3513C128.805 74.2655 127.872 75.3454 125.86 75.1981Z" fill="#717070"/>
<path d="M62.6885 75.1981C65.0445 73.8238 67.1551 72.3513 69.0202 70.3388C70.5418 68.7682 72.7506 69.6517 74.6157 69.6517C75.5483 69.6517 74.9593 70.5352 74.8121 70.9769C73.7322 73.6765 71.6707 75.0508 68.7748 75.1981C66.7624 75.2963 64.75 75.1981 62.6885 75.1981Z" fill="#717070"/>
</g>
<defs>
<clipPath id="clip0">
<rect width="147.005" height="24.5417" fill="white" transform="translate(38 51)"/>
</clipPath>
</defs>
</svg>
