<svg width="224" height="138" viewBox="0 0 224 138" fill="none" xmlns="http://www.w3.org/2000/svg">
<path d="M128.078 63.2379C128.24 63.3188 128.402 63.3593 128.543 63.4402C129.353 63.8448 129.798 64.6945 129.676 65.6858C129.433 67.7899 128.341 69.287 126.419 70.1771C125.428 70.6425 124.355 70.8245 123.263 70.9055C122.535 70.9662 121.806 70.9662 121.098 70.9662C119.095 70.9662 117.092 70.9662 115.09 70.9662C114.908 70.9662 114.847 70.9459 114.908 70.7436C115.231 69.6511 115.535 68.5587 115.838 67.4459C116.87 63.8448 117.902 60.2234 118.913 56.6223C118.954 56.4604 119.014 56.3795 119.197 56.3795C121.624 56.3795 124.052 56.3795 126.48 56.3997C127.451 56.3997 128.402 56.5009 129.312 56.8448C130.142 57.1483 130.789 57.6541 130.931 58.5847C131.032 59.2119 130.91 59.8188 130.668 60.4055C130.222 61.5587 129.393 62.3477 128.381 63.0153C128.321 63.076 128.22 63.1569 128.078 63.2379ZM122.09 67.5471C122.535 67.5269 123.04 67.5673 123.566 67.5066C124.497 67.365 125.043 66.8795 125.225 65.9893C125.306 65.524 125.144 65.2205 124.72 65.0587C124.538 64.998 124.355 64.9575 124.173 64.9373C123.303 64.8361 122.434 64.8968 121.564 64.8766C121.422 64.8766 121.381 64.9575 121.361 65.0587C121.139 65.8275 120.936 66.5962 120.714 67.365C120.653 67.5673 120.714 67.5673 120.876 67.5673C121.24 67.5471 121.624 67.5471 122.09 67.5471ZM123.344 62.2263C123.668 62.2263 123.991 62.2263 124.315 62.2263C125.246 62.1859 125.933 61.7003 126.156 60.8911C126.318 60.2639 126.116 59.9402 125.488 59.839C124.639 59.7177 123.789 59.7986 122.96 59.7783C122.838 59.7783 122.838 59.8593 122.818 59.9402C122.616 60.6483 122.434 61.3564 122.211 62.0442C122.171 62.2061 122.231 62.2263 122.353 62.2263C122.676 62.2263 123.02 62.2263 123.344 62.2263Z" fill="#717070"/>
<path d="M144.525 64.1078C144.768 64.2292 144.991 64.3101 145.213 64.4315C145.982 64.8361 146.285 65.4228 146.204 66.2928C146.124 67.0616 145.921 67.8101 145.719 68.5587C145.598 69.024 145.436 69.4893 145.355 69.9748C145.314 70.1974 145.274 70.4402 145.598 70.5413C145.699 70.5615 145.638 70.6627 145.618 70.7032C145.577 70.8043 145.618 70.9662 145.436 70.9864C145.395 70.9864 145.355 70.9864 145.314 70.9864C143.858 70.9864 142.381 70.9864 140.924 70.9864C140.722 70.9864 140.661 70.9459 140.681 70.7436C140.762 70.0153 140.924 69.3072 141.126 68.5991C141.228 68.235 141.329 67.8506 141.389 67.4662C141.531 66.4546 141.248 66.0702 140.236 65.9488C139.488 65.8477 138.739 65.9084 137.991 65.8881C137.829 65.8881 137.829 66.0095 137.809 66.0905C137.384 67.5673 136.959 69.0644 136.534 70.5413C136.413 70.9662 136.413 70.9662 135.968 70.9662C134.592 70.9662 133.216 70.9662 131.84 70.9662C131.638 70.9662 131.618 70.9055 131.679 70.7234C133.034 66.0095 134.369 61.2957 135.725 56.5818C135.765 56.42 135.846 56.3795 136.008 56.3795C138.375 56.3795 140.722 56.3795 143.089 56.3795C144.202 56.3795 145.294 56.4604 146.346 56.8246C146.508 56.8853 146.65 56.946 146.811 57.0067C147.762 57.4518 148.248 58.2003 148.187 59.2523C148.086 60.709 147.58 61.9835 146.508 63.0153C146.002 63.5009 145.395 63.8448 144.707 64.0471C144.667 64.0673 144.606 64.0673 144.525 64.1078ZM140.054 62.6916C140.621 62.6916 141.167 62.7321 141.733 62.6107C142.462 62.4691 143.069 62.1454 143.311 61.3766C143.574 60.5471 143.251 59.9807 142.401 59.8593C141.511 59.7177 140.621 59.8188 139.71 59.7986C139.589 59.7986 139.589 59.8593 139.548 59.9604C139.306 60.8101 139.083 61.6598 138.82 62.5095C138.78 62.6714 138.84 62.7119 138.982 62.7119C139.346 62.6916 139.69 62.6916 140.054 62.6916Z" fill="#717070"/>
<path d="M92.5114 64.128C92.734 64.2291 92.9363 64.3101 93.1386 64.4315C93.9074 64.8361 94.2108 65.4025 94.1299 66.2725C94.0692 67.0615 93.8467 67.81 93.6444 68.5586C93.523 69.0239 93.3814 69.469 93.3004 69.9343C93.26 70.1569 93.1791 70.4401 93.5432 70.5413C93.6241 70.5615 93.5837 70.6424 93.5634 70.6829C93.523 70.784 93.5432 70.9459 93.4016 70.9863C93.3611 71.0066 93.3004 70.9863 93.26 70.9863C91.8033 70.9863 90.3265 70.9863 88.8698 70.9863C88.6271 70.9863 88.6068 70.9054 88.6271 70.7031C88.7282 69.8736 88.9508 69.0644 89.1733 68.2551C89.2744 67.9314 89.3351 67.5875 89.3756 67.2436C89.4565 66.5962 89.1935 66.2118 88.5664 66.0297C88.2224 65.9286 87.8583 65.9083 87.4941 65.9083C87.0288 65.8881 86.5635 65.9286 86.1184 65.8881C85.8958 65.8679 85.8149 65.9488 85.7542 66.1713C85.3294 67.7089 84.9045 69.2465 84.4797 70.784C84.4392 70.9459 84.3785 71.0066 84.1964 71.0066C82.7398 71.0066 81.3034 71.0066 79.8467 71.0066C79.6242 71.0066 79.6242 70.9459 79.6849 70.7638C81.0404 66.0499 82.3959 61.3361 83.7311 56.6222C83.7716 56.4604 83.8323 56.4199 83.9941 56.4199C86.4219 56.4199 88.8698 56.4199 91.2976 56.4402C92.3293 56.4402 93.3611 56.5413 94.3525 56.8852C94.5548 56.9459 94.7571 57.0471 94.9392 57.128C95.7686 57.5529 96.1935 58.2407 96.153 59.1714C96.0923 60.7089 95.5461 62.0644 94.3929 63.1164C93.9074 63.5615 93.3207 63.865 92.6935 64.0673C92.6126 64.0471 92.5519 64.0471 92.5114 64.128ZM88.971 59.7985C88.4854 59.7985 88.101 59.7985 87.6964 59.7985C87.5953 59.7985 87.5346 59.7985 87.4941 59.9199C87.2513 60.7898 87.0086 61.6598 86.7658 62.5297C86.7253 62.6916 86.8062 62.6916 86.9276 62.6916C87.5346 62.6916 88.1415 62.6916 88.7484 62.6916C89.0519 62.6916 89.3554 62.6713 89.6588 62.6106C90.4276 62.469 91.0346 62.1049 91.2571 61.2956C91.4796 60.5066 91.1559 60.0008 90.3467 59.839C89.8611 59.7581 89.3756 59.8188 88.971 59.7985Z" fill="#717070"/>
<path d="M108.109 56.0154C109.162 56.0356 110.294 56.1772 111.346 56.7235C112.742 57.4518 113.531 58.6252 113.794 60.1628C114.078 61.8419 113.714 63.4604 113.046 64.998C111.69 68.1541 109.364 70.2379 106.005 71.0876C104.245 71.5327 102.485 71.5327 100.766 70.8853C98.9448 70.1974 97.9737 68.8217 97.8523 66.8997C97.5488 62.7321 100.219 57.4316 106.026 56.2177C106.673 56.0761 107.32 56.0154 108.109 56.0154ZM109 61.9229C109 61.6801 108.979 61.4171 108.939 61.1743C108.797 60.3044 108.271 59.7379 107.482 59.6165C106.673 59.4951 105.904 59.6368 105.216 60.1223C104.488 60.6281 103.962 61.3159 103.578 62.0847C102.971 63.3391 102.586 64.6541 102.708 66.0703C102.789 67.0413 103.355 67.6483 104.326 67.7697C105.399 67.8911 106.309 67.5269 107.037 66.7581C108.332 65.4026 108.858 63.7234 109 61.9229Z" fill="#717070"/>
<path d="M61.3959 67.5471C61.1126 68.5182 60.8496 69.4691 60.5866 70.4199C60.4248 70.9662 60.4248 70.9662 59.8583 70.9662C56.0751 70.9662 52.2919 70.9662 48.5086 70.9662C48.2254 70.9662 48.2254 70.9662 48.3063 70.6829C49.6416 66.0095 50.9768 61.3159 52.3121 56.6425C52.3728 56.4402 52.4537 56.3795 52.656 56.3795C56.4392 56.3795 60.2022 56.3795 63.9855 56.3795C64.2687 56.3795 64.2687 56.3795 64.1878 56.6628C63.9248 57.6338 63.6415 58.6049 63.3785 59.576C63.3381 59.7379 63.2571 59.7986 63.0953 59.7986C60.8699 59.7986 58.6444 59.7986 56.4392 59.7986C56.2572 59.7986 56.1762 59.8593 56.1155 60.0414C55.9739 60.5674 55.8323 61.0934 55.6502 61.6194C55.5895 61.8217 55.6098 61.8824 55.8525 61.8824C57.6733 61.8622 59.4941 61.8824 61.3149 61.8824C61.6184 61.8824 61.6184 61.8824 61.5375 62.1859C61.2542 63.1569 60.9912 64.1078 60.7282 65.0789C60.6878 65.261 60.5866 65.3014 60.4248 65.3014C58.5837 65.3014 56.7427 65.3014 54.9017 65.3014C54.6994 65.3014 54.6387 65.3621 54.578 65.5442C54.4161 66.1512 54.2543 66.7379 54.0722 67.3448C54.0115 67.5471 54.0317 67.5876 54.2543 67.5876C56.5404 67.5876 58.8265 67.5876 61.1126 67.5876C61.1936 67.5471 61.2745 67.5471 61.3959 67.5471Z" fill="#717070"/>
<path d="M168.6 66.4749C169.309 66.4749 169.996 66.4749 170.704 66.4749C170.866 66.4749 170.907 66.5154 170.907 66.6772C170.887 67.2437 171.17 67.6281 171.696 67.8102C172.626 68.1541 173.517 68.0327 174.387 67.5876C174.528 67.5067 174.65 67.3853 174.751 67.2639C175.074 66.8391 175.014 66.394 174.569 66.1108C174.043 65.7668 173.436 65.6455 172.849 65.4836C171.898 65.2206 170.927 65.0183 170.037 64.5934C169.875 64.5125 169.693 64.4316 169.531 64.3304C168.297 63.5819 167.872 62.4287 168.257 60.8911C168.641 59.3536 169.511 58.1397 170.866 57.3507C173.233 55.9547 175.782 55.6715 178.413 56.3594C179.748 56.7033 180.638 57.5732 180.921 58.9692C181.022 59.475 181.022 59.9807 180.941 60.4865C180.921 60.6079 180.881 60.6281 180.759 60.6281C179.343 60.6281 177.947 60.6281 176.531 60.6281C176.45 60.6281 176.369 60.6281 176.369 60.5067C176.41 59.92 176.066 59.5761 175.439 59.4345C174.892 59.3131 174.346 59.3333 173.8 59.4952C173.618 59.5559 173.436 59.6368 173.294 59.7784C172.869 60.183 172.91 60.7091 173.395 61.0328C173.82 61.316 174.306 61.4374 174.791 61.579C175.722 61.842 176.693 62.0443 177.603 62.4287C177.887 62.5501 178.15 62.6715 178.413 62.8333C179.667 63.6021 180.112 64.6541 179.748 66.0905C179.323 67.8304 178.332 69.1859 176.774 70.0558C174.407 71.3709 171.858 71.6946 169.207 71.0472C168.277 70.8246 167.467 70.3391 166.881 69.5501C166.213 68.6801 166.072 67.6888 166.294 66.6165C166.335 66.4749 166.415 66.4749 166.517 66.4749C167.204 66.4749 167.892 66.4749 168.6 66.4749Z" fill="#717070"/>
<path d="M32 70.9662C32.2225 70.1569 32.4451 69.3881 32.6676 68.5991C33.8006 64.6338 34.9335 60.6483 36.0462 56.683C36.1069 56.4604 36.2081 56.3795 36.4508 56.3795C38.7167 56.3997 40.9826 56.3795 43.2687 56.3795C44.1387 56.3795 44.9884 56.4604 45.8179 56.7234C47.6184 57.2899 48.4479 58.524 48.1849 60.3853C47.9624 62.024 47.2745 63.4806 46.0202 64.6136C45.0086 65.524 43.7947 66.0095 42.4797 66.2523C41.2456 66.4749 40.0115 66.3939 38.7572 66.4142C38.5347 66.4142 38.2514 66.3535 38.1098 66.4546C37.9682 66.5558 37.948 66.8592 37.8873 67.0616C37.5433 68.2754 37.1792 69.4893 36.8352 70.7032C36.7948 70.8852 36.7139 70.9459 36.5318 70.9459C35.1156 70.9662 33.6792 70.9662 32.2428 70.9662C32.1618 70.9662 32.1012 70.9662 32 70.9662ZM40.2138 63.0356C40.5173 63.0356 40.841 63.0356 41.1445 63.0356C42.3179 63.0153 43.1069 62.4286 43.4104 61.3564C43.6127 60.6281 43.3699 60.183 42.6618 59.9402C42.5809 59.92 42.5 59.8997 42.419 59.8795C41.63 59.7177 40.841 59.7986 40.052 59.7783C39.9306 59.7783 39.9306 59.8593 39.9104 59.9402C39.6271 60.9113 39.3439 61.8824 39.0607 62.8535C39.0202 62.9951 39.0607 63.0356 39.2023 63.0356C39.5462 63.0356 39.8901 63.0356 40.2138 63.0356Z" fill="#717070"/>
<path d="M147.642 70.9459C147.642 70.865 147.702 70.8043 147.743 70.7436C150.798 66.0095 153.853 61.2755 156.887 56.5414C156.968 56.42 157.049 56.3795 157.191 56.3795C158.668 56.3795 160.144 56.3795 161.642 56.3795C161.824 56.3795 161.884 56.4402 161.884 56.6021C162.087 59.3333 162.289 62.0442 162.491 64.7754C162.633 66.7783 162.795 68.7812 162.957 70.7841C162.977 70.9459 162.916 70.9662 162.795 70.9662C161.318 70.9662 159.841 70.9662 158.384 70.9662C158.243 70.9662 158.202 70.9257 158.202 70.7841C158.202 70.2783 158.182 69.7725 158.182 69.2465C158.182 69.0847 158.142 69.0442 157.98 69.0442C156.523 69.0442 155.046 69.0442 153.59 69.0442C153.448 69.0442 153.387 69.0847 153.327 69.2061C153.043 69.7321 152.74 70.2581 152.436 70.8043C152.376 70.9055 152.335 70.9662 152.194 70.9662C150.717 70.9662 149.24 70.9662 147.743 70.9662C147.682 70.9662 147.662 70.9459 147.642 70.9459ZM158.081 60.8506C157.11 62.5702 156.139 64.2697 155.168 66.0095C155.269 66.0095 155.309 66.0095 155.37 66.0095C156.24 66.0095 157.09 66.0095 157.959 66.0095C158.162 66.0095 158.182 65.9488 158.182 65.7668C158.162 64.1685 158.142 62.5702 158.121 60.9518C158.121 60.9518 158.142 60.8911 158.081 60.8506Z" fill="#717070"/>
<path d="M80.6968 56.3997C80.3326 57.6338 79.9887 58.8679 79.6447 60.0818C79.6043 60.2437 79.5031 60.2234 79.3817 60.2234C78.1072 60.2234 76.8326 60.2234 75.558 60.2234C75.3557 60.2234 75.2748 60.2841 75.2141 60.4864C74.2633 63.9055 73.2719 67.3043 72.3211 70.7234C72.2604 70.9055 72.1997 70.9662 71.9974 70.9662C70.561 70.9662 69.1245 70.9459 67.7084 70.9662C67.4656 70.9662 67.4656 70.9055 67.5061 70.7032C68.4771 67.3043 69.4482 63.9055 70.4396 60.5067C70.5003 60.2639 70.4396 60.2437 70.2373 60.2437C68.9829 60.2437 67.7286 60.2437 66.454 60.2437C66.2517 60.2437 66.2113 60.2032 66.272 60.0009C66.6159 58.8679 66.9396 57.7148 67.2633 56.5616C67.3037 56.4402 67.324 56.3795 67.4656 56.3795C71.8557 56.3795 76.2257 56.3795 80.6158 56.3795C80.6361 56.3997 80.6563 56.3997 80.6968 56.3997Z" fill="#717070"/>
</svg>
