<svg width="224" height="138" viewBox="0 0 224 138" fill="none" xmlns="http://www.w3.org/2000/svg">
<g clip-path="url(#clip0)">
<path d="M61.8478 69.1773C64.1099 65.88 66.2186 62.8127 68.3273 59.7071C68.8258 58.9787 68.2506 58.5186 67.9056 58.0201C65.9119 55.1062 63.9181 52.154 61.656 48.8951C63.7648 48.8951 65.5285 48.9334 67.2538 48.8951C68.0973 48.8567 68.3273 49.4702 68.6724 49.9686C69.7076 51.4255 70.7045 52.8825 71.8163 54.5311C72.8899 52.9975 73.9251 51.6556 74.8069 50.1986C75.4204 49.2018 76.0722 48.78 77.2607 48.8567C78.7177 48.9717 80.1746 48.8951 82.015 48.8951C79.9829 51.8473 78.2576 54.6078 76.2639 57.215C75.152 58.6719 75.152 59.6688 76.2255 61.1257C78.3726 63.9629 80.2896 66.9535 82.5517 70.2508C80.3663 70.2508 78.5643 70.2508 76.7623 70.2508C76.0338 70.2508 75.8421 69.6374 75.5354 69.2156C74.3085 67.4519 73.0816 65.6883 71.778 63.8096C71.2412 64.5381 70.7428 65.0748 70.4744 65.6883C68.7874 69.6374 65.8352 71.0176 61.6944 70.2892C60.8892 70.1358 60.0074 70.1358 59.2022 70.2508C57.1318 70.5192 55.6366 70.0208 55.1765 67.7587C55.0231 67.0302 54.5247 66.8002 53.7579 66.8385C51.074 66.8768 48.3902 66.9152 45.7063 66.8385C44.7861 66.8002 44.4411 67.2986 44.2877 67.9887C43.866 69.9824 42.6007 70.4042 40.6837 70.2892C37.3864 70.1358 37.3864 70.2508 38.8433 67.2219C41.5272 61.5858 44.2877 55.9881 46.8949 50.352C47.47 49.0868 48.2751 48.8567 49.4254 48.9717C50.6906 49.0868 51.9559 48.5883 52.761 50.352C55.7132 56.6015 58.7422 62.736 61.8478 69.1773ZM49.8088 55.528C48.8503 57.6751 48.0068 59.5538 47.2016 61.4708C47.0099 61.8925 47.0482 62.2376 47.6234 62.1993C49.272 62.1226 50.9207 62.4293 52.6843 62.0076C51.7258 59.8605 50.844 57.8668 49.8088 55.528Z" fill="#717070"/>
<path d="M132.434 62.6976C132.434 58.5568 132.472 54.416 132.395 50.2369C132.395 49.1634 132.702 48.8566 133.776 48.8566C137.495 48.8183 137.495 48.78 137.495 52.4607C137.495 57.8284 137.456 63.1961 137.533 68.5638C137.571 69.9057 137.111 70.0974 135.846 70.2891C132.242 70.8259 129.98 69.5606 128.331 66.225C126.568 62.6593 124.152 59.4003 122.005 55.9113C121.507 56.4098 121.66 56.9082 121.66 57.3683C121.66 61.1257 121.622 64.9214 121.66 68.6788C121.66 69.829 121.392 70.2124 120.165 70.2508C116.446 70.2891 116.446 70.3274 116.446 66.57C116.446 61.2023 116.484 55.8346 116.407 50.467C116.407 49.24 116.714 49.01 117.979 48.8183C121.852 48.2815 124.344 49.4701 126.107 53.1508C127.718 56.5631 130.057 59.6304 132.089 62.851C132.204 62.8127 132.319 62.736 132.434 62.6976Z" fill="#717070"/>
<path d="M103.064 71.2092C96.508 71.2092 91.4854 66.2633 91.4854 59.7837C91.4854 53.3041 96.6997 48.0515 103.141 48.1281C109.505 48.2048 114.797 53.5342 114.72 59.7454C114.681 66.1483 109.544 71.2092 103.064 71.2092ZM96.3546 59.7454C96.3546 63.3877 99.3835 66.4167 103.026 66.455C106.592 66.455 109.774 63.3494 109.812 59.7837C109.812 56.218 106.707 53.1508 103.064 53.1124C99.3835 53.1124 96.3546 56.103 96.3546 59.7454Z" fill="#717070"/>
<path d="M152.447 48.4733C156.166 43.3357 160.729 40.4218 166.748 40.0384C173.726 39.5783 178.941 42.6072 183.312 48.435C182.046 48.435 181.203 48.5117 180.359 48.435C175.72 48.0516 171.886 49.7386 168.704 53.0359C168.205 53.5343 167.784 54.1861 167.055 53.2659C163.949 49.3935 159.77 48.1283 154.978 48.4733C154.249 48.5117 153.559 48.4733 152.447 48.4733Z" fill="#A0A0A0"/>
<path d="M186.149 59.4771C186.11 61.4325 185.535 63.8863 184.653 66.3017C184.193 67.567 183.465 67.7587 182.276 67.4136C180.896 66.9919 179.746 66.3401 178.71 65.2282C176.947 63.2728 175.03 61.3941 173.113 59.5921C172.346 58.902 172.423 58.4802 173.151 57.8284C174.646 56.4482 176.027 54.9146 177.522 53.5343C178.979 52.154 180.666 51.2722 182.813 51.2339C184.308 51.1955 185.037 51.6939 185.343 53.0742C185.765 54.9529 186.187 56.8699 186.149 59.4771Z" fill="#A0A0A0"/>
<path d="M149.687 58.3268C149.648 56.7165 149.993 54.7228 150.53 52.7674C150.875 51.4638 151.527 51.0804 152.831 51.1955C154.594 51.3488 156.205 51.8472 157.508 53.0358C159.195 54.6078 160.767 56.2564 162.416 57.8284C162.953 58.3268 163.183 58.6719 162.493 59.3237C160.345 61.3941 158.275 63.5028 156.166 65.6116C156.09 65.6882 155.975 65.8033 155.898 65.8799C152.792 68.3721 151.565 67.9887 150.415 64.2313C149.878 62.4676 149.648 60.6273 149.687 58.3268Z" fill="#A0A0A0"/>
<path d="M89.6832 59.8221C89.6832 62.8127 89.6448 65.8032 89.7215 68.7938C89.7599 69.9057 89.5298 70.3274 88.2646 70.3274C84.6605 70.3274 84.6605 70.4041 84.6605 66.7617C84.6605 61.4324 84.6989 56.0647 84.6222 50.7353C84.5839 49.3551 84.8906 48.8566 86.3859 48.895C89.6832 49.01 89.6832 48.895 89.6832 52.1923C89.6832 54.7228 89.6832 57.2916 89.6832 59.8221Z" fill="#717070"/>
<path d="M121.736 77.4588C123.308 75.5418 126.452 74.6983 128.407 75.4268C128.944 75.6185 129.021 76.0019 129.021 76.4619C129.021 78.9541 129.059 81.4462 128.982 83.9384C128.944 85.2036 128.1 85.8554 126.912 86.0855C125.647 86.3155 124.381 86.1621 123.078 86.0855C122.464 86.0471 122.158 85.7787 122.158 85.127C122.158 84.3601 122.579 84.3218 123.154 84.4368C123.385 84.4752 123.653 84.5135 123.921 84.4752C124.765 84.3601 126.183 84.9352 126.26 83.9384C126.375 82.7882 124.995 83.555 124.305 83.3633C122.426 82.8265 121.621 81.7913 121.813 78.8391C121.889 77.1904 121.161 77.4588 120.164 77.6505C119.397 77.7655 119.512 78.3023 119.512 78.8007C119.512 79.8743 119.474 80.9862 119.512 82.0597C119.55 82.9415 119.435 83.44 118.324 83.44C117.212 83.44 117.097 82.9799 117.097 82.0597C117.135 80.2577 117.173 78.494 117.097 76.692C117.058 75.5801 117.595 75.3884 118.477 75.5034C118.975 75.5801 119.55 75.8485 119.934 75.6951C121.698 74.8516 122.004 75.6568 121.736 77.4588ZM126.797 79.2992C126.375 78.609 127.41 77.3438 125.838 77.2288C124.305 77.1137 124.266 78.3023 124.266 79.2992C124.266 80.296 124.305 81.4846 125.8 81.4462C127.487 81.4079 126.298 79.951 126.797 79.2992Z" fill="#717070"/>
<path d="M133.546 80.7561C134.006 79.0308 134.427 77.8422 134.619 76.6153C134.811 75.2734 135.731 75.3501 136.613 75.5035C137.878 75.7335 137.073 76.577 136.919 77.1138C136.268 79.3759 135.578 81.638 134.849 83.8617C134.159 85.9321 132.28 86.7756 130.248 86.1238C129.788 85.9705 129.673 85.7021 129.635 85.3187C129.596 84.7819 129.826 84.4752 130.402 84.4752C132.472 84.5135 132.319 83.325 131.782 81.9064C131.168 80.2961 130.517 78.6857 130.057 77.0371C129.941 76.6153 129.021 75.7718 130.133 75.5418C130.862 75.3884 131.974 74.9667 132.319 76.3086C132.625 77.6122 133.009 78.8774 133.546 80.7561Z" fill="#717070"/>
<path d="M101.377 79.2608C101.377 78.8774 101.377 78.494 101.377 78.1106C101.377 75.6185 101.377 75.6185 103.908 75.7335C104.023 75.7335 104.138 75.6952 104.291 75.6952C108.394 75.2351 108.624 75.4268 108.624 79.4909C108.624 80.3344 108.586 81.1395 108.624 81.983C108.701 82.9032 108.47 83.3633 107.397 83.3633C106.4 83.3633 106.055 83.0182 106.093 82.0597C106.17 80.8711 106.093 79.6442 106.093 78.4173C106.093 77.7272 106.017 77.1138 105.058 77.2288C104.33 77.3438 103.678 77.4588 103.716 78.4557C103.755 79.7209 103.678 80.9862 103.755 82.2898C103.793 83.1333 103.486 83.4016 102.643 83.3633C101.914 83.325 101.224 83.4016 101.301 82.3281C101.454 81.2929 101.377 80.296 101.377 79.2608Z" fill="#717070"/>
<path d="M98.5786 81.5613C99.0003 81.868 100.227 80.7562 100.266 82.2898C100.304 83.6317 99.2304 83.2483 98.4636 83.4017C98.0418 83.4783 97.5817 83.4784 97.1216 83.4784C93.9394 83.44 92.9808 82.0981 93.2876 78.379C93.5176 76.0403 95.2046 74.9284 97.8501 75.3501C99.5754 75.6569 100.917 77.7273 100.534 79.3759C100.381 79.9893 100.036 79.9894 99.5754 79.9894C98.6936 79.9894 97.8118 79.951 96.8916 79.9894C96.4698 80.0277 95.7414 79.6826 95.703 80.5261C95.6647 81.2929 96.2398 81.4463 96.8533 81.523C97.39 81.5997 97.9268 81.5613 98.5786 81.5613ZM96.9299 78.7241C97.2367 78.4941 98.1185 79.0692 98.0418 77.9956C98.0035 77.3822 97.505 77.1521 96.9683 77.1521C96.3548 77.1521 95.7797 77.3822 95.7414 78.0723C95.703 78.9542 96.3932 78.6091 96.9299 78.7241Z" fill="#717070"/>
<path d="M114.259 81.5612C114.873 81.8296 116.215 80.7177 116.138 82.4814C116.1 82.9032 116.023 83.2866 115.525 83.2866C113.723 83.4016 111.729 84.015 110.195 82.6348C108.7 81.2928 109.007 79.3758 109.39 77.6121C109.658 76.2702 110.617 75.5034 111.921 75.3884C113.339 75.235 114.758 75.1967 115.755 76.5386C116.445 77.4588 116.713 78.609 116.368 79.6059C116.023 80.526 114.911 79.8359 114.183 80.0276C113.378 80.2576 111.844 79.4141 111.844 80.6411C111.767 82.1363 113.378 81.3312 114.259 81.5612ZM112.879 78.724C113.301 78.5707 114.068 78.9924 114.068 78.2256C114.068 77.4971 113.531 77.152 112.764 77.1904C112.112 77.2287 111.652 77.5738 111.691 78.2639C111.767 79.0307 112.496 78.5707 112.879 78.724Z" fill="#717070"/>
<path d="M181.854 70.3659C181.433 69.9441 180.781 70.0975 180.244 70.3275C177.79 70.2125 175.49 69.5224 173.343 68.4105C171.847 67.2219 170.275 66.0717 169.125 64.5764C168.167 63.3112 167.476 63.3878 166.518 64.5764C163.949 67.682 160.844 69.8674 156.703 70.2508C155.744 70.3275 154.747 70.3659 153.674 70.4425C160.805 80.0661 174.224 79.4526 181.394 71.5161C181.663 71.1327 182.276 70.7876 181.854 70.3659Z" fill="#A0A0A0"/>
</g>
<defs>
<clipPath id="clip0">
<rect width="148.148" height="46.3156" fill="white" transform="translate(38 40)"/>
</clipPath>
</defs>
</svg>
