<svg width="224" height="138" viewBox="0 0 224 138" fill="none" xmlns="http://www.w3.org/2000/svg">
<path fill-rule="evenodd" clip-rule="evenodd" d="M38 63.5V82H112.5H187V63.5V45H112.5H38V63.5ZM111.67 63.773L111.639 81.0902H75.7114H39.7841L39.7529 63.773L39.7217 46.4557H75.7114H111.701L111.67 63.773ZM143.998 53.2475C145.358 53.4654 146.143 53.8346 146.972 54.6467C147.635 55.2972 147.765 55.5033 148.007 56.2895C148.195 56.8987 148.288 57.5213 148.294 58.2213L148.304 59.2541H146.213H144.121L144.049 58.5262C143.949 57.5054 143.734 56.9459 143.304 56.5892C142.997 56.3349 142.806 56.282 142.192 56.282C140.795 56.282 140.061 56.9537 140.069 58.2225C140.079 59.5852 140.792 60.3231 143.53 61.8016C146.188 63.2368 147.319 64.1944 148.005 65.5904C148.974 67.5621 148.66 70.4758 147.312 72.0289C146.288 73.2081 144.791 73.7461 142.274 73.8396C140.244 73.915 139.115 73.7617 138.052 73.2664C136.317 72.4574 135.544 71.0851 135.368 68.5041L135.287 67.3213H137.504H139.722L139.778 68.3221C139.872 70.016 140.396 70.6536 141.804 70.7883C143.137 70.9158 144.004 70.2039 144.144 68.8672C144.282 67.5514 143.531 66.6967 140.922 65.1969C139.141 64.1734 138.307 63.6007 137.51 62.8539C136.158 61.5879 135.693 60.5085 135.693 58.6383C135.693 55.0314 137.879 53.2064 142.275 53.1434C142.817 53.1356 143.592 53.1825 143.998 53.2475ZM159.808 53.3018C161.043 53.5231 161.781 53.8576 162.5 54.521C163.471 55.416 163.987 56.8901 163.945 58.6472L163.93 59.2541H161.839H159.747L159.666 58.4468C159.512 56.9115 158.952 56.2833 157.735 56.2825C156.542 56.2816 155.845 56.8382 155.679 57.9244C155.574 58.6172 155.791 59.3001 156.305 59.8916C156.76 60.4166 157.564 60.9386 159.919 62.2399C163.004 63.9447 164.171 65.6153 164.143 68.2918C164.113 71.1574 162.92 72.7737 160.234 73.5875C159.202 73.9003 155.517 73.9107 154.518 73.6037C152.222 72.8984 151.15 71.3696 150.985 68.5648L150.913 67.3213H153.13H155.348L155.402 68.3314C155.497 70.1109 156.099 70.7822 157.594 70.7746C158.926 70.7678 159.582 70.2116 159.752 68.9447C159.932 67.6062 159.223 66.794 156.445 65.1566C154.196 63.8314 153.936 63.6475 152.941 62.6792C151.569 61.3444 151.041 59.7359 151.325 57.7558C151.712 55.0607 153.295 53.6646 156.486 53.2051C157.224 53.099 158.959 53.1496 159.808 53.3018ZM48.3968 53.3793C46.0497 53.7677 44.6137 55.0252 43.8352 57.3738C43.6424 57.9553 43.6079 58.6246 43.5659 62.59C43.5348 65.5403 43.5675 67.5596 43.6589 68.3355C43.9915 71.1557 45.0888 72.8632 47.0739 73.6496C47.7239 73.9072 47.9671 73.9301 50.0578 73.9311C52.5893 73.9324 53.2028 73.8251 55.0714 73.0538L56.0867 72.6348V67.7338V62.8328H52.9492H49.8117V63.9246C49.8117 64.8811 49.8384 65.0171 50.027 65.0226C50.1455 65.026 50.976 65.0233 51.8726 65.0168L53.5029 65.0047V68.0284C53.5029 70.3027 53.4647 71.082 53.3491 71.1723C53.2646 71.2383 52.8631 71.4187 52.4571 71.5732C51.8272 71.8129 51.4841 71.8552 50.1193 71.8622C48.5768 71.8703 48.4987 71.8582 47.9258 71.5262C47.1948 71.1026 46.6992 70.3645 46.4176 69.2799C46.244 68.6117 46.1991 67.6849 46.1554 63.8639C46.0968 58.7517 46.1759 57.9327 46.8271 56.9074C47.6797 55.565 49.5337 55.0264 51.4112 55.5756C52.5604 55.9116 53.2946 56.8734 53.4554 58.2533L53.5367 58.9508H54.8892H56.2415L56.1549 57.9717C55.8982 55.0699 54.6033 53.7628 51.5958 53.3694C50.5684 53.235 49.2445 53.2391 48.3968 53.3793ZM129.82 58.3139C130.549 60.9662 131.781 65.4463 132.558 68.2701C133.335 71.0937 133.97 73.4574 133.97 73.5225C133.97 73.6708 129.565 73.6455 129.472 73.4969C129.436 73.4397 129.171 72.4498 128.882 71.2972L128.356 69.2016H125.484H122.611L122.039 71.3852L121.467 73.5689L119.352 73.6021C117.932 73.6243 117.237 73.5932 117.237 73.5075C117.237 73.4372 117.869 71.1295 118.642 68.3793C119.414 65.6289 120.67 61.1541 121.432 58.4352L122.817 53.4918H125.656H128.495L129.82 58.3139ZM178.304 58.7385C179.096 61.6243 180.323 66.087 181.031 68.6557C181.739 71.2245 182.32 73.397 182.322 73.4833C182.324 73.6074 181.854 73.6328 180.079 73.6046L177.834 73.5689L177.271 71.3852L176.709 69.2016H173.835H170.961L170.399 71.3852L169.836 73.5689L167.714 73.6021C166.546 73.6203 165.591 73.5886 165.591 73.5315C165.591 73.4745 166.448 70.3752 167.496 66.6443C168.544 62.9132 169.803 58.4277 170.295 56.6762L171.189 53.4918H174.027H176.865L178.304 58.7385ZM125.325 57.7984C125.239 58.0754 123.512 65.8063 123.512 65.9154C123.512 65.9547 124.37 65.9869 125.419 65.9869C127.093 65.9869 127.326 65.9629 127.326 65.791C127.326 65.6831 126.993 64.1956 126.587 62.4852C125.414 57.5529 125.408 57.5304 125.325 57.7984ZM173.712 57.6385C173.712 57.6728 173.297 59.5372 172.789 61.7816C172.281 64.026 171.866 65.8903 171.866 65.9245C171.866 65.9589 172.745 65.9869 173.819 65.9869H175.772L175.366 64.2582C174.1 58.8709 173.811 57.6738 173.764 57.6273C173.735 57.599 173.712 57.604 173.712 57.6385ZM65.7453 59.5187C64.6556 59.76 63.8022 60.3926 63.4102 61.2498C63.2883 61.5163 63.141 61.7053 63.0827 61.6699C63.0245 61.6344 62.9769 61.1719 62.9769 60.642V59.6787H61.8695H60.7622V66.6541V73.6295H61.8594H62.9566L63.0065 68.9893C63.0644 63.6028 63.0956 63.4101 64.0674 62.4513C64.7634 61.7645 65.3854 61.5702 66.6373 61.6487L67.5293 61.7046V60.5703V59.4361L66.7603 59.4501C66.3374 59.4579 65.8806 59.4887 65.7453 59.5187ZM88.2317 59.7983C87.7033 60.0622 87.342 60.3492 87.0728 60.7187C86.6626 61.2819 86.4469 61.4008 86.4837 61.0434C86.4957 60.9266 86.4992 60.5719 86.4914 60.2549L86.4773 59.6787H85.3699H84.2626V69.323V78.9672H85.3699H86.4773L86.4918 75.7828C86.4999 74.0314 86.4975 72.5302 86.4865 72.4467C86.4513 72.1801 86.6985 72.2839 86.9597 72.6456C87.0989 72.8382 87.4994 73.1773 87.8498 73.399C88.431 73.7667 88.5875 73.8064 89.6339 73.8515C91.9611 73.9518 93.3371 73.0358 93.9964 70.9472C94.5019 69.346 94.5325 64.6036 94.0492 62.8004C93.6537 61.3248 92.9568 60.3324 91.9673 59.8359C91.4563 59.5795 91.1165 59.5098 90.1685 59.4672C89.0497 59.417 88.9666 59.4312 88.2317 59.7983ZM101.303 59.607C99.4396 60.0624 98.4424 61.1939 97.9868 63.3707C97.7505 64.5001 97.7043 68.5453 97.9156 69.6262C98.5377 72.8096 99.8343 73.8721 103.097 73.8721C106.829 73.8721 108.154 72.3679 108.438 67.8066C108.541 66.1571 108.335 63.598 108.017 62.5835C107.335 60.4049 105.75 59.4193 102.975 59.4464C102.394 59.4521 101.642 59.5244 101.303 59.607ZM70.1131 65.2531C70.1131 68.7274 70.1623 71.0537 70.2438 71.4279C70.4412 72.3357 70.9451 73.0244 71.7216 73.4475C72.3548 73.7927 72.4626 73.8115 73.8043 73.8115C75.0973 73.8115 75.2723 73.7838 75.8344 73.4905C76.5056 73.1404 76.9178 72.7961 77.3382 72.2344L77.6107 71.8705L77.6146 72.75L77.6185 73.6295H78.8063H79.9943L79.9142 72.0828C79.8702 71.2322 79.8339 68.0932 79.8337 65.1074L79.8332 59.6787H78.7258H77.6185V64.6304C77.6185 70.0801 77.5842 70.3881 76.884 71.2227C75.8759 72.4243 73.7769 72.4967 72.9722 71.3577C72.4167 70.5712 72.4024 70.4222 72.3559 64.9254L72.3115 59.6787H71.2122H70.1131V65.2531ZM90.426 61.5366C91.125 61.8986 91.695 62.8056 91.8794 63.8494C92.049 64.8096 92.0533 68.3383 91.8861 69.3836C91.8167 69.8173 91.6095 70.4724 91.4257 70.8393C91.1545 71.3804 90.9825 71.5598 90.5157 71.7881C89.7841 72.1461 88.7504 72.1681 88.1013 71.8394C87.4965 71.5332 86.9191 70.5765 86.709 69.5323C86.4935 68.4624 86.4919 64.8536 86.7064 63.7892C86.9361 62.649 87.4681 61.7814 88.1156 61.4916C88.8348 61.1696 89.7518 61.1874 90.426 61.5366ZM104.394 61.4878C105.015 61.7661 105.455 62.3187 105.753 63.1967C106.082 64.1676 106.082 68.8456 105.752 69.9295C105.288 71.4562 104.518 72.0767 103.088 72.0767C101.632 72.0767 100.852 71.4315 100.417 69.8689C100.088 68.6866 100.095 64.1672 100.428 63.168C100.714 62.3079 101.271 61.6609 101.919 61.4367C102.627 61.1916 103.785 61.2155 104.394 61.4878Z" fill="#717070"/>
</svg>
