<svg width="224" height="138" viewBox="0 0 224 138" fill="none" xmlns="http://www.w3.org/2000/svg">
<g clip-path="url(#clip0)">
<path d="M131.352 50.5789C132.845 50.5789 134.123 50.5636 135.415 50.5789C136.246 50.5942 136.416 50.8242 136.231 51.6213C135.569 54.5033 133.107 56.4655 130.137 56.4961C129.013 56.5115 127.874 56.3888 126.766 56.6188C123.427 57.2933 120.995 60.3439 121.288 63.4711C121.611 67.0429 124.289 69.5723 127.874 69.7102C129.029 69.7562 130.183 69.6183 131.322 69.8176C133.769 70.2621 135.754 72.1783 136.262 74.6004C136.416 75.3515 136.231 75.6121 135.461 75.6121C132.491 75.5815 129.506 75.7194 126.536 75.5202C121.272 75.1676 116.271 70.4461 115.548 65.1114C114.563 58.0138 118.995 51.9739 126.105 50.7475C127.905 50.4256 129.737 50.6249 131.352 50.5789Z" fill="#717070"/>
<path d="M41.6631 49.0306C44.5717 49.0459 47.4803 48.7853 50.3581 49.5978C55.9906 51.1767 60.1458 56.4195 60.4843 62.2754C60.8998 69.2197 56.1137 75.1522 49.8349 76.6852C47.3418 77.2984 44.8025 77.0531 42.2633 77.0531C42.2941 76.6545 42.6326 76.6392 42.9096 76.5625C43.4021 76.4552 43.8792 76.3326 44.3562 76.1793C45.6951 75.7654 46.9109 75.1216 48.0343 74.3091C49.958 72.8068 51.6046 71.0746 52.5742 68.8058C53.2821 67.1348 53.9131 65.4333 53.8515 63.5784C53.8515 63.2105 53.8515 62.8579 53.8515 62.49C53.9131 60.8804 53.359 59.3934 52.8358 57.9064C52.2972 56.3888 51.343 55.1318 50.3119 53.9207C49.1423 52.4798 47.6342 51.4527 45.9875 50.6249C44.8949 50.073 43.7253 49.7511 42.5403 49.4752C42.2171 49.3985 41.8016 49.4752 41.6631 49.0306Z" fill="#717070"/>
<path d="M83.2145 50.5637C85.1998 50.5483 87.2158 50.3337 89.1241 51.1462C91.9557 52.3572 93.7409 54.4574 94.1102 57.508C94.5104 60.7732 93.1869 63.3332 90.4322 65.1268C89.8935 65.4794 89.8781 65.7093 90.1705 66.2305C91.6633 68.9592 93.1099 71.7185 94.5873 74.4625C94.9874 75.2137 94.9413 75.321 94.0641 75.321C92.3251 75.321 90.5861 75.275 88.8471 75.275C88.4623 75.275 88.2469 75.1217 88.0622 74.7844C86.0616 70.9367 84.0456 67.1043 82.0449 63.2566C81.6602 62.5208 81.9218 62.1682 82.7528 62.1375C83.4608 62.1069 84.1841 62.0762 84.892 62.0302C86.6925 61.9229 88.0006 60.4819 87.9852 58.5964C87.9699 56.8181 86.5386 55.2392 84.8304 55.1472C84.2918 55.1166 83.7532 55.1319 83.2145 55.1166C83.0452 54.9479 82.9991 54.718 82.9837 54.4881C82.9529 53.3843 82.9529 52.2806 82.9837 51.1615C82.9837 50.9469 83.0299 50.7323 83.2145 50.5637Z" fill="#717070"/>
<path d="M113.193 55.5918C112.962 55.8524 112.669 55.7297 112.392 55.7297C109.853 55.7451 107.314 55.7451 104.775 55.7297C104.251 55.7297 104.051 55.8524 104.067 56.4042C104.113 57.5999 104.098 58.811 104.067 60.0067C104.051 60.5432 104.221 60.7119 104.759 60.6965C106.452 60.6659 108.145 60.6812 109.838 60.6812C110.115 60.6812 110.407 60.5892 110.653 60.7885C110.376 61.0951 109.992 61.0338 109.653 61.0338C108.637 61.0491 107.606 61.0491 106.591 61.0338C106.021 61.0184 105.744 61.2331 105.76 61.8309C105.79 62.5361 105.775 63.2566 105.76 63.9617C105.744 64.4829 105.975 64.6975 106.498 64.6975C107.499 64.6975 108.499 64.6822 109.484 64.6975C109.838 64.6975 110.207 64.6516 110.484 64.9581C108.73 65.1574 106.96 65.0041 105.19 65.0348C103.944 65.0655 104.082 64.9122 104.082 66.1385C104.082 67.2116 104.113 68.2847 104.067 69.3577C104.051 69.9403 104.19 70.2162 104.821 70.1396C105.144 70.0936 105.483 70.1549 105.821 70.1549C106.083 70.4461 106.052 70.8141 106.067 71.1666C106.083 72.1631 106.083 73.1595 106.067 74.1559C106.052 74.7538 106.298 74.9684 106.883 74.9684C108.576 74.953 110.269 74.953 111.962 74.9684C112.331 74.9684 112.746 74.9071 113.054 75.1983C112.854 75.3669 112.608 75.3056 112.392 75.3056C107.93 75.2903 103.467 75.2596 99.0037 75.275C98.3112 75.275 98.0957 75.091 98.0957 74.3705C98.1265 66.7364 98.1265 59.0869 98.0957 51.4528C98.0957 50.7016 98.3265 50.487 99.0652 50.5023C101.327 50.5483 103.574 50.533 105.837 50.5483C106.114 50.8396 106.067 51.2075 106.067 51.5601C106.083 52.5565 106.083 53.5529 106.067 54.534C106.052 55.1319 106.298 55.3465 106.883 55.3465C108.622 55.3312 110.361 55.3312 112.1 55.3465C112.485 55.3618 112.885 55.2852 113.193 55.5918Z" fill="#717070"/>
<path d="M158.484 55.5918C158.237 55.8064 157.945 55.7144 157.668 55.7144C156.006 55.7297 154.329 55.7451 152.666 55.6991C152.066 55.6838 151.959 55.883 151.959 56.4349C151.974 62.3368 151.974 68.2387 151.974 74.1252C151.974 75.2136 151.897 75.2903 150.804 75.2903C149.542 75.2903 148.296 75.275 147.034 75.2596C146.111 75.2596 146.018 75.183 146.018 74.2632C146.018 68.392 146.018 62.5207 146.018 56.6495C146.018 56.3429 146.003 56.0363 146.003 55.7297C145.018 55.5764 145.003 55.5611 144.987 54.534C144.972 53.5223 144.972 52.4952 144.987 51.4834C144.987 51.1615 144.956 50.8089 145.218 50.5483C147.988 50.5483 150.758 50.5483 153.528 50.5483C153.79 50.8089 153.759 51.1615 153.759 51.4834C153.774 52.4492 153.759 53.415 153.759 54.3807C153.759 55.2852 153.821 55.3312 154.698 55.3465C155.637 55.3618 156.575 55.3465 157.53 55.3465C157.883 55.3618 158.222 55.3312 158.484 55.5918Z" fill="#717070"/>
<path d="M83.2143 50.5636C83.2143 52.0812 83.2143 53.6142 83.2143 55.1318C82.5526 55.1472 81.8754 55.2085 81.2137 55.1472C80.5827 55.0858 80.4442 55.3005 80.4442 55.8983C80.4596 61.0797 80.4596 66.2611 80.4596 71.4425C80.4596 72.5156 80.4442 73.5887 80.475 74.6617C80.4904 75.1523 80.3057 75.3516 79.8133 75.3362C78.2589 75.3056 76.6892 75.2749 75.1195 75.2749C74.5193 75.2749 74.5501 74.907 74.5501 74.5084C74.5501 72.393 74.5501 70.2775 74.5501 68.1467C74.5501 62.628 74.5501 57.1247 74.5501 51.606C74.5501 50.533 74.5501 50.533 75.6119 50.533C78.1358 50.533 80.6751 50.5483 83.2143 50.5636Z" fill="#717070"/>
<path d="M63.824 62.8732C63.824 59.1022 63.8394 55.3157 63.8086 51.5447C63.8086 50.7935 63.9779 50.4869 64.7935 50.5329C66.1786 50.5942 67.5636 50.5636 68.9487 50.5482C69.5642 50.5482 69.8258 50.7935 69.8258 51.422C69.8105 59.1328 69.8105 66.8436 69.8258 74.5544C69.8258 75.1063 69.6258 75.3515 69.0718 75.3515C67.4867 75.3209 65.9016 75.3055 64.3164 75.2902C63.7316 75.2902 63.8394 74.8763 63.8394 74.5391C63.8394 70.7833 63.8394 67.0276 63.8394 63.2871C63.824 63.1185 63.824 62.9959 63.824 62.8732Z" fill="#717070"/>
<path d="M171.226 74.4625C170.364 72.6689 169.749 70.7833 169.041 68.9285C166.794 63.1339 164.578 57.324 162.346 51.5141C161.977 50.5483 161.977 50.533 163.054 50.533C164.563 50.533 166.086 50.5483 167.594 50.533C168.056 50.533 168.364 50.6403 168.518 51.1308C169.672 54.6106 170.826 58.0904 171.98 61.5703C171.503 61.8922 171.626 62.3827 171.626 62.8273C171.611 66.2918 171.626 69.7716 171.611 73.2361C171.626 73.6653 171.734 74.1712 171.226 74.4625Z" fill="#717070"/>
<path d="M171.227 74.4624C171.427 74.1405 171.396 73.7726 171.396 73.42C171.396 69.6796 171.396 65.9545 171.396 62.2141C171.396 61.8615 171.242 61.279 171.996 61.5549C172.642 63.4711 173.304 65.3873 174.012 67.4874C174.304 66.6443 174.551 65.9545 174.797 65.2646C176.074 61.4782 177.352 57.7072 178.629 53.9207C178.675 53.7981 178.737 53.6908 178.783 53.5835C179.198 54.1047 179.183 54.7179 179.183 55.3311C179.198 59.4241 179.183 63.5324 179.183 67.6254C179.183 67.8553 179.168 68.0853 179.229 68.2999C178.537 70.4767 177.659 72.5922 176.782 74.7077C176.613 75.1369 176.274 75.2902 175.797 75.2902C174.643 75.2749 173.489 75.2442 172.335 75.3055C171.688 75.3362 171.334 75.0909 171.227 74.4624Z" fill="#717070"/>
<path d="M51.3579 63.1186C51.3579 65.7093 49.3265 67.7021 46.7103 67.7021C44.1864 67.6868 42.1396 65.6173 42.1396 63.0879C42.1396 60.5279 44.2326 58.489 46.818 58.5044C49.3573 58.5197 51.3579 60.5585 51.3579 63.1186Z" fill="#717070"/>
<path d="M179.228 68.3153C178.844 68.116 178.936 67.7481 178.936 67.4415C178.936 63.6857 178.92 59.93 178.936 56.1896C178.936 55.3158 178.859 54.4727 178.767 53.5989C179.044 52.7557 179.305 51.8973 179.582 51.0542C179.705 50.7016 179.952 50.533 180.336 50.533C182.06 50.533 183.768 50.5483 185.492 50.533C186.03 50.533 186.077 50.7476 185.907 51.2075C183.876 56.4349 181.875 61.6622 179.859 66.8896C179.659 67.3648 179.444 67.8401 179.228 68.3153Z" fill="#717070"/>
<path d="M113.193 55.5917C110.977 55.5917 108.745 55.5764 106.529 55.6071C106.006 55.6071 105.821 55.4538 105.821 54.9172C105.852 53.4609 105.837 52.0199 105.837 50.5636C108.145 50.5483 110.438 50.5483 112.747 50.533C113.116 50.533 113.408 50.6096 113.408 51.0695C113.408 52.4492 113.408 53.8288 113.393 55.1932C113.393 55.3465 113.347 55.4997 113.193 55.5917Z" fill="#717070"/>
<path d="M113.055 75.2136C110.87 75.2136 108.7 75.1983 106.515 75.2289C105.976 75.2289 105.807 75.0756 105.807 74.5391C105.837 73.0828 105.822 71.6265 105.822 70.1702C108.115 70.1549 110.408 70.1549 112.716 70.1395C113.147 70.1395 113.394 70.2468 113.394 70.7374C113.378 72.0557 113.394 73.3894 113.394 74.7077C113.394 74.9377 113.347 75.1523 113.055 75.2136Z" fill="#717070"/>
<path d="M145.234 50.5636C145.234 51.9126 145.265 53.2463 145.219 54.5953C145.188 55.2391 145.311 55.653 146.003 55.745C144.08 55.745 142.156 55.7144 140.232 55.745C139.54 55.7603 139.278 55.5304 139.309 54.8099C139.355 53.6449 139.34 52.4645 139.324 51.2841C139.309 50.7936 139.463 50.5176 140.017 50.533C141.756 50.5483 143.495 50.5483 145.234 50.5636Z" fill="#717070"/>
<path d="M41.6635 49.0306C42.8331 49.4139 44.0642 49.5825 45.2031 50.0577C45.5262 50.1957 45.8802 50.2723 46.1264 50.5483C45.7725 51.8206 45.9264 53.1543 45.8956 54.4726C45.8802 54.8406 45.9571 55.2391 45.6647 55.561C44.0335 55.607 42.4022 55.7603 40.894 54.9325C40.7555 54.7486 40.6324 54.5493 40.6016 54.3193C40.4323 52.8324 40.4477 51.3301 40.5862 49.8431C40.617 49.4752 40.8171 49.1686 41.2018 49.0306C41.3557 49.0306 41.5096 49.0306 41.6635 49.0306Z" fill="#676767"/>
<path d="M158.484 55.5917C157.099 55.5917 155.714 55.5457 154.329 55.6071C153.667 55.6224 153.513 55.3924 153.528 54.7793C153.575 53.3689 153.544 51.9739 153.544 50.5636C155.052 50.5483 156.545 50.5483 158.053 50.533C158.468 50.533 158.745 50.6556 158.745 51.1308C158.745 52.4185 158.745 53.7215 158.745 55.0092C158.745 55.2391 158.699 55.4538 158.484 55.5917Z" fill="#717070"/>
<path d="M110.5 64.9581C109.099 64.9581 107.684 64.9121 106.283 64.9581C105.652 64.9734 105.498 64.7435 105.514 64.161C105.56 63.2412 105.544 62.3214 105.514 61.417C105.498 60.9571 105.668 60.7885 106.129 60.8038C107.637 60.8191 109.146 60.8038 110.654 60.7885C110.915 62.1068 110.731 63.4251 110.746 64.7435C110.762 64.8968 110.623 64.9428 110.5 64.9581Z" fill="#717070"/>
<path d="M44.4329 76.2867C44.0173 76.6086 43.5095 76.6239 43.017 76.7312C42.74 76.7925 42.4784 76.8232 42.2783 77.0378C41.7705 77.0378 41.2472 77.0378 40.7394 77.0378C40.5086 76.7925 40.4932 76.486 40.4932 76.1794C40.4778 74.8304 40.4932 73.466 40.4932 72.117C40.4932 71.8104 40.5393 71.5038 40.7394 71.2432C42.1244 70.4461 43.648 70.3694 45.1869 70.4768C44.1558 71.0746 44.3405 72.071 44.3405 73.0061C44.3405 74.1099 44.3097 75.1983 44.4329 76.2867Z" fill="#676767"/>
<path d="M44.4335 76.2867C44.4181 76.2714 44.4027 76.2408 44.4027 76.2254C43.8641 74.5085 44.1103 72.7609 44.2642 71.0134C44.3104 70.5688 44.9106 70.7068 45.203 70.4922C46.1263 70.4462 47.0651 70.5075 47.9731 70.3389C48.1424 70.9674 48.0346 71.6112 48.0346 72.2397C48.0346 72.9756 48.0962 73.7114 48.127 74.4472C47.0035 75.275 45.8186 75.9648 44.4335 76.2867Z" fill="#676767"/>
<path d="M45.6641 55.561C45.6641 54.2887 45.6487 53.0163 45.6641 51.7439C45.6641 51.2841 45.6795 50.8242 46.1257 50.5176C47.7878 51.2841 49.2498 52.3265 50.4194 53.7521C50.3271 54.4113 50.3578 55.0705 50.3424 55.745C50.3271 56.0516 50.3732 56.3582 50.127 56.6188C48.7419 55.8676 47.2338 55.5917 45.6641 55.561Z" fill="#676767"/>
<path d="M48.1269 74.4472C47.896 74.1559 47.7883 73.8493 47.8191 73.4814C47.9114 72.439 47.6498 71.3813 47.973 70.3388C51.0355 69.4957 53.0053 67.5948 53.7286 64.4829C53.7902 64.1917 53.8209 63.8851 53.8517 63.5785C54.1749 64.6516 53.8209 65.6786 53.5593 66.6904C52.6975 69.9249 50.82 72.4697 48.1269 74.4472Z" fill="#676767"/>
<path d="M41.2015 49.0307C40.9245 49.3526 40.7398 49.7358 40.7552 50.1344C40.8014 51.5754 40.5859 53.0317 40.8783 54.4727C40.9091 54.626 40.8937 54.7793 40.8937 54.9326C38.8315 53.9668 37.6311 52.3112 37.0771 50.165C36.8617 49.3066 37.1387 49 38.0467 49C39.0931 49 40.155 49.0153 41.2015 49.0307Z" fill="#676767"/>
<path d="M40.7392 71.2433C40.7392 73.1748 40.7392 75.1063 40.7392 77.0379C39.8466 77.0532 38.9541 77.0839 38.0615 77.0839C37.0919 77.0839 36.8457 76.7926 37.0919 75.8728C37.6306 73.8033 38.7848 72.2091 40.7392 71.2433Z" fill="#676767"/>
<path d="M50.1277 56.6188C50.1277 55.9136 50.1277 55.1931 50.1277 54.4879C50.1277 54.212 50.097 53.9208 50.4201 53.7675C52.4515 55.9136 53.5442 58.489 53.9597 61.3709C54.0059 61.7388 54.0982 62.1374 53.852 62.4747C53.6211 59.8993 52.2976 57.9831 50.1277 56.6188Z" fill="#676767"/>
</g>
<defs>
<clipPath id="clip0">
<rect width="149" height="28.0838" fill="white" transform="translate(37 49)"/>
</clipPath>
</defs>
</svg>
