<svg width="224" height="138" viewBox="0 0 224 138" fill="none" xmlns="http://www.w3.org/2000/svg">
<path d="M56.1883 86.2531C52.6482 86.304 49.0311 84.9537 45.7732 82.4824C45.0037 81.8965 44.978 81.4888 45.5937 80.7755C47.3124 78.8137 49.339 77.387 51.8529 76.4698C54.0847 75.68 56.3165 75.196 58.6766 75.3234C61.3445 75.4762 63.8328 76.0112 66.0389 77.7182C66.9368 78.4061 68.1681 78.7628 69.1942 79.4761C70.1434 80.1385 70.0664 80.5717 69.2968 81.3105C65.7824 84.648 61.6266 86.2785 56.1883 86.2531Z" fill="#717070"/>
<path d="M56.7532 51.0437C61.8068 50.6615 65.7829 52.8271 69.3743 56.0117C70.3748 56.9034 70.4004 57.7951 69.7591 58.8142C67.7325 61.9224 64.2694 63.7822 60.3702 63.0689C58.8823 62.8141 58.1128 62.1517 59.1389 60.3683C59.7032 59.4002 60.755 58.5594 60.2676 57.1582C60.0367 56.5212 59.8058 56.0372 59.1389 55.706C57.9845 55.1455 56.7532 55.171 55.6501 55.4767C54.0853 55.8843 53.5209 57.897 54.3931 59.3237C54.5727 59.604 54.8292 59.8333 55.0088 60.139C55.2909 60.6231 55.4449 61.1836 55.214 61.7186C54.9575 62.2791 54.3931 62.0243 53.957 62.0243C50.4939 61.9988 47.8003 60.0626 46.6973 56.827C46.5947 56.5467 46.4407 56.292 46.3381 56.0372C46.0046 55.171 46.0046 54.4576 46.9281 53.8461C49.9295 51.8844 53.1874 50.8398 56.7532 51.0437Z" fill="#717070"/>
<path d="M74.6076 69.3362C74.4794 71.5018 73.992 74.2279 72.6067 76.7246C72.4015 77.1068 72.1963 77.7947 71.5036 77.1323C69.0153 74.6864 65.9113 73.2088 62.7561 71.833C61.6786 71.3744 60.7295 70.712 60.6012 69.3872C60.473 68.2407 61.2169 67.1707 62.4482 66.865C64.0387 66.4318 65.6548 66.1261 67.1427 65.3618C69.0923 64.3682 70.6828 63.0179 71.8371 61.1836C72.2989 60.4447 72.6324 60.3173 72.9402 61.26C73.7354 63.7058 74.6846 66.0752 74.6076 69.3362Z" fill="#717070"/>
<path d="M44.7988 76.7756C44.4396 77.1577 44.1061 77.5144 43.747 77.8711C42.4644 79.2214 42.4644 79.2214 41.4639 77.6673C37.7699 71.8075 38.283 63.1708 42.6439 57.897C43.234 57.1582 43.4648 56.9543 43.8753 58.0753C44.4909 59.7823 45.3888 61.3364 46.8253 62.5338C46.8253 62.6867 46.9279 62.7631 47.0819 62.7631C47.1845 62.8396 47.2614 62.9415 47.364 63.0179C47.364 63.1708 47.4154 63.2727 47.5693 63.2472C47.6462 63.2982 47.7232 63.3491 47.8001 63.4255C47.6975 63.4765 47.518 63.6039 47.4667 63.5784C46.1327 62.7631 46.0044 63.2982 45.4914 64.623C45.0553 65.7949 44.6449 66.8904 44.5935 68.1388C44.5166 69.9732 44.0548 71.782 44.3883 73.6164C44.4909 74.2279 45.6966 74.7884 44.5166 75.4762C44.5166 75.4762 44.5935 75.7565 44.6705 75.7565C45.671 76.0113 44.8501 76.4189 44.7988 76.7756Z" fill="#717070"/>
<path d="M92.975 72.7502C92.975 73.3362 92.975 73.9476 92.975 74.5336C92.975 76.5973 92.2567 77.3871 90.1019 77.6418C85.664 78.1769 83.2013 76.4444 82.4574 72.0114C81.9443 69.107 82.2008 66.2535 83.9452 63.7313C85.4331 61.5912 89.6658 60.776 91.795 62.1772C92.2824 62.5084 92.6159 62.8141 92.3593 63.4001C92.1285 63.9351 91.6667 63.8842 91.1536 63.7568C90.6662 63.6039 90.1532 63.6039 89.6401 63.502C87.7418 63.1963 86.3053 63.8332 85.6127 65.5911C84.4583 68.4191 84.5096 71.298 85.7922 74.1005C86.4848 75.6037 88.0753 76.2406 89.6401 75.8584C90.3071 75.7056 90.5123 75.2725 90.5123 74.6355C90.5123 73.4891 90.4867 72.3426 90.5123 71.1961C90.538 70.6356 90.2815 70.3808 89.7684 70.177C89.358 70.0242 89.0501 69.6165 89.1527 69.1579C89.281 68.6484 89.7427 68.4955 90.2301 68.4701C92.8467 68.2662 92.898 68.3172 92.9237 70.9923C92.975 71.5783 92.975 72.1642 92.975 72.7502Z" fill="#717070"/>
<path d="M44.7983 76.7757C44.8496 76.4445 45.6449 76.0114 44.6957 75.7566C44.6188 75.7311 44.5418 75.4764 44.5418 75.4764C45.6962 74.763 44.5161 74.2025 44.4135 73.6165C44.08 71.7567 44.5418 69.9478 44.6188 68.1389C44.6701 66.8906 45.0805 65.795 45.5166 64.6231C46.004 63.2983 46.1579 62.7633 47.4919 63.5785C47.5432 63.604 47.6971 63.4766 47.8253 63.4257C49.5954 64.5976 51.3911 65.7186 53.1355 66.9415C55.2903 68.4192 55.162 70.5338 52.9302 71.9096C50.878 73.1579 48.518 73.9222 46.6197 75.4254C46.004 75.884 45.414 76.3171 44.7983 76.7757ZM46.0553 75.4509C45.9783 75.3999 45.927 75.3235 45.8501 75.3235C45.7731 75.3235 45.6962 75.3999 45.6449 75.4254C45.7218 75.4764 45.7731 75.5528 45.8501 75.5528C45.927 75.5528 45.9783 75.5018 46.0553 75.4509Z" fill="#717070"/>
<path d="M159.748 68.5719C159.748 70.5591 159.748 72.5464 159.748 74.5591C159.748 74.9667 159.671 75.3998 159.979 75.782C160.338 76.2151 160.544 76.6737 160.108 77.1322C159.62 77.6418 158.953 77.8711 158.363 77.5654C157.619 77.1832 157.029 77.3106 156.311 77.5654C154.079 78.3297 151.822 77.2596 151.155 74.9157C150.488 72.5464 150.539 70.1515 152.001 67.9605C152.976 66.4828 154.284 65.7949 156.003 66.0752C157.055 66.228 157.26 65.8204 157.183 64.9287C157.106 63.9606 157.157 62.9669 157.08 61.9988C157.004 61.0052 157.645 60.9543 158.389 60.9033C159.235 60.8269 159.723 61.0816 159.723 61.9733C159.748 64.1644 159.748 66.3554 159.748 68.5719ZM157.234 71.5782C157.234 70.8649 157.26 70.126 157.234 69.4127C157.209 68.9031 157.542 68.1388 156.824 67.9859C156.029 67.7821 155.105 67.7057 154.413 68.4191C153.207 69.6674 153.002 73.6928 154.079 75.0431C154.669 75.7565 155.413 75.9093 156.26 75.68C157.132 75.4508 157.26 74.7883 157.234 73.9986C157.183 73.1833 157.234 72.368 157.234 71.5782Z" fill="#717070"/>
<path d="M113.574 73.9732C113.574 71.9095 113.626 69.8204 113.549 67.7568C113.523 66.7886 114.062 66.4065 114.78 66.5848C115.729 66.8396 116.524 66.5084 117.345 66.2791C120.013 65.5403 122.014 66.8141 122.502 69.5147C122.758 70.9924 122.681 72.47 122.322 73.9222C121.732 76.1387 120.065 78.075 117.191 77.6164C116.294 77.4636 116.037 77.7948 116.088 78.61C116.114 79.3234 116.037 80.0622 116.114 80.7756C116.242 81.7692 115.729 81.9985 114.883 82.1004C113.959 82.2023 113.754 81.7182 113.754 80.9794C113.754 78.661 113.754 76.3171 113.754 73.9987C113.677 73.9732 113.626 73.9732 113.574 73.9732ZM115.986 71.935C116.011 71.935 116.011 71.935 115.986 71.935C115.986 72.7503 116.011 73.5401 115.986 74.3553C115.96 75.0687 116.165 75.6547 116.884 75.8585C117.628 76.0623 118.397 76.0878 118.987 75.3999C120.116 74.0751 120.501 70.3554 119.628 68.8268C119.09 67.9096 118.243 67.7313 117.32 67.9351C116.371 68.1389 115.883 68.7504 115.986 69.7949C116.063 70.5083 115.986 71.2217 115.986 71.935Z" fill="#717070"/>
<path d="M140.406 71.8586C140.278 70.6357 140.509 69.0816 140.329 67.502C140.227 66.6103 141.125 66.33 141.766 66.5593C142.535 66.8396 143.074 66.6103 143.716 66.3555C144.665 65.9733 145.665 65.9733 146.614 66.1007C147.846 66.2536 148.615 67.0689 148.692 68.3172C148.82 71.0178 148.897 73.7439 148.949 76.4444C148.974 77.5145 148.076 77.3871 147.384 77.4635C146.614 77.5654 146.332 77.1833 146.332 76.419C146.358 74.2534 146.358 72.0879 146.332 69.9223C146.306 68.3937 145.588 67.7567 144.177 67.986C143.433 68.1134 142.972 68.4701 142.972 69.3363C143.023 71.5528 142.972 73.7439 142.997 75.9604C143.023 77.0304 142.459 77.3871 141.509 77.4635C140.74 77.5145 140.329 77.2597 140.355 76.3935C140.432 75.0177 140.406 73.6165 140.406 71.8586Z" fill="#717070"/>
<path d="M128.632 77.6417C125.656 77.6162 124.194 75.9602 123.963 72.4953C123.886 71.3743 124.066 70.3043 124.374 69.2343C125.143 66.7885 126.759 65.8458 129.735 66.0751C131.582 66.2025 132.916 67.5782 133.249 69.8202C133.609 72.266 133.609 74.6354 131.582 76.5462C130.71 77.3869 129.709 77.7946 128.632 77.6417ZM130.941 71.9094C130.992 70.8138 130.966 69.7183 130.376 68.7247C129.966 68.0368 129.376 67.8075 128.555 67.8075C127.785 67.833 127.324 68.1897 127.093 68.8011C126.374 70.7629 126.349 72.7756 127.016 74.7628C127.298 75.5526 127.862 75.9602 128.76 75.9602C129.658 75.9602 130.171 75.5271 130.505 74.7628C130.915 73.8711 130.992 72.903 130.941 71.9094Z" fill="#717070"/>
<path d="M176.217 72.0878C176.166 70.5336 176.422 69.056 177.269 67.7057C178.475 65.7949 180.322 65.8713 182.169 66.0497C183.682 66.2025 184.708 67.1961 185.221 68.6229C185.94 70.661 185.914 72.7756 185.17 74.7374C184.298 77.0048 182.784 77.973 179.757 77.6927C178.116 77.5399 176.653 75.9093 176.371 73.8712C176.268 73.2852 176.269 72.6737 176.217 72.0878ZM182.99 71.8075C182.964 70.7884 182.99 69.7948 182.502 68.8267C182.117 68.0624 181.502 67.884 180.732 67.884C179.911 67.9095 179.449 68.3681 179.219 69.0305C178.603 70.8903 178.603 72.7756 179.219 74.6355C179.449 75.3488 179.886 75.8584 180.783 75.8838C181.656 75.9093 182.22 75.6036 182.579 74.7883C182.99 73.8202 182.99 72.8266 182.99 71.8075Z" fill="#717070"/>
<path d="M169.343 70.3554C169.343 71.6292 169.343 72.9031 169.343 74.1769C169.343 74.8139 169.266 75.4253 169.83 75.9349C170.215 76.2915 170.061 76.8266 169.728 77.2087C169.189 77.7947 168.445 77.8457 167.855 77.489C167.291 77.1578 166.88 77.2342 166.316 77.4125C163.982 78.1259 162.135 77.2852 161.724 75.3998C161.211 73.0814 162.622 71.0942 165.008 70.712C165.341 70.6611 165.675 70.6101 166.034 70.6101C166.701 70.6101 166.957 70.2535 166.88 69.642C166.803 69.0306 166.932 68.2917 165.982 68.2153C165.213 68.1643 164.418 68.2153 163.751 68.5974C163.135 68.9541 162.802 68.7248 162.519 68.1898C162.263 67.6803 162.186 67.2217 162.802 66.8905C164.443 65.9988 166.188 65.744 168.009 66.2026C168.881 66.4064 169.189 67.2726 169.343 68.0624C169.471 68.8013 169.471 69.5911 169.523 70.3299C169.446 70.3554 169.394 70.3554 169.343 70.3554ZM166.855 73.7693C166.547 73.3617 167.47 72.2662 166.162 72.2407C164.854 72.2152 164.084 73.0814 164.059 74.3043C164.059 75.2725 164.418 75.833 165.469 75.8075C166.855 75.8075 166.932 74.9158 166.855 73.7693Z" fill="#717070"/>
<path d="M110.932 71.6038C111.035 72.8776 110.778 74.4572 111.035 76.0113C111.163 76.7756 110.24 77.438 109.521 77.0304C108.931 76.6992 108.649 76.903 108.162 77.1323C105.699 78.2278 103.237 77.3871 102.826 75.298C102.672 74.4827 102.647 73.6165 102.698 72.7757C102.8 70.9923 103.006 69.2344 102.749 67.451C102.621 66.5593 103.057 66.1771 103.827 66.0752C104.596 65.9478 104.93 66.33 105.084 67.1198C105.443 68.8522 105.058 70.5592 105.058 72.2917C105.058 72.9286 105.007 73.5655 105.084 74.2024C105.212 75.298 105.981 75.9094 107.008 75.782C108.059 75.6546 108.547 75.1196 108.521 73.9986C108.444 71.935 108.495 69.8459 108.495 67.7822C108.495 66.7122 109.291 66.1517 110.342 66.33C110.958 66.4319 110.907 66.865 110.907 67.2727C110.932 68.623 110.932 69.9732 110.932 71.6038Z" fill="#717070"/>
<path d="M137.944 69.6165C137.944 71.8331 137.892 74.0241 137.969 76.2406C137.995 77.3871 137.328 77.438 136.481 77.489C135.609 77.5399 135.25 77.2342 135.25 76.3425C135.276 72.0114 135.25 67.6803 135.276 63.3492C135.276 62.0498 136.199 61.4639 137.43 61.846C138.02 62.0244 137.918 62.4829 137.918 62.8651C137.944 65.1326 137.918 67.3746 137.944 69.6165C137.944 69.6165 137.918 69.6165 137.944 69.6165Z" fill="#717070"/>
<path d="M174.396 68.8012C174.396 70.712 174.396 72.6228 174.396 74.5336C174.396 74.9157 174.268 75.3489 174.55 75.6291C174.986 76.0877 175.192 76.5463 174.756 77.0813C174.345 77.5908 173.755 77.7182 173.139 77.5908C172.498 77.4635 172.062 77.0558 171.934 76.4189C171.882 76.1386 171.857 75.8329 171.857 75.5272C171.805 71.1196 171.78 66.7121 171.703 62.3045C171.677 61.3619 171.934 60.9033 172.96 60.8269C174.037 60.7504 174.319 61.26 174.319 62.1517C174.319 64.3682 174.319 66.5592 174.319 68.7757C174.345 68.8012 174.371 68.8012 174.396 68.8012Z" fill="#717070"/>
<path d="M95.3856 72.1387C95.3086 70.8649 95.5395 69.2343 95.2573 67.6293C95.1291 66.814 95.796 66.4828 96.2065 66.6357C97.5148 67.0942 98.5665 66.2535 99.7466 66.1516C100.311 66.1006 100.901 66.1006 101.157 66.7376C101.337 67.2216 101.106 67.6802 100.798 68.0369C100.439 68.4445 99.9005 68.2152 99.4644 68.2407C97.8739 68.2662 97.7969 68.3171 97.7969 69.8967C97.7969 71.9349 97.8226 73.9731 97.7969 75.9858C97.7969 77.2087 97.0274 77.7182 95.8473 77.438C95.3086 77.3106 95.3599 76.9284 95.3599 76.5463C95.3856 75.1705 95.3856 73.8202 95.3856 72.1387Z" fill="#717070"/>
<path d="M47.0817 62.7631C46.9278 62.7631 46.8252 62.6867 46.8252 62.5338C46.9022 62.6102 47.0048 62.6867 47.0817 62.7631Z" fill="#717070"/>
<path d="M47.5688 63.2472C47.3893 63.2727 47.338 63.1963 47.3636 63.0179C47.4406 63.0944 47.4919 63.1708 47.5688 63.2472Z" fill="#717070"/>
<path d="M46.0562 75.4509C45.9793 75.4763 45.9023 75.5528 45.8253 75.5528C45.7484 75.5528 45.6971 75.4764 45.6201 75.4254C45.6971 75.3999 45.774 75.3235 45.8253 75.3235C45.928 75.349 46.0049 75.3999 46.0562 75.4509Z" fill="#717070"/>
<path d="M44.2415 76.4923C41.1919 78.3983 43.765 67.9154 45.4327 62.4358C45.5916 62.4358 46.1952 63.0552 47.3388 63.627C48.4824 64.1988 48.1329 64.6594 47.8153 65.0565L48.2918 72.4421C48.2123 72.998 47.291 74.5863 44.2415 76.4923Z" fill="#717070" stroke="#717070"/>
</svg>
