<svg width="224" height="138" viewBox="0 0 224 138" fill="none" xmlns="http://www.w3.org/2000/svg">
<path d="M112.435 84.9735C88.5157 84.9735 64.596 84.9603 40.6893 85C39.1507 85 38 83.9684 38 82.2227C38.0646 73.7189 38.0517 65.215 38 56.698C38 55.177 39.0473 54 40.6376 54C88.5545 54.0265 136.471 54.0265 184.401 54C185.836 54 187.013 55.0448 187 56.6451C186.935 65.215 186.948 73.785 187 82.3682C187.013 84.0081 185.746 85 184.44 85C160.443 84.9603 136.433 84.9735 112.435 84.9735ZM132.98 58.9595C134.467 66.0218 135.941 73.0179 137.402 79.948C137.519 80.0009 137.532 80.0141 137.557 80.0141C140.337 80.0273 143.117 80.0405 145.897 80.0273C146.052 80.0273 146.311 79.7496 146.337 79.5644C146.931 75.4514 147.5 71.3251 148.069 67.212C148.095 67.0004 148.16 66.802 148.211 66.5904C148.366 66.6962 148.418 66.7756 148.418 66.8549C149 71.0474 149.582 75.2265 150.151 79.4189C150.202 79.7628 150.19 80.067 150.668 80.0538C153.344 80.0405 156.008 80.0538 158.684 80.0273C158.839 80.0273 159.098 79.8157 159.15 79.6438C159.369 78.8635 159.551 78.07 159.719 77.2765C160.701 72.7005 161.671 68.1246 162.641 63.5486C162.964 62.0277 163.274 60.4936 163.597 58.9462C161.115 58.9462 158.697 58.9462 156.279 58.9462C155.698 63.337 155.142 67.6485 154.573 71.9599C154.508 71.9599 154.43 71.9599 154.366 71.9599C153.745 67.6352 153.112 63.3106 152.491 58.9595C149.659 58.9595 146.892 58.9595 144.061 58.9595C143.427 63.3106 142.794 67.6485 142.16 71.9731C142.096 71.9731 142.031 71.9599 141.966 71.9599C141.397 67.6352 140.829 63.3106 140.26 58.9595C137.842 58.9595 135.476 58.9595 132.98 58.9595ZM177.497 58.933C174.988 58.933 172.596 58.933 170.217 58.933C169.364 58.933 169.364 58.933 169.364 59.7794C169.364 63.9718 169.364 68.151 169.351 72.3434C169.351 72.8063 169.312 73.2692 169.196 73.7189C168.989 74.5256 168.407 74.9488 167.644 74.9488C166.933 74.9488 166.364 74.5124 166.157 73.7321C166.041 73.3089 166.002 72.8724 166.002 72.436C165.989 68.2039 165.989 63.9718 165.989 59.7398C165.989 59.4885 165.989 59.2372 165.989 58.933C165.627 58.933 165.369 58.9727 165.11 58.9198C164.451 58.8008 164.231 59.1314 164.115 59.753C163.688 61.9352 163.222 64.1041 162.757 66.273C161.93 70.1348 161.115 73.9966 160.275 77.8584C160.171 78.308 160.249 78.6387 160.662 78.837C161.399 79.1941 162.098 79.657 162.86 79.9083C165.653 80.8076 168.498 80.7944 171.342 80.2257C174.82 79.5247 177.587 77.3161 177.497 72.4757C177.419 68.2436 177.484 64.0115 177.484 59.7794C177.497 59.5414 177.497 59.2769 177.497 58.933ZM51.1752 62.6361C51.2269 62.6361 51.2786 62.6361 51.3433 62.6361C51.3821 62.8345 51.4338 63.0329 51.4596 63.2312C51.6794 64.805 51.9122 66.3656 52.1061 67.9394C52.1578 68.3759 52.3001 68.5478 52.7526 68.5346C53.6964 68.5081 54.6532 68.4949 55.5971 68.5346C56.0626 68.5478 56.2177 68.3626 56.3082 67.913C56.7866 65.6118 57.2909 63.3106 57.7822 61.0094C57.9244 60.3349 58.0537 59.6604 58.1959 58.9198C57.2262 58.9198 56.3599 58.9462 55.5066 58.9066C55.054 58.8933 54.8989 59.0785 54.8601 59.5017C54.7825 60.2423 54.6791 60.9829 54.5757 61.7235C54.4464 62.6758 54.3041 63.628 54.1748 64.5802C54.0068 64.4083 53.9421 64.2496 53.9162 64.0776C53.6964 62.5303 53.4637 60.9962 53.2568 59.4488C53.2181 59.1314 53.1534 58.9066 52.7655 58.9198C51.757 58.933 50.7356 58.9066 49.7271 58.9462C49.5719 58.9462 49.3263 59.1843 49.3004 59.3562C49.1323 60.2688 49.0289 61.1813 48.8996 62.0939C48.7703 62.9535 48.6281 63.8131 48.4988 64.6728C48.1368 62.9799 47.9299 61.3136 47.6842 59.634C47.6454 59.3959 47.4773 58.9727 47.348 58.9727C46.3654 58.9198 45.3828 58.9462 44.413 58.9462C44.4001 59.1049 44.3743 59.1711 44.3872 59.2372C45.0078 62.16 45.6284 65.0828 46.2361 68.0188C46.3137 68.4288 46.5076 68.5478 46.8955 68.5478C47.7747 68.5213 48.6669 68.5081 49.5461 68.5478C50.1408 68.5875 50.3865 68.4023 50.4511 67.7807C50.5804 66.5111 50.7873 65.2547 50.9554 63.9851C51.033 63.5222 51.1105 63.0725 51.1752 62.6361ZM91.3731 80.067C91.3731 76.84 91.3731 73.6924 91.3731 70.4787C90.5585 70.4787 89.8086 70.5051 89.0587 70.4654C88.6062 70.4522 88.4639 70.6109 88.4639 71.0738C88.4898 72.4889 88.4769 73.8908 88.4769 75.3059C88.4769 75.5307 88.451 75.7555 88.4381 75.9804C88.3864 75.9936 88.3217 75.9936 88.27 76.0068C88.2054 75.8217 88.1278 75.6233 88.0631 75.4381C87.5589 73.9701 87.0288 72.5021 86.5504 71.0077C86.4211 70.5977 86.2142 70.4654 85.8134 70.4654C84.7402 70.4919 83.6542 70.4919 82.581 70.4654C82.0768 70.4522 81.9475 70.6374 81.9604 71.1135C81.9863 71.9467 81.9733 72.7931 81.9733 73.6263C81.9733 75.5704 81.9604 77.5013 81.9863 79.4454C81.9863 79.657 82.1673 80.0273 82.2707 80.0273C83.137 80.0802 84.0162 80.0538 84.9601 80.0538C84.9601 78.1229 84.9601 76.2846 84.9601 74.4595C85.1152 74.552 85.1799 74.6711 85.2186 74.7901C85.7488 76.3507 86.2659 77.9113 86.8219 79.4586C86.8995 79.6834 87.1322 80.0273 87.3132 80.0273C88.645 80.0802 89.9896 80.067 91.3731 80.067ZM116.521 62.9932C116.586 62.9932 116.65 62.9799 116.715 62.9799C116.793 63.1783 116.87 63.3767 116.948 63.5751C117.439 65.0299 117.943 66.4846 118.435 67.9394C118.538 68.2568 118.641 68.5346 119.081 68.5213C120.219 68.4949 121.37 68.5081 122.507 68.5213C122.856 68.5213 123.012 68.4023 123.012 68.032C122.999 65.1621 122.999 62.3055 123.012 59.4356C123.012 59.0256 122.844 58.9066 122.469 58.9198C121.887 58.9462 121.305 58.9462 120.723 58.9198C120.245 58.8933 120.077 59.052 120.09 59.5546C120.115 60.9433 120.103 62.3319 120.103 63.7206C120.103 63.9454 120.077 64.1834 120.064 64.4083C119.857 64.2363 119.766 64.0512 119.702 63.8528C119.34 62.8212 118.991 61.7765 118.629 60.7449C118.422 60.163 118.37 59.3562 117.956 59.0785C117.53 58.7743 116.767 58.9462 116.146 58.933C115.319 58.9198 114.491 58.933 113.599 58.933C113.599 59.5943 113.599 60.1365 113.599 60.692C113.599 63.099 113.586 65.4927 113.612 67.8997C113.612 68.1113 113.78 68.4949 113.896 68.4949C114.75 68.5478 115.603 68.5213 116.547 68.5213C116.521 66.6169 116.521 64.805 116.521 62.9932ZM120.09 76.0068C120.025 76.0201 119.96 76.0201 119.909 76.0333C119.831 75.8217 119.74 75.6101 119.676 75.3985C119.172 73.9437 118.654 72.5021 118.176 71.0474C118.034 70.6241 117.84 70.4522 117.4 70.4654C116.366 70.5051 115.332 70.5051 114.297 70.4654C113.728 70.439 113.56 70.6241 113.573 71.2061C113.599 73.9172 113.586 76.6284 113.586 79.3396C113.586 79.5644 113.612 79.8025 113.625 80.0141C114.62 80.0141 115.538 80.0141 116.534 80.0141C116.534 78.1493 116.534 76.3375 116.534 74.5388C116.728 74.6446 116.805 74.7637 116.844 74.8959C117.374 76.43 117.904 77.9642 118.409 79.5115C118.551 79.9347 118.758 80.0934 119.197 80.0802C120.271 80.0405 121.357 80.0538 122.43 80.0802C122.831 80.0934 123.012 79.9744 123.012 79.5247C122.999 76.6813 122.999 73.8379 123.012 70.9945C123.012 70.5845 122.856 70.4522 122.469 70.4654C121.951 70.4919 121.434 70.5183 120.917 70.4654C120.271 70.3993 120.038 70.5977 120.077 71.2986C120.128 72.5683 120.09 73.8511 120.09 75.134C120.09 75.4249 120.09 75.7159 120.09 76.0068ZM109.177 63.7073C109.63 63.1916 110.263 62.7419 110.496 62.1335C111.116 60.4407 110.121 59.0256 108.324 58.9595C106.281 58.8933 104.238 58.933 102.182 58.933C102.105 58.933 102.027 58.9859 101.949 58.9991C101.949 62.16 101.949 65.2944 101.949 68.5081C102.893 68.5081 103.798 68.4684 104.691 68.5213C105.311 68.561 105.531 68.3759 105.492 67.7278C105.44 66.8682 105.479 65.9953 105.479 65.1357C106.682 65.0166 106.811 65.1357 106.979 66.2334C107.07 66.8153 107.134 67.4104 107.263 67.9923C107.302 68.1907 107.509 68.4817 107.651 68.4949C108.712 68.5346 109.785 68.5213 110.884 68.5213C110.742 67.4501 110.612 66.4846 110.496 65.506C110.38 64.5802 110.043 63.8396 109.177 63.7073ZM70.0135 70.4787C70.0006 70.7299 69.9747 70.9019 69.9747 71.0738C69.9747 73.084 69.9618 75.0811 69.9747 77.0913C69.9747 78.4138 70.6859 79.4851 71.9012 79.9347C73.5303 80.5299 75.1983 80.5166 76.8403 79.9612C78.004 79.5644 78.7668 78.6783 78.8185 77.4352C78.909 75.1472 78.8444 72.8592 78.8444 70.4787C77.7971 70.4787 76.7886 70.5051 75.793 70.4654C75.3017 70.4522 75.1724 70.6374 75.1724 71.1135C75.1983 72.8724 75.1853 74.6314 75.1853 76.4036C75.1853 76.6681 75.237 76.9855 75.1077 77.1839C74.9397 77.4484 74.6423 77.7922 74.3966 77.779C74.1639 77.779 73.8407 77.4219 73.7114 77.1574C73.5821 76.9061 73.6338 76.5491 73.6338 76.2449C73.6338 74.5256 73.6467 72.8063 73.6209 71.087C73.6209 70.8887 73.4269 70.5051 73.3235 70.5051C72.2245 70.4654 71.1255 70.4787 70.0135 70.4787ZM105.88 80.3183C108.957 80.3183 110.767 78.4667 110.767 75.3059C110.78 72.1451 108.97 70.2009 105.919 70.2142C102.867 70.2406 101.109 71.8673 101.031 75.253C100.98 78.4535 102.816 80.3183 105.88 80.3183ZM70.1687 65.5853C70.0394 66.8285 70.6858 67.8601 71.8754 68.3097C73.5303 68.9313 75.2112 68.9181 76.8662 68.3494C78.2238 67.8865 78.9478 66.8153 78.9478 65.4134C78.9349 64.1041 78.2755 63.2445 76.8403 62.7683C75.987 62.4774 75.0948 62.2922 74.2415 61.9881C73.9958 61.8955 73.8148 61.5648 73.6079 61.3532C73.8665 61.1549 74.1122 60.811 74.3708 60.811C74.6681 60.7978 74.9914 61.0755 75.2888 61.2474C75.4051 61.3136 75.4827 61.5384 75.5732 61.5516C76.5688 61.5781 77.5773 61.5648 78.5599 61.5648C78.6117 60.401 78.172 59.5414 77.1765 59.1446C75.3793 58.4305 73.5433 58.4172 71.7719 59.224C70.66 59.7265 70.117 60.8375 70.2333 62.0277C70.3497 63.2577 70.9186 63.9322 72.2115 64.3289C73.0907 64.6067 73.9958 64.8315 74.8621 65.1621C75.1207 65.2679 75.5086 65.7176 75.4568 65.8631C75.3405 66.1672 75.0043 66.4979 74.694 66.6037C74.2544 66.7624 73.8665 66.5375 73.6596 66.0482C73.5821 65.8631 73.3752 65.6118 73.233 65.6118C72.2245 65.5721 71.216 65.5853 70.1687 65.5853ZM67.5698 61.34C67.5698 60.4672 67.5698 59.7265 67.5698 58.9859C65.2167 58.9859 62.9023 58.9859 60.562 58.9859C60.562 62.1732 60.562 65.3076 60.562 68.4684C62.9669 68.4684 65.333 68.4684 67.6862 68.4684C67.6862 67.6485 67.6862 66.8814 67.6862 66.0879C66.6001 66.0879 65.5787 66.0747 64.5443 66.0879C64.1694 66.0879 64.0142 65.9821 63.9884 65.5721C63.9625 65.0431 64.1564 64.8712 64.6607 64.8844C65.527 64.9108 66.4062 64.8976 67.2854 64.8976C67.2854 64.038 67.2854 63.2974 67.2854 62.4774C66.5872 62.4774 65.9149 62.5435 65.2554 62.4509C64.8158 62.3848 63.9884 62.9403 64.0142 61.8955C64.0401 60.8639 64.8546 61.4194 65.2942 61.3665C66.0312 61.2607 66.7941 61.34 67.5698 61.34ZM98.6912 62.4774C97.7474 62.4774 96.8423 62.4642 95.9502 62.4774C95.5752 62.4774 95.42 62.3451 95.4071 61.9352C95.3942 61.459 95.5752 61.3136 96.0148 61.3268C96.9974 61.34 97.9801 61.3268 98.9886 61.3268C98.9886 60.4672 98.9886 59.7133 98.9886 58.9727C96.6225 58.9727 94.3081 58.9727 91.9937 58.9727C91.9937 62.1732 91.9937 65.3076 91.9937 68.4684C94.3986 68.4684 96.7647 68.4684 99.1437 68.4684C99.1437 67.6617 99.1437 66.9078 99.1437 66.0614C98.1094 66.0614 97.1009 66.0482 96.0924 66.0614C95.6786 66.0747 95.4071 66.035 95.4071 65.4795C95.4071 64.9505 95.6398 64.8579 96.0794 64.8712C96.9328 64.8844 97.7991 64.8712 98.7041 64.8712C98.6912 64.0644 98.6912 63.2974 98.6912 62.4774ZM81.12 61.4061C81.4174 61.4061 81.663 61.4061 81.9087 61.4061C83.3956 61.4061 83.3956 61.4061 83.3956 62.9535C83.3956 64.567 83.3956 66.1672 83.3956 67.7807C83.3956 68.0055 83.4214 68.2436 83.4473 68.4817C84.6756 68.4817 85.8263 68.4817 87.0417 68.4817C87.0417 68.1907 87.0417 67.9526 87.0417 67.7146C87.0417 65.8631 87.0546 64.0115 87.0288 62.1732C87.0158 61.6045 87.171 61.4061 87.7528 61.4061C89.4207 61.4194 89.4078 61.3929 89.4078 59.6472C89.4078 59.1182 89.2785 58.9198 88.7225 58.9198C86.3823 58.9462 84.0291 58.933 81.6889 58.933C81.5079 58.933 81.3139 58.9595 81.12 58.9859C81.12 59.8059 81.12 60.5597 81.12 61.4061ZM98.1999 80.0273C98.1999 76.8003 98.1999 73.666 98.1999 70.5051C96.9716 70.5051 95.795 70.5051 94.5925 70.5051C94.5925 73.7056 94.5925 76.8532 94.5925 80.0273C95.8209 80.0273 96.9974 80.0273 98.1999 80.0273ZM126.373 58.9859C126.503 59.6207 126.632 60.2026 126.748 60.7713C128.002 66.8814 129.257 72.9915 130.511 79.1015C130.718 80.1331 130.756 80.1596 131.83 79.948C131.804 79.7892 131.791 79.6173 131.765 79.4454C130.407 72.9121 129.05 66.3788 127.692 59.8588C127.472 58.8404 127.472 58.8404 126.373 58.9859ZM135.191 80.0273C135.178 79.8951 135.178 79.8289 135.165 79.7628C133.782 73.0973 132.398 66.4317 131.015 59.753C130.821 58.814 130.718 58.7611 129.709 59.052C131.17 66.035 132.631 73.0311 134.092 80.0273C134.506 80.0273 134.829 80.0273 135.191 80.0273ZM181.195 59.3033C181.388 59.7265 181.518 60.0043 181.699 60.3878C181.867 60.0043 181.983 59.7265 182.164 59.343C182.203 59.7265 182.242 59.9778 182.268 60.2423C182.306 60.2423 182.345 60.2291 182.384 60.2291C182.384 59.8191 182.384 59.3959 182.384 58.9859C182.319 58.9595 182.255 58.9198 182.19 58.8933C182.035 59.1711 181.867 59.4488 181.738 59.6869C181.518 59.4356 181.324 59.1975 181.117 58.9595C181.052 59.3033 180.988 59.634 180.936 59.9778C180.923 60.0572 180.988 60.1497 181.091 60.4275C181.13 59.9778 181.156 59.7265 181.195 59.3033ZM179.863 59.2108C180.173 59.2108 180.393 59.2108 180.6 59.2108C180.6 59.1446 180.6 59.0917 180.6 59.0256C180.341 59.0256 179.953 58.9066 179.837 59.0388C179.203 59.7398 180.458 59.5282 180.328 60.1101C180.121 60.0968 179.915 60.0704 179.708 60.0572C179.915 60.2423 180.134 60.3084 180.341 60.2688C180.458 60.2423 180.639 59.9381 180.613 59.8985C180.432 59.6869 180.212 59.5149 179.863 59.2108Z" fill="#717070"/>
</svg>
