<svg width="224" height="138" viewBox="0 0 224 138" fill="none" xmlns="http://www.w3.org/2000/svg">
<path fill-rule="evenodd" clip-rule="evenodd" d="M86.5176 33.5818C83.049 35.1036 82.5083 36.3025 74.0437 61.2302C69.6402 74.1981 66.0409 84.9819 66.0453 85.1941C66.0503 85.4062 69.4084 85.518 73.5089 85.4425L80.9637 85.3054L88.5639 62.6994C94.4479 45.1988 96.0927 39.7565 95.8475 38.6028C94.9107 34.1939 90.5141 31.828 86.5176 33.5818ZM48.4058 40.9628C47.6332 41.9172 33 85.1469 33 86.4724C33.0015 90.3746 36.955 93.4162 41.1937 92.7758C43.4167 92.4399 45.907 90.7378 46.8952 88.8781C47.6529 87.4527 63.0937 41.8084 63.0937 40.9946C63.0937 40.0774 49.1458 40.0476 48.4058 40.9628ZM60.8259 53.1308L57.3252 62.9259L60.5185 72.6251C62.2753 77.9597 63.8633 82.4938 64.0483 82.701C64.2328 82.9076 65.8574 78.5688 67.659 73.0589L70.9338 63.0402L67.731 53.1815C65.9689 47.759 64.4825 43.3257 64.4272 43.3292C64.3724 43.3322 62.7518 47.7431 60.8259 53.1308ZM175.403 67.0859C173.62 69.0708 175.132 72.6361 177.757 72.6361C179.051 72.6361 181 70.5722 181 69.2019C181 68.7528 180.654 67.8888 180.232 67.2817C179.264 65.8895 176.576 65.7802 175.403 67.0859ZM179.796 67.8918C180.778 69.4017 180.343 71.0154 178.757 71.7433C176.218 72.9083 173.876 69.4479 175.855 67.4546C177.021 66.281 178.883 66.4877 179.796 67.8918ZM176.617 69.5308C176.649 70.5558 176.776 71.003 176.9 70.5245C177.18 69.4479 177.52 69.4275 178.257 70.443C178.732 71.0969 178.837 70.9279 178.879 69.4494C178.923 67.8858 178.784 67.6677 177.745 67.6677C176.695 67.6677 176.566 67.8794 176.617 69.5308ZM178.287 68.6614C178.119 68.9346 177.773 69.1582 177.518 69.1582C177.262 69.1582 177.053 68.9346 177.053 68.6614C177.053 68.3881 177.4 68.1645 177.822 68.1645C178.245 68.1645 178.454 68.3881 178.287 68.6614ZM108.727 72.5129C107.919 72.6475 107.098 74.5608 104.188 83.0905C100.707 93.296 100.659 93.5032 101.784 93.5032C102.835 93.5032 103.232 92.6267 106.512 83.0537C108.482 77.3068 110.008 72.5466 109.904 72.4761C109.799 72.4055 109.27 72.4224 108.727 72.5129ZM89.4958 73.5055C88.7233 75.4606 82.827 92.8891 82.827 93.2175C82.827 93.4127 83.304 93.5007 83.8872 93.4137C84.7875 93.2786 85.3642 92.0027 87.7105 84.9511C89.2304 80.3837 90.6404 76.6391 90.8436 76.6291C91.0469 76.6192 91.2136 77.2745 91.2136 78.0864C91.2136 78.8977 91.5511 81.9721 91.963 84.9178C93.2654 94.2241 93.0261 93.5037 94.8125 93.4977L96.3936 93.4927L99.9486 83.0333L103.504 72.5745L102.207 72.7295C100.994 72.8745 100.726 73.436 98.0927 81.3307C96.5431 85.9761 95.1549 89.4415 95.0078 89.0316C94.8608 88.6218 94.2407 84.7648 93.6295 80.4612L92.5185 72.6361H91.1786C90.3626 72.6361 89.705 72.9759 89.4958 73.5055ZM111.042 82.7884C109.09 88.3718 107.494 93.0669 107.494 93.222C107.494 93.7054 116.736 93.529 118.064 93.0202C123.202 91.0528 127.735 81.7063 126.249 76.1452C125.458 73.19 124.326 72.6361 119.072 72.6361H114.59L111.042 82.7884ZM129.488 82.6995C127.611 88.2317 125.978 93.0376 125.858 93.379C125.692 93.8544 127.088 94 131.808 94C138.081 94 138.573 93.8524 138.573 91.9719C138.573 91.721 136.369 91.5158 133.674 91.5158H128.774L130.019 87.7896L131.263 84.0633H135.905C138.458 84.0633 140.547 83.8581 140.547 83.6072C140.547 83.3563 140.681 82.7973 140.846 82.3651C141.106 81.6839 140.547 81.5791 136.653 81.5791C134.182 81.5791 132.164 81.5235 132.169 81.4549C132.173 81.3863 132.703 79.8774 133.346 78.1013L134.515 74.8718L139.204 74.7302C143.387 74.604 143.922 74.4833 144.148 73.6123C144.389 72.6828 144.125 72.6361 138.65 72.6385L132.9 72.641L129.488 82.6995ZM145.233 82.6647C143.334 88.1801 141.706 92.8752 141.616 93.0982C141.525 93.3208 142.007 93.5032 142.685 93.5032C143.805 93.5032 144.063 93.0679 145.48 88.7832L147.042 84.0633L149.837 84.0707C153.892 84.0822 154.083 84.3043 153.939 88.8364C153.872 90.9529 153.704 92.8687 153.566 93.0938C153.428 93.3188 153.854 93.5032 154.513 93.5032C155.514 93.5032 155.761 93.1971 156.017 91.64C156.521 88.5691 156.373 84.3023 155.741 83.6658C155.281 83.2023 155.315 83.0696 155.896 83.0696C156.88 83.0696 159.095 80.6987 159.755 78.9384C160.585 76.726 160.375 75.1714 159.069 73.8558C157.957 72.7359 157.484 72.6361 153.272 72.6361L148.687 72.6366L145.233 82.6647ZM168.986 75.9897C167.809 77.8345 164.969 82.2498 162.674 85.8022C160.38 89.3546 158.335 92.5408 158.129 92.8821C157.868 93.3154 158.137 93.5032 159.016 93.5032C160.023 93.5032 160.65 92.902 162.127 90.5221L163.977 87.5411H167.555H171.133V90.5221C171.133 93.1872 171.239 93.5032 172.135 93.5032C172.687 93.5032 173.226 93.2239 173.333 92.8821C173.441 92.5408 173.623 87.8452 173.738 82.4486L173.946 72.6361H172.536C171.337 72.6361 170.809 73.1349 168.986 75.9897ZM123.171 75.7915C124.363 76.9913 124.136 80.2034 122.589 84.0389C120.173 90.0268 117.864 91.7821 112.87 91.4284L110.6 91.2674L113.575 82.8922L116.55 74.5166L119.437 74.7272C121.282 74.8614 122.629 75.2454 123.171 75.7915ZM157.221 75.2196C158.502 76.5094 157.339 80.5054 155.374 81.5642C154.524 82.0228 147.947 82.3244 147.947 81.9055C147.947 81.753 149.581 76.8289 150.156 75.2445C150.455 74.4247 156.411 74.4038 157.221 75.2196ZM171.224 84.6674C170.98 84.9129 169.656 85.045 168.281 84.9611L165.782 84.8085L168.581 80.2938L171.38 75.7795L171.524 80.0002C171.603 82.3219 171.468 84.422 171.224 84.6674Z" fill="#717070"/>
</svg>
