<svg width="224" height="138" viewBox="0 0 224 138" fill="none" xmlns="http://www.w3.org/2000/svg">
<path fill-rule="evenodd" clip-rule="evenodd" d="M101.211 38.0355C97.3013 38.1907 93.3603 38.8494 89.8065 39.9414C89.0433 40.176 87.7559 40.6198 87.5798 40.7091C87.3866 40.8071 87.26 41.0398 87.26 41.2968C87.26 41.6174 87.3379 41.7007 87.9341 42.0161C89.0131 42.5871 90.5348 43.5638 91.3829 44.2298C92.3205 44.9661 93.6034 46.1273 94.4186 46.9776C95.4568 48.0604 96.8528 49.8544 97.6836 51.1734C99.3653 53.8434 100.614 56.9465 101.357 60.299C101.857 62.5574 102.11 64.7173 102.164 67.1871C102.19 68.4113 102.193 68.4245 102.492 68.5572C102.796 68.6927 103.222 68.584 103.34 68.3408C103.375 68.2679 103.396 67.9549 103.416 67.233C103.461 65.5502 103.615 63.6147 103.799 62.4395C103.864 62.0211 104.05 61.0985 104.23 60.2989C105.041 56.6912 106.354 53.4965 108.116 50.841C108.901 49.6587 110.029 48.2178 110.968 47.1993C112.922 45.0791 115.461 43.1162 117.6 42.0706C117.83 41.9582 118.057 41.8312 118.104 41.7884C118.229 41.6745 118.328 41.4589 118.327 41.3005C118.327 41.1225 118.183 40.8103 118.065 40.7327C117.896 40.6211 115.841 39.9569 114.599 39.6121C110.104 38.3644 105.772 37.8544 101.211 38.0355ZM32 72.4106V73.7462H34.6557H37.3114V81.0461V88.3461H38.8211H40.3308V81.0461V73.7462H42.857C44.2465 73.7462 45.392 73.732 45.4026 73.7146C45.4133 73.6973 45.5786 73.1168 45.77 72.4248C45.9614 71.7327 46.125 71.146 46.1336 71.1208C46.146 71.0843 44.7184 71.0751 39.0746 71.0751H32V72.4106ZM50.4079 79.7087V88.3461H51.9358H53.4637V85.0163V81.6865H54.479H55.4944L55.6765 81.8313C56.2676 82.3012 57.3127 83.8271 59.7188 87.7332L60.0963 88.3461H61.8549C62.8221 88.3461 63.6135 88.3385 63.6135 88.3292C63.6135 88.3016 61.6914 85.3001 60.9374 84.1502C59.726 82.3029 58.9896 81.2841 58.511 80.7933C58.3558 80.6342 58.2331 80.5013 58.2382 80.4982C58.2433 80.495 58.3763 80.437 58.5337 80.3692C60.0919 79.6978 61.1682 78.3829 61.449 76.8078C61.5339 76.3317 61.5083 75.3125 61.3998 74.8439C61.2016 73.9884 60.8495 73.3186 60.2886 72.7299C59.6479 72.0574 58.8678 71.6227 57.8105 71.3492C56.8432 71.0989 56.8642 71.1002 53.4728 71.085L50.4079 71.0713V79.7087ZM68.6693 79.1891C66.842 83.6519 65.2442 87.5543 65.1186 87.8612L64.8904 88.4193L66.5166 88.4186L68.1427 88.418L68.6845 87.019C68.9825 86.2496 69.3403 85.3277 69.4796 84.9704L69.7328 84.3206L72.916 84.33L76.0992 84.3393L76.9425 86.3702L77.7859 88.401L79.4165 88.4105C80.7169 88.4181 81.0434 88.4107 81.0283 88.3739C80.8226 87.8702 74.125 71.5263 74.0481 71.3403L73.9384 71.0751H72.9651H71.9917L68.6693 79.1891ZM85.9139 79.7106V88.3461H87.4418H88.9698V84.7236V81.101H92.153H95.3361V79.7837V78.4665H92.153H88.9698V76.1063V73.7462H92.1893C93.9601 73.7462 95.4089 73.7401 95.4089 73.7326C95.4089 73.7188 96.2561 71.2574 96.3016 71.1391C96.3249 71.0783 96.0633 71.0751 91.12 71.0751H85.9139V79.7106ZM100.393 79.7106V88.3461H101.903H103.412V79.7106V71.0751H101.903H100.393V79.7106ZM117.928 71.1145C113.967 71.5105 111.094 73.7741 110.017 77.3459C109.73 78.299 109.616 79.1547 109.619 80.3326C109.622 81.3078 109.686 81.8944 109.875 82.6744C110.466 85.1108 111.96 87.0144 114.121 88.0851C115.604 88.82 117.222 89.1029 119.164 88.9671C120.968 88.841 122.499 88.4642 123.848 87.8147L124.33 87.5826V83.8112V80.0399H122.821H121.311V83.0596V86.0793L121.216 86.1155C121.077 86.1686 120.292 86.3236 119.892 86.3767C119.702 86.402 119.194 86.4228 118.764 86.4231C118.096 86.4234 117.922 86.4114 117.573 86.3408C116.999 86.2249 116.561 86.075 116.054 85.8208C114.299 84.9404 113.154 83.2626 112.852 81.1274C112.781 80.6228 112.782 79.5337 112.855 79.0099C113.063 77.5124 113.651 76.3104 114.645 75.3515C115.6 74.4295 116.853 73.8849 118.419 73.7102C118.887 73.6578 119.846 73.6658 120.293 73.7258C121.306 73.8614 122.455 74.2284 123.47 74.7409C123.627 74.8203 123.761 74.88 123.766 74.8737C123.772 74.8674 123.789 74.2179 123.803 73.4305L123.83 71.9987L123.525 71.8805C122.611 71.5255 121.749 71.3051 120.729 71.1651C120.225 71.096 118.436 71.0637 117.928 71.1145ZM129.324 77.1949C129.336 82.7204 129.343 83.3521 129.398 83.699C129.539 84.5772 129.779 85.3171 130.117 85.9095C130.384 86.3775 130.554 86.5994 130.948 86.9937C131.84 87.8862 132.981 88.3833 134.698 88.6272C135.344 88.7189 137.065 88.7177 137.736 88.6252C138.814 88.4766 139.628 88.2453 140.392 87.871C141.145 87.5018 141.714 87.0643 142.2 86.4799C142.974 85.5499 143.4 84.4558 143.538 83.0456C143.561 82.8062 143.575 80.5332 143.575 76.8709V71.0751H142.065H140.555L140.555 76.8656C140.555 80.601 140.542 82.799 140.517 83.0587C140.38 84.5147 139.702 85.3953 138.381 85.8324C137.824 86.0164 137.401 86.0817 136.619 86.1041C135.554 86.1345 134.87 86.0164 134.177 85.6821C133.299 85.2588 132.754 84.5889 132.488 83.6075L132.388 83.2416L132.378 77.1583L132.368 71.0751H130.84H129.311L129.324 77.1949ZM149.068 79.7085V88.3461H150.578H152.088V85.0163V81.6865H153.13H154.172L154.525 82.0433C155.187 82.7108 155.845 83.6836 158.173 87.4313L158.729 88.3278L160.5 88.3373L162.271 88.3468L161.66 87.3859C158.964 83.1469 157.745 81.3706 157.086 80.7181C156.973 80.6056 156.886 80.5084 156.894 80.5021C156.902 80.4959 157.103 80.3972 157.342 80.2827C157.58 80.1682 157.916 79.9804 158.087 79.8652C158.49 79.5948 159.15 78.9356 159.396 78.5579C160.037 77.5737 160.271 76.4916 160.11 75.2688C159.839 73.223 158.469 71.806 156.271 71.2982C155.406 71.0985 155.42 71.0991 152.133 71.0845L149.068 71.0709V79.7085ZM171.898 71.194C171.101 73.139 164.89 88.3106 164.873 88.3556C164.85 88.4166 164.935 88.4195 166.475 88.4105L168.101 88.401L168.891 86.3702L169.682 84.3393L172.849 84.33C175.355 84.3226 176.024 84.3302 176.052 84.3666C176.073 84.3919 176.462 85.3141 176.918 86.4159L177.748 88.4193H179.374H181L177.448 79.7472L173.897 71.0752L172.922 71.0751L171.947 71.0751L171.898 71.194ZM56.3922 73.8498C57.6953 74.2102 58.3972 75.1946 58.3268 76.5629C58.3012 77.0602 58.2385 77.3188 58.0472 77.7163C57.658 78.525 56.9218 79.0122 55.9193 79.1245C55.7392 79.1446 55.113 79.1612 54.5278 79.1614L53.4637 79.1617V76.4511V73.7406L54.7825 73.755C56.0031 73.7683 56.1228 73.7753 56.3922 73.8498ZM154.847 73.8182C155.865 74.0269 156.538 74.5863 156.834 75.4696C156.922 75.7329 156.939 75.8505 156.953 76.2893C156.965 76.6611 156.954 76.8731 156.914 77.0625C156.7 78.0763 156.009 78.7948 154.997 79.0553C154.717 79.1274 154.57 79.1362 153.388 79.152L152.088 79.1693V76.4577V73.7462H153.292C154.346 73.7462 154.539 73.7552 154.847 73.8182ZM74.3389 79.6269C74.7774 80.7985 75.1274 81.7659 75.1167 81.7766C75.106 81.7874 74.1095 81.7963 72.9023 81.7963C71.1164 81.7963 70.7074 81.7873 70.7074 81.7483C70.7074 81.7219 71.0445 80.7792 71.4565 79.6534C72.587 76.5641 72.5926 76.5485 72.7287 76.0924C72.7985 75.8586 72.864 75.6437 72.8742 75.6149C72.8845 75.5861 73.0389 75.9978 73.2173 76.5297C73.3957 77.0616 73.9004 78.4553 74.3389 79.6269ZM172.968 75.9234C173.094 76.3627 173.607 77.7919 174.384 79.8656C174.766 80.8867 175.079 81.7388 175.079 81.7592C175.079 81.7838 174.334 81.7963 172.86 81.7963C171.64 81.7963 170.641 81.7895 170.641 81.7813C170.641 81.7731 170.962 80.888 171.354 79.8145C172.519 76.6232 172.553 76.528 172.698 76.0418C172.775 75.785 172.848 75.5874 172.861 75.6027C172.874 75.6181 172.922 75.7624 172.968 75.9234Z" fill="#717070"/>
</svg>
