<svg width="224" height="138" viewBox="0 0 224 138" fill="none" xmlns="http://www.w3.org/2000/svg">
<path fill-rule="evenodd" clip-rule="evenodd" d="M85.4151 30.088C84.152 30.4396 83.5953 31.4226 84.1847 32.2609C84.3416 32.4842 84.7763 32.7906 85.1045 32.9094L85.3497 32.9981L85.3487 35.1826C85.3482 36.384 85.2898 44.6393 85.219 53.5277C85.1481 62.4161 85.0897 70.38 85.0892 71.2251L85.0882 72.7619H85.5132H85.9381L85.9371 71.5226C85.9366 70.841 85.8782 64.6766 85.8074 57.824C85.7366 50.9714 85.6782 44.6286 85.6777 43.7288L85.6766 42.0929H85.9054C86.1114 42.0929 86.1343 42.1111 86.1347 42.2747C86.135 42.3747 86.2672 49.119 86.4286 57.2622C86.59 65.4053 86.7222 72.224 86.7224 72.4149L86.7227 72.7619H87.7688C88.7456 72.7619 88.8148 72.7538 88.8148 72.6387C88.8148 72.3792 87.382 34.5605 87.351 34.0031C87.3331 33.6797 87.3431 33.4418 87.3733 33.4743C87.578 33.6948 88.5795 37.0788 89.0339 39.0855C90.6207 46.0926 91.5286 57.1362 91.0363 63.4422C90.7967 66.5102 90.389 70.5153 90.155 72.0982C90.1042 72.4421 90.0687 72.7287 90.0762 72.7352C90.0837 72.7417 90.2413 72.7676 90.4266 72.7928C90.826 72.8472 90.776 72.9717 90.9694 71.4399C91.2766 69.0082 91.608 65.5768 91.8011 62.8308L91.9161 61.1949L92.7682 61.1953C95.2511 61.1964 99.1496 61.4891 101.709 61.8667L102.672 62.0087L102.774 62.3192C102.983 62.9572 103.53 63.6467 104.221 64.1454C105.332 64.9467 107.274 65.6126 109.017 65.7899C111.75 66.0677 114.309 67.083 115.91 68.5242C116.865 69.3835 118.539 70.3657 119.687 70.7394C120.255 70.9245 120.792 71.0052 122.158 71.1111C124.355 71.2811 126.961 71.9133 128.32 72.6059C128.491 72.6929 128.631 72.7356 128.631 72.7008C128.631 72.666 128.599 72.6173 128.559 72.5927C128.423 72.5074 127.7 71.3378 127.357 70.6468C126.141 68.1958 125.245 64.8184 124.676 60.534C124.431 58.687 123.921 54.3524 123.76 52.7345C123.703 52.1711 123.598 51.4727 123.525 51.1825C123.164 49.7472 122.066 48.5529 120.753 48.1674C119.403 47.7713 117.432 46.9996 116.317 46.4309C115.776 46.1549 114.469 45.306 112.221 43.7699C110.405 42.5292 108.733 41.4196 108.505 41.3042C107.881 40.9877 106.84 40.6566 105.97 40.4984C105.354 40.3861 104.877 40.3527 103.673 40.3373C101.986 40.3159 101.756 40.2759 100.947 39.8645C100.384 39.5785 100.059 39.3563 99.4495 38.8396C98.6748 38.1831 97.5908 37.7054 96.1185 37.3716C94.437 36.9903 93.8933 36.744 93.0161 35.9658C91.5561 34.6708 89.7974 33.6836 88.0796 33.1951L87.4424 33.0138L87.7848 32.8244C88.2143 32.5871 88.4629 32.3504 88.6319 32.0181C88.9983 31.2975 88.4474 30.4584 87.3915 30.1287C86.9022 29.9759 85.8926 29.9551 85.4151 30.088ZM93.8975 39.3226C96.0161 39.8702 97.4621 40.6645 98.874 42.0565C100.456 43.6157 103.352 46.9167 103.239 47.031C103.191 47.08 101.584 46.5002 101.14 46.2735C100.592 45.9933 100.126 45.8605 99.6941 45.8605C99.4682 45.8605 99.2669 45.8872 99.2469 45.9199C99.2269 45.9526 99.3122 46.4062 99.4364 46.9279C99.6999 48.0347 99.9503 49.4779 100.066 50.5533C100.177 51.5917 100.176 53.418 100.064 54.2008L99.9726 54.8409L100.142 55.0659C100.657 55.7486 102.567 56.2966 105.604 56.6328C107.539 56.847 108.714 57.1381 109.728 57.6547C110.198 57.8939 112.004 59.116 113.038 59.8947C114.14 60.7245 115.626 61.346 116.73 61.4387L117.222 61.4801L116.937 61.1658C116.368 60.5385 115.893 59.1735 115.66 57.4935C115.545 56.6625 115.426 54.9429 115.423 54.0565C115.422 53.6652 115.387 53.4215 115.308 53.2539C115.167 52.9515 114.665 52.5142 114.188 52.2775C113.987 52.1777 113.543 51.9235 113.201 51.7124C111.567 50.7025 107.783 48.4763 107.187 48.174C106.288 47.7181 105.278 47.3807 104.811 47.3807C104.611 47.3807 104.298 47.3485 104.117 47.3091C103.79 47.2383 103.779 47.2275 103.057 46.2681C101.636 44.3795 100.199 42.6452 99.3791 41.8305C99.1423 41.5952 98.9487 41.3796 98.9487 41.3513C98.9487 41.2694 99.4639 41.2935 99.962 41.3987C101.426 41.7079 103.951 42.9676 106.173 44.4982C108.961 46.4181 112.112 48.5121 112.744 48.8655C113.3 49.1765 108.87 45.8207 107.501 44.8945C106.859 44.4601 106.809 44.4113 106.89 44.2991C106.952 44.2135 107.055 44.179 107.236 44.1837C107.871 44.2006 108.635 44.6208 110.536 45.9979C113.143 47.8869 114.741 48.7767 116.797 49.4845C118.893 50.2058 119.996 50.646 120.327 50.894C120.574 51.0783 120.87 51.5404 121.006 51.9549C121.287 52.8081 121.911 57.0078 121.995 58.6172C122.077 60.1821 122.603 63.6857 123.042 65.5941C123.288 66.6606 123.601 67.6855 123.805 68.0919C123.875 68.2318 123.919 68.3598 123.903 68.3764C123.886 68.393 123.57 68.3001 123.201 68.17C122.372 67.8786 121.554 67.6679 120.36 67.4389C118.258 67.0355 116.238 66.2632 114.149 65.0643C113.244 64.5447 111.671 63.4864 111.551 63.3162C111.506 63.2525 111.028 62.8423 110.488 62.4047C109.949 61.9672 109.297 61.4119 109.04 61.1707C108.576 60.735 108.429 60.651 108.429 60.8212C108.429 60.9766 108.918 61.6822 109.351 62.1513C109.696 62.5251 109.74 62.5975 109.606 62.5649C109.516 62.5433 108.883 62.5058 108.2 62.4816C106.852 62.4341 106.285 62.3467 105.408 62.0518C103.584 61.4385 102.025 60.2062 101.211 58.7332C100.672 57.7559 99.516 54.5642 99.1772 53.1146C99.0773 52.6875 98.9757 52.338 98.9513 52.338C98.874 52.338 99.2516 54.3207 99.4926 55.1801C99.6199 55.6345 99.8461 56.3484 99.995 56.7664C100.144 57.1845 100.28 57.5732 100.298 57.6301C100.327 57.7218 100.272 57.7263 99.8195 57.6692C99.5383 57.6338 98.4317 57.602 97.3605 57.5987C95.4669 57.5929 95.412 57.589 95.3879 57.4605C95.3743 57.3878 95.2701 56.3467 95.1564 55.1471C94.7957 51.3412 94.2621 47.0254 93.8202 44.3402C93.7035 43.6313 93.6157 43.0414 93.6251 43.0293C93.6344 43.0172 93.8137 43.1176 94.0234 43.2524C94.5773 43.6085 95.3978 44.4788 95.8763 45.2177C96.1515 45.6425 96.3332 45.8605 96.4121 45.8605C96.5186 45.8605 96.5093 45.8159 96.3265 45.4474C95.7938 44.3741 94.9817 43.2964 93.9903 42.347L93.3454 41.7294L93.1653 40.9441C93.0661 40.5122 92.901 39.9075 92.7983 39.6003L92.6115 39.0416L92.8871 39.0872C93.0386 39.1122 93.4933 39.2181 93.8975 39.3226ZM95.445 46.1083C95.4654 46.2083 95.6458 47.3757 95.8458 48.7026C96.0457 50.0295 96.2246 51.1673 96.2431 51.2308C96.2705 51.3245 96.3522 51.3465 96.6732 51.3465H97.0695L97.0309 51.0325C97.0097 50.8599 96.9732 50.537 96.9497 50.3149L96.9071 49.9112L97.3673 49.8779C97.9723 49.8341 98.3351 49.6257 98.5705 49.1868C98.7972 48.764 98.8431 48.4739 98.7574 48.0053C98.6046 47.1693 98.0959 46.3992 97.4973 46.0976C97.1829 45.9393 97.093 45.9266 96.2827 45.9266H95.4078L95.445 46.1083ZM97.3464 46.9838C97.7215 47.2182 97.9285 47.6007 97.9571 48.112C97.9801 48.5241 97.9681 48.5763 97.8147 48.7314C97.6674 48.8804 97.5926 48.9009 97.1995 48.9009H96.752L96.6338 48.0582C96.5688 47.5946 96.5004 47.1337 96.4818 47.0337C96.4483 46.8541 96.452 46.8519 96.7916 46.8519C97.0209 46.8519 97.2055 46.8958 97.3464 46.9838ZM103.718 48.6681L104.008 48.8174L103.706 48.9524C103.425 49.0782 103.401 49.1082 103.359 49.3916C103.334 49.5588 103.29 49.7107 103.261 49.7289C103.232 49.7472 103.141 49.6427 103.06 49.4967C102.9 49.2081 102.895 49.2062 102.514 49.2955C102.371 49.3289 102.244 49.3458 102.231 49.3329C102.218 49.3201 102.289 49.1862 102.387 49.0354L102.567 48.7611L102.426 48.4675C102.266 48.1344 102.296 48.1146 102.732 48.2698L103 48.3657L103.181 48.1253L103.362 47.8849L103.394 48.2018C103.425 48.4987 103.446 48.5282 103.718 48.6681ZM109.802 50.4488C109.802 50.7829 109.856 50.8756 110.139 51.0214C110.28 51.0939 110.38 51.1778 110.361 51.2078C110.343 51.2378 110.195 51.3 110.032 51.346C109.741 51.4283 109.736 51.4345 109.736 51.7076C109.736 52.0939 109.675 52.1179 109.49 51.8041L109.33 51.5343L109.01 51.5788C108.659 51.6277 108.63 51.5929 108.821 51.3465C108.981 51.1396 108.981 51.0965 108.823 50.7241C108.753 50.5574 108.708 50.4211 108.724 50.4211C108.74 50.4211 108.874 50.4701 109.021 50.5297L109.29 50.6384L109.496 50.4306C109.609 50.3164 109.724 50.2229 109.751 50.2229C109.779 50.2229 109.802 50.3245 109.802 50.4488ZM102.612 51.0957C102.79 51.17 102.921 51.2528 102.905 51.2796C102.888 51.3064 102.745 51.3651 102.587 51.41C102.303 51.4902 102.297 51.4973 102.253 51.8322L102.208 52.1727L102.079 52.0134C102.009 51.9258 101.927 51.8109 101.898 51.7582C101.854 51.6794 101.787 51.6745 101.525 51.731C101.35 51.7689 101.196 51.7899 101.184 51.7777C101.172 51.7656 101.241 51.6288 101.338 51.4739L101.514 51.1922L101.375 50.9041C101.299 50.7456 101.237 50.6055 101.237 50.5928C101.237 50.5801 101.369 50.6178 101.531 50.6765L101.824 50.7832L102.037 50.5672L102.25 50.3512L102.27 50.6559C102.29 50.9526 102.299 50.9639 102.612 51.0957ZM105.413 51.9707L105.699 52.1178L105.394 52.2042C105.05 52.3015 104.965 52.4158 104.961 52.7798L104.959 53.032L104.759 52.7841C104.577 52.5589 104.529 52.5362 104.238 52.5362C104.062 52.5362 103.919 52.514 103.92 52.4867C103.921 52.4594 103.993 52.35 104.079 52.2436L104.235 52.05L104.109 51.8001C104.04 51.6626 103.983 51.5219 103.983 51.4874C103.983 51.4529 104.127 51.4713 104.303 51.5282L104.623 51.6316L104.842 51.3781L105.062 51.1246L105.094 51.4741C105.126 51.8091 105.139 51.8297 105.413 51.9707ZM114.994 53.412C115.051 53.5524 115.094 54.0966 115.119 54.9818C115.191 57.5143 115.53 59.3724 116.148 60.6097C116.258 60.8298 116.339 61.0189 116.328 61.0297C116.316 61.0405 116.057 60.9764 115.751 60.8871C114.909 60.6411 113.972 60.1425 112.97 59.4062C111.52 58.3407 110.062 57.3831 109.563 57.1685C108.565 56.7389 107.488 56.4892 105.818 56.2996C104.267 56.1235 103.248 55.9518 102.326 55.7115C101.493 55.4944 100.688 55.1509 100.495 54.9301C100.376 54.7935 100.377 54.7916 100.593 54.7582C100.714 54.7396 100.989 54.7069 101.204 54.6855C101.814 54.6252 102.785 54.4099 103.455 54.1868C104.253 53.9211 105.181 53.7019 106.414 53.488C107.215 53.3491 107.561 53.32 108.147 53.3426L108.879 53.3707L109.783 54.2589C110.715 55.1733 111.292 55.6944 111.861 56.1361C112.173 56.3778 112.168 56.3697 111.763 55.9656C111.529 55.7322 110.845 55.0633 110.242 54.4791L109.145 53.4169L111.484 53.3661C113.455 53.3233 114.144 53.2906 114.823 53.2076C114.87 53.2019 114.947 53.2939 114.994 53.412ZM117.956 55.9779C117.191 56.1644 116.73 56.7676 116.636 57.7069C116.527 58.7841 117.331 60.0787 118.35 60.4708C119.093 60.7564 120.092 60.6176 120.569 60.1626L120.818 59.9248L120.368 59.6951C120.092 59.5543 119.901 59.4915 119.876 59.5329C119.814 59.6349 119.496 59.7408 119.253 59.7408C118.599 59.7408 118.088 59.1701 117.906 58.2355C117.808 57.7278 117.853 57.2696 118.024 57.0398C118.132 56.8955 118.205 56.8662 118.449 56.8692C118.84 56.8741 119.054 57.0289 119.262 57.4581C119.431 57.8051 119.444 57.8161 119.846 57.9179C120.423 58.0645 120.417 58.0665 120.366 57.7442C120.252 57.0211 119.848 56.4992 119.16 56.1839C118.657 55.9534 118.304 55.893 117.956 55.9779ZM84.8921 84.6296C84.219 84.7754 83.3239 85.2594 82.7955 85.7633C81.7282 86.7812 81.1272 88.1676 80.9581 90.002C80.7286 92.4904 81.5325 94.7762 83.0563 95.968C83.9293 96.6509 84.8918 96.9722 86.0689 96.974C87.4392 96.976 88.3059 96.6247 89.2173 95.6978C89.6873 95.2198 89.8338 95.0169 90.0821 94.501C90.3902 93.8606 90.5973 93.1692 90.6791 92.5075L90.7259 92.1283H89.6081C88.5015 92.1283 88.4902 92.1297 88.4602 92.277C88.1735 93.6897 87.8349 94.2453 87.0417 94.6052C86.6704 94.7737 86.5947 94.7844 85.9795 94.7569C85.1858 94.7212 84.8482 94.591 84.3646 94.1337C83.956 93.7473 83.6388 93.1832 83.4413 92.4918C83.3075 92.0232 83.2907 91.8275 83.2945 90.7733C83.298 89.7709 83.3207 89.5033 83.4382 89.0741C83.7365 87.9845 84.2052 87.3259 84.944 86.9582C85.3527 86.7548 85.4223 86.7414 86.0675 86.7414C86.6863 86.7414 86.7885 86.759 87.0853 86.9174C87.6814 87.2355 88.1286 87.7915 88.3261 88.4599L88.4042 88.7243L89.5281 88.7424L90.652 88.7605L90.6096 88.5111C90.5079 87.9129 90.3575 87.4308 90.109 86.9066C89.7363 86.1202 89.0135 85.3884 88.2264 85.0006C87.9208 84.8499 87.4953 84.6818 87.281 84.6269C86.7906 84.5014 85.4779 84.5028 84.8921 84.6296ZM94.7794 84.6569C92.7428 85.2111 91.3265 87.0504 90.9675 89.6071C90.8444 90.4833 90.9212 92.015 91.1283 92.8176C91.629 94.7579 92.8242 96.1672 94.4398 96.7228C96.2393 97.3415 98.2054 96.9062 99.5115 95.5999C100.687 94.4237 101.262 92.8639 101.264 90.8394C101.266 89.4001 101.049 88.3737 100.517 87.3032C99.8912 86.0427 99.008 85.2355 97.7419 84.7663C97.2629 84.5888 97.1288 84.5695 96.2354 84.5495C95.4195 84.5312 95.1748 84.5493 94.7794 84.6569ZM146.382 84.5671C145.544 84.7624 145.004 84.9956 144.429 85.4104C142.491 86.8088 141.627 89.9388 142.361 92.9C142.432 93.1844 142.656 93.7592 142.861 94.1773C143.191 94.8546 143.296 95.0025 143.826 95.5349C144.825 96.5396 145.857 96.9717 147.264 96.9742C149.126 96.9777 150.517 96.1125 151.357 94.4276C151.611 93.9193 151.869 93.0629 151.935 92.5083L151.981 92.1283H150.863C150.023 92.1283 149.739 92.1489 149.722 92.2109C149.71 92.2564 149.668 92.467 149.629 92.6791C149.475 93.5041 148.987 94.221 148.346 94.563C148.047 94.7222 147.949 94.7386 147.296 94.7388C146.614 94.7391 146.552 94.7276 146.14 94.5222C145.049 93.9797 144.437 92.643 144.44 90.8063C144.442 89.0841 144.936 87.7834 145.828 87.152C146.316 86.8067 146.765 86.6857 147.422 86.7223C148.035 86.7566 148.468 86.9446 148.936 87.3802C149.238 87.6624 149.618 88.3424 149.618 88.6027V88.7573H150.763H151.908L151.867 88.4764C151.798 88.0044 151.455 87.0342 151.215 86.6349C150.69 85.7613 149.901 85.1224 148.906 84.7663C148.393 84.5824 148.262 84.5633 147.428 84.5505C146.924 84.5428 146.453 84.5503 146.382 84.5671ZM159.004 84.633C158.098 84.8547 157.208 85.4588 156.776 86.1461C155.964 87.4361 156.07 89.2792 157.01 90.2672C157.583 90.8681 158.304 91.2164 159.897 91.6606C161.01 91.9711 161.401 92.1133 161.812 92.3568C162.566 92.8035 162.721 93.7977 162.129 94.396C161.687 94.8423 160.727 95.0607 159.888 94.9058C158.834 94.7113 158.253 94.127 158.131 93.1385L158.084 92.7562L156.95 92.7381L155.816 92.72L155.86 93.1347C155.937 93.8437 156.083 94.3754 156.336 94.8617C157.116 96.363 158.923 97.1783 160.973 96.9551C163.367 96.6945 164.72 95.3408 164.72 93.2067C164.72 92.1839 164.452 91.4744 163.824 90.8396C163.303 90.3129 162.675 90.0194 160.992 89.5164C159.152 88.9666 158.728 88.768 158.526 88.3633C158.363 88.0368 158.346 87.8529 158.447 87.487C158.616 86.8709 159.187 86.5507 160.111 86.5525C160.756 86.5539 161.098 86.6379 161.459 86.8834C161.745 87.0784 162.026 87.5768 162.082 87.9902L162.123 88.2946H163.226H164.328V87.945C164.328 86.7087 163.582 85.552 162.422 84.9895C162.122 84.8441 161.671 84.6811 161.419 84.6273C160.838 84.5031 159.523 84.5062 159.004 84.633ZM32 90.7034V96.6889H33.1432H34.2865L34.3037 94.5904L34.321 92.4918L36.0208 92.4546C37.5398 92.4213 37.7607 92.4024 38.0966 92.2764C39.5292 91.739 40.3032 90.4468 40.3032 88.5921C40.3032 86.7263 39.5711 85.5088 38.1051 84.9361L37.6553 84.7605L34.8277 84.7391L32 84.7178V90.7034ZM40.8262 90.7072V96.6889H44.7817H48.7372V95.5653V94.4417H45.8932H43.0491V93.0867V91.7317H45.697H48.3449V90.5419V89.3522H45.6954H43.0461L43.0639 88.212L43.0818 87.0719L45.9095 87.0546L48.7372 87.0374V85.8814V84.7254H44.7817H40.8262V90.7072ZM49.9794 90.7072V96.6889H51.1235H52.2677V94.4086V92.1283H53.7018C54.5539 92.1283 55.2105 92.1568 55.3199 92.1984C55.8649 92.4061 56.1253 92.9708 56.2477 94.2103C56.2872 94.6102 56.3484 95.2351 56.3837 95.5991C56.419 95.963 56.4811 96.3571 56.5217 96.4749L56.5955 96.6889H57.7333C58.359 96.6889 58.871 96.6726 58.871 96.6526C58.871 96.6326 58.8293 96.5347 58.7783 96.435C58.6379 96.1606 58.5561 95.5823 58.4819 94.3391C58.4118 93.1641 58.2705 92.4243 58.0224 91.9326C57.8556 91.6021 57.4412 91.1838 57.1666 91.0688L56.9649 90.9844L57.2646 90.7958C58.1416 90.244 58.6075 89.3074 58.6075 88.0964C58.6075 86.7969 57.9975 85.6431 57.0367 85.1254C56.3081 84.7328 56.2504 84.7271 52.9705 84.7262L49.9794 84.7254V90.7072ZM59.5248 90.7072V96.6889H63.4803H67.4357V95.5653V94.4417H64.6244H61.8131V93.0867V91.7317H64.4283H67.0434V90.5419V89.3522H64.4283H61.8131V88.1955V87.0388H64.6244H67.4357V85.8821V84.7254H63.4803H59.5248V90.7072ZM69.0702 85.8821V87.0388H71.3912C72.6677 87.0388 73.7112 87.0611 73.7101 87.0884C73.709 87.1156 72.577 88.7739 71.1947 90.7733L68.6813 94.4086L68.6796 95.5488L68.6779 96.6889H72.8949H77.1119V95.5653V94.4417H74.2352C72.653 94.4417 71.3585 94.4167 71.3585 94.3861C71.3585 94.3556 72.55 92.7013 74.0064 90.71L76.6542 87.0894V85.9074V84.7254H72.8622H69.0702V85.8821ZM102.283 90.706V96.6889H103.394H104.506V92.657C104.506 88.9648 104.532 88.3147 104.664 88.7408C104.683 88.8045 105.114 90.5072 105.62 92.5248C106.127 94.5425 106.57 96.3048 106.605 96.4411L106.668 96.6889H107.571H108.474L109.546 92.7098L110.619 88.7307L110.636 92.7098L110.653 96.6889H111.829H113.005V90.706V84.723L111.456 84.7408L109.907 84.7585L108.795 88.7739C108.183 90.9823 107.666 92.7892 107.645 92.7892C107.624 92.7892 107.09 90.9823 106.457 88.7739L105.307 84.7585L103.795 84.7408L102.283 84.723V90.706ZM114.182 90.7072V96.6889H115.325H116.469L116.486 94.5904L116.503 92.4918L118.203 92.4546C119.722 92.4213 119.943 92.4024 120.279 92.2764C121.711 91.739 122.485 90.4468 122.485 88.5921C122.485 87.3387 122.146 86.3681 121.469 85.6857C121.056 85.2691 120.61 85.0236 119.963 84.8562C119.5 84.7365 119.233 84.7254 116.82 84.7254H114.182V90.7072ZM125 84.808C124.919 85.028 121.047 96.6396 121.047 96.664C121.047 96.6794 121.568 96.6839 122.205 96.6739L123.362 96.6559L123.76 95.367L124.158 94.0781L126.149 94.0618L128.141 94.0455L128.542 95.3507L128.943 96.6559L130.127 96.6739C130.779 96.6838 131.312 96.6689 131.312 96.6409C131.313 96.6128 130.439 93.9203 129.371 90.6576L127.429 84.7254H126.23C125.331 84.7254 125.023 84.746 125 84.808ZM132.161 90.7056V96.6889H133.272H134.383L134.4 92.6677L134.417 88.6465L136.509 92.6653L138.601 96.684L139.729 96.6865L140.857 96.6889V90.7072V84.7254H139.746H138.634V88.7959C138.634 91.6236 138.613 92.8592 138.565 92.8431C138.527 92.8303 137.574 91.006 136.446 88.7891L134.396 84.7585L133.279 84.7404L132.161 84.7223V90.7056ZM171.912 84.7511C171.912 84.7653 171.306 86.5574 170.566 88.7335C169.825 90.9096 168.914 93.5898 168.542 94.6895L167.864 96.6889H169.058H170.251L170.424 96.1437C170.519 95.8438 170.704 95.2489 170.835 94.8217L171.074 94.0451H173.053H175.032L175.412 95.367L175.791 96.6889H176.994C177.655 96.6889 178.184 96.6666 178.168 96.6394C178.152 96.6121 177.267 93.9203 176.201 90.6576L174.262 84.7254H173.087C172.441 84.7254 171.912 84.737 171.912 84.7511ZM97.2606 86.9574C97.9892 87.32 98.4542 87.9712 98.7678 89.0681C98.8964 89.5178 98.9151 89.7354 98.9151 90.7733C98.9151 91.8116 98.8964 92.0287 98.7676 92.4792C98.4764 93.498 97.9808 94.1802 97.2662 94.5461C96.9119 94.7275 96.8419 94.7391 96.1047 94.7391C95.3886 94.7391 95.2871 94.7235 94.9429 94.5604C93.4797 93.8672 92.817 91.4214 93.4334 88.9898C93.6313 88.209 94.0455 87.5346 94.5541 87.1649C95.045 86.808 95.4303 86.7034 96.1738 86.7248C96.7622 86.7418 96.8765 86.7662 97.2606 86.9574ZM37.2447 87.2043C37.8362 87.4151 38.1164 87.9435 38.0674 88.7559C38.02 89.539 37.6874 89.9415 36.9747 90.0781C36.7819 90.1151 36.0985 90.1454 35.4562 90.1454H34.2883V88.6362C34.2883 87.8061 34.3104 87.1035 34.3373 87.075C34.3643 87.0463 34.9601 87.039 35.6613 87.0586C36.6102 87.0851 37.0151 87.1224 37.2447 87.2043ZM55.5569 87.176C56.1106 87.3665 56.3894 88.0162 56.2617 88.8184C56.1759 89.3569 55.9963 89.6373 55.6159 89.8267C55.3253 89.9714 55.2216 89.9814 53.7877 90.0029L52.2677 90.0255V88.5762C52.2677 87.7791 52.2897 87.104 52.3167 87.076C52.3987 86.9909 55.2768 87.0797 55.5569 87.176ZM119.427 87.2043C120.021 87.4159 120.303 87.9521 120.247 88.7596C120.191 89.5506 119.868 89.9418 119.157 90.0781C118.964 90.1151 118.281 90.1454 117.638 90.1454H116.47V88.6362C116.47 87.8061 116.492 87.1035 116.519 87.075C116.546 87.0463 117.142 87.039 117.843 87.0586C118.792 87.0851 119.197 87.1224 119.427 87.2043ZM126.879 89.896C127.228 91.103 127.504 92.0997 127.493 92.1108C127.482 92.1219 126.869 92.123 126.13 92.1131L124.787 92.0952L125.435 89.9801C126.19 87.5143 126.129 87.6996 126.194 87.7005C126.222 87.7009 126.53 88.6889 126.879 89.896ZM173.737 89.8698C174.1 91.0451 174.397 92.0341 174.397 92.0675C174.397 92.1025 173.828 92.1283 173.056 92.1283C172.319 92.1283 171.716 92.1041 171.716 92.0747C171.716 92.0452 172.01 91.064 172.37 89.8941C172.729 88.7242 173.024 87.747 173.024 87.7224C173.024 87.5834 173.14 87.933 173.737 89.8698ZM165.047 95.4331V96.6889H166.224H167.401V95.4331V94.1773H166.224H165.047V95.4331ZM178.646 95.4331V96.6889H179.823H181V95.4331V94.1773H179.823H178.646V95.4331Z" fill="#717070"/>
</svg>
