<svg width="68" height="68" viewBox="0 0 68 68" fill="none" xmlns="http://www.w3.org/2000/svg">
<g clip-path="url(#clip0)">
<rect x="26" y="50.1935" width="38.3869" height="19.1922" rx="9.59611" transform="rotate(-30 26 50.1935)" fill="#C3DFE0"/>
<rect x="11" y="15" width="11" height="29" rx="2" transform="rotate(-90 11 15)" fill="#C3DFE0"/>
<path d="M16.6943 16.7336C15.9612 16.7336 15.3662 17.3286 15.3662 18.0618C15.3662 18.7949 15.9612 19.3899 16.6943 19.3899C17.4275 19.3899 18.0225 18.7949 18.0225 18.0618C18.0225 17.3286 17.4275 16.7336 16.6943 16.7336Z" fill="#EC681C"/>
<path d="M28.6468 41.5682H24.6627V37.5841C24.6627 36.8507 24.068 36.256 23.3346 36.256C22.6012 36.256 22.0066 36.8507 22.0066 37.5841V41.5682H18.0225C17.2891 41.5682 16.6943 42.1629 16.6943 42.8962C16.6943 43.6295 17.2891 44.2243 18.0225 44.2243H22.0066V48.2084C22.0066 48.9418 22.6013 49.5366 23.3346 49.5366C24.0678 49.5366 24.6627 48.9418 24.6627 48.2084V44.2243H28.6468C29.3802 44.2243 29.9749 43.6296 29.9749 42.8962C29.9749 42.1628 29.3803 41.5682 28.6468 41.5682Z" fill="#EC681C"/>
<path d="M64.4905 42.7635C61.5547 37.6786 55.0633 35.9384 49.9775 38.8749L44.583 41.9893V30.4564C44.583 29.0307 44.1115 27.6158 43.255 26.4723L36.6148 17.6189V13.8489C38.1604 13.3006 39.2709 11.8246 39.2709 10.0931V3.98411C39.2706 1.78726 37.4833 0 35.2865 0H11.3814C9.18459 0 7.3972 1.78726 7.3972 3.98411V10.0932C7.3972 11.8244 8.50764 13.3008 10.0533 13.849V17.619L3.41255 26.473C2.55645 27.616 2.08496 29.0307 2.08496 30.4564V56.1769C2.08496 59.8384 5.06381 62.8171 8.72519 62.8171H30.0684C33.0462 67.8086 39.4672 69.4791 44.5004 66.5729L60.602 57.2765C65.6429 54.3655 67.4411 47.8761 64.4905 42.7635ZM10.0533 3.98411C10.0533 3.25178 10.6491 2.65598 11.3813 2.65598H35.2864C36.0187 2.65598 36.6145 3.25178 36.6145 3.98411V10.0932C36.6145 10.8255 36.0187 11.4212 35.2864 11.4212H11.3814C10.6491 11.4212 10.0534 10.8254 10.0534 10.0932V3.98411H10.0533ZM5.53809 28.0658L12.4438 18.8584C12.6162 18.6287 12.7094 18.349 12.7094 18.0616V14.0775H33.9584V16.7336H22.0059C21.2725 16.7336 20.6778 17.3283 20.6778 18.0617C20.6778 18.7951 21.2725 19.3898 22.0059 19.3898H34.6224L41.1293 28.0654C41.5546 28.6332 41.8187 29.3125 41.8986 30.0143H4.76937C4.84905 29.3124 5.11322 28.633 5.53809 28.0658ZM8.72532 60.161C6.52847 60.161 4.74121 58.3738 4.74121 56.1769V54.8356H28.8699C28.4488 56.5575 28.4516 58.3967 28.9338 60.1611H8.72532V60.161ZM29.9116 52.1927H4.74108V32.6701H41.9267V43.5227L33.8758 48.1714C32.1971 49.141 30.8403 50.5213 29.9116 52.1927ZM43.1725 64.2726C39.3612 66.4735 34.4909 65.1719 32.2886 61.3579C30.0759 57.5072 31.4169 52.659 35.2041 50.4714L42.4128 46.3093L50.3812 60.1105L43.1725 64.2726ZM59.2739 54.9763L52.6815 58.7825L44.713 44.9811L51.3055 41.1752C55.1194 38.9734 59.9879 40.2772 62.1902 44.0914C64.4022 47.9246 63.0571 52.7916 59.2739 54.9763Z" fill="#EC681C"/>
</g>
<defs>
<clipPath id="clip0">
<rect width="68" height="68" fill="white"/>
</clipPath>
</defs>
</svg>
