<svg width="68" height="68" viewBox="0 0 68 68" fill="none" xmlns="http://www.w3.org/2000/svg">
<g clip-path="url(#clip0)">
<rect x="10.5234" y="42.0952" width="10.5238" height="25.0952" rx="2" fill="#C3DFE0"/>
<rect x="30.7617" y="36.4286" width="11.3333" height="30.7619" rx="2" fill="#C3DFE0"/>
<rect x="51" y="24.2856" width="11.3333" height="42.9048" rx="2" fill="#C3DFE0"/>
<path d="M67.0019 66.004H60.5479V26.548C60.5479 25.9968 60.1011 25.5499 59.5498 25.5499H48.9041C48.3528 25.5499 47.906 25.9968 47.906 26.548V66.004H40.3209V38.2584C40.3209 37.7072 39.8742 37.2603 39.3229 37.2603H28.6771C28.1258 37.2603 27.6791 37.7072 27.6791 38.2584V66.004H20.094V43.5812C20.094 43.03 19.6472 42.5831 19.0959 42.5831H8.4502C7.89889 42.5831 7.45211 43.03 7.45211 43.5812V66.0038H0.998086C0.446781 66.0038 0 66.4507 0 67.0019C0 67.5531 0.446781 68 0.998086 68H67.0019C67.5532 68 68 67.5531 68 67.0019C67.9999 66.4507 67.5532 66.004 67.0019 66.004ZM18.0978 66.004H9.44815V44.5793H18.0978V66.004ZM38.3249 66.004H29.6752V39.2564H38.3249V66.004ZM58.5519 66.004H49.9022V27.5461H58.5519V66.004Z" fill="#EC681C"/>
<path d="M64.8142 0.782985C64.1415 0.189181 63.2462 -0.0874677 62.3564 0.0243604L53.8398 1.08899C52.1491 1.30029 50.9131 2.88727 51.1247 4.5797C51.3384 6.28992 52.9031 7.50874 54.6156 7.29491L55.3104 7.20819C44.8574 19.3281 32.4306 25.5918 23.6493 28.7398C12.7001 32.665 4.17788 33.0008 4.09487 33.0036C2.37322 33.0574 1.01482 34.502 1.06688 36.2239C1.11841 37.9244 2.49076 39.2564 4.19143 39.2564C4.22303 39.2564 4.25478 39.256 4.28732 39.2549C4.66623 39.2435 13.7003 38.9245 25.6023 34.6835C32.2931 32.2993 38.5889 29.1342 44.3146 25.2764C44.7718 24.9685 44.8926 24.348 44.5845 23.891C44.2766 23.4338 43.6564 23.313 43.1991 23.621C37.612 27.3857 31.4661 30.4751 24.9322 32.8033C13.3227 36.94 4.59265 37.2487 4.22755 37.2597L4.19143 37.2602C3.57677 37.2602 3.08058 36.7785 3.06199 36.1634C3.04313 35.5405 3.53453 35.0181 4.15769 34.9985C4.24482 34.9958 13.0102 34.6741 24.3229 30.6186C33.8002 27.2212 47.418 20.284 58.4724 6.52938C59.0228 5.8446 58.441 4.80481 57.5709 4.91385L54.3685 5.31415C53.8134 5.38281 53.2742 5.01904 53.1332 4.4769C52.9638 3.82452 53.4196 3.15302 54.0876 3.06935L62.6045 2.00473C63.2695 1.92066 63.8756 2.45815 63.8756 3.12713V11.6437C63.8756 12.2674 63.3683 12.7749 62.7445 12.7749C62.1207 12.7749 61.6133 12.2675 61.6133 11.6437V9.06185C61.6133 8.65399 61.3496 8.27255 60.9681 8.12845C60.5741 7.97956 60.1084 8.10454 59.842 8.43073C56.1143 12.9983 51.8699 17.1314 47.2264 20.7152C46.7901 21.052 46.7092 21.6788 47.046 22.1152C47.3829 22.5516 48.0099 22.6322 48.446 22.2956C52.4908 19.1738 56.2401 15.6462 59.6205 11.7846C59.6943 13.4439 61.0673 14.7712 62.7446 14.7712C64.4689 14.7712 65.8718 13.3683 65.8718 11.644V3.12739C65.8717 2.23091 65.4863 1.37626 64.8142 0.782985Z" fill="#EC681C"/>
</g>
<defs>
<clipPath id="clip0">
<rect width="68" height="68" fill="white"/>
</clipPath>
</defs>
</svg>
