<svg width="47" height="47" viewBox="0 0 47 47" fill="none" xmlns="http://www.w3.org/2000/svg">
<path fill-rule="evenodd" clip-rule="evenodd" d="M23.5 47C36.4787 47 47 36.4787 47 23.5C47 10.5213 36.4787 0 23.5 0C10.5213 0 0 10.5213 0 23.5C0 36.4787 10.5213 47 23.5 47ZM18.3867 10.0267H28.4186C33.035 10.0267 36.7787 13.7108 36.7787 18.254V28.1267C36.7787 32.6698 33.035 36.354 28.4186 36.354H18.3867C13.7702 36.354 10.0267 32.6698 10.0267 28.1267V18.254C10.0267 13.7108 13.7702 10.0267 18.3867 10.0267ZM28.4186 33.8858C31.6456 33.8858 34.2706 31.3024 34.2706 28.1267V18.254C34.2706 15.0782 31.6456 12.4949 28.4186 12.4949H18.3867C15.1597 12.4949 12.5346 15.0782 12.5346 18.254V28.1267C12.5346 31.3024 15.1597 33.8858 18.3867 33.8858H28.4186ZM23.4027 16.6085C19.7093 16.6085 16.7148 19.5555 16.7148 23.1904C16.7148 26.8252 19.7093 29.7722 23.4027 29.7722C27.0962 29.7722 30.0907 26.8252 30.0907 23.1904C30.0907 19.5555 27.0962 16.6085 23.4027 16.6085ZM23.4027 27.304C21.0987 27.304 19.2227 25.4578 19.2227 23.1904C19.2227 20.9213 21.0987 19.0767 23.4027 19.0767C25.7067 19.0767 27.5827 20.9213 27.5827 23.1904C27.5827 25.4578 25.7067 27.304 23.4027 27.304ZM31.4835 16.1149C31.4835 16.5992 31.0845 16.9919 30.5924 16.9919C30.1002 16.9919 29.7012 16.5992 29.7012 16.1149C29.7012 15.6305 30.1002 15.2378 30.5924 15.2378C31.0845 15.2378 31.4835 15.6305 31.4835 16.1149Z" fill="#EC681C"/>
</svg>
