<svg width="47" height="47" viewBox="0 0 47 47" fill="none" xmlns="http://www.w3.org/2000/svg">
<path fill-rule="evenodd" clip-rule="evenodd" d="M23.5 47C36.4787 47 47 36.4787 47 23.5C47 10.5213 36.4787 0 23.5 0C10.5213 0 0 10.5213 0 23.5C0 36.4787 10.5213 47 23.5 47ZM10.6533 19.025H16.6441V37.4426H10.6533V19.025ZM32.962 19.241C32.9408 19.2343 32.9199 19.2274 32.8991 19.2205C32.8574 19.2067 32.8158 19.193 32.7711 19.1807C32.6908 19.1623 32.6104 19.1472 32.5283 19.1338C32.2102 19.0702 31.8619 19.025 31.4534 19.025C27.9607 19.025 25.7456 21.5649 25.0156 22.5461V19.025H19.0248V37.4426H25.0156V27.3966C25.0156 27.3966 29.543 21.0911 31.4534 25.7223V37.4426H37.4425V25.014C37.4425 22.2313 35.5354 19.9123 32.962 19.241ZM16.5135 13.5834C16.5135 15.2016 15.2016 16.5135 13.5834 16.5135C11.9652 16.5135 10.6533 15.2016 10.6533 13.5834C10.6533 11.9652 11.9652 10.6533 13.5834 10.6533C15.2016 10.6533 16.5135 11.9652 16.5135 13.5834Z" fill="#EC681C"/>
</svg>
