<svg width="117" height="34" viewBox="0 0 117 34" fill="none" xmlns="http://www.w3.org/2000/svg">
<path d="M21.334 31.9325L21.334 33.4804C19.9937 33.8244 18.7651 33.9964 17.704 33.9964C14.5207 33.9964 12.231 33.6524 10.8348 32.9071C9.38275 32.1618 8.32165 30.7859 7.65148 28.7794C2.51354 27.6901 0.000415957 23.0464 0.000415948 14.7337C0.000415943 9.86066 0.782275 6.30624 2.346 3.95573C4.13311 1.31857 7.14886 -6.6095e-06 11.3932 -4.78287e-06C15.4701 -3.02835e-06 18.3741 1.31858 20.1613 3.8984C21.725 6.19159 22.5068 9.74602 22.5068 14.5617C22.5068 18.8614 21.8925 22.1292 20.608 24.365C19.2119 26.8875 16.8663 28.3781 13.6271 28.7794C14.0739 29.926 14.6882 30.7859 15.3584 31.2446C16.1961 31.8179 17.4247 32.1618 19.1002 32.1618C19.5469 32.1618 20.2729 32.1045 21.334 31.9325ZM4.46819 14.7337C4.46819 23.1038 6.75793 27.2888 11.3374 27.2888C14.1298 27.2888 16.0286 25.8556 17.0338 23.0465C17.6481 21.2692 17.9274 18.5174 17.9274 14.7337C17.9274 10.9499 17.5923 8.14079 16.978 6.30624C15.9727 3.43977 14.0739 2.00653 11.3374 2.00653C8.48919 2.00653 6.53454 3.43976 5.52929 6.24891C4.80328 8.14078 4.46819 10.9499 4.46819 14.7337Z" fill="white"/>
<path d="M33.3406 12.4405L33.3406 14.3323C31.7769 13.5297 30.5483 13.1284 29.5989 13.1284C27.9234 13.1284 27.0299 13.8164 27.0299 15.1349C27.0299 15.9949 27.6442 16.7402 28.9287 17.4281C30.1015 18.0587 31.2184 18.632 32.3912 19.2627C33.6199 20.1799 34.29 21.3265 34.29 22.7598C34.29 24.2503 33.7874 25.3969 32.7263 26.1995C31.7769 26.9448 30.4366 27.2888 28.817 27.2888C27.4767 27.2888 26.1363 27.0595 24.8519 26.6582L24.8519 24.6516C25.3545 24.881 25.8013 25.1103 26.3039 25.3969C27.2533 25.7982 28.1468 26.0275 28.9287 26.0275C31.0509 26.0275 32.112 25.1103 32.112 23.3331C32.112 22.4731 31.4977 21.6705 30.2132 20.9252C29.0404 20.2946 27.9235 19.664 26.7507 19.0333C25.522 18.1734 24.8519 17.1988 24.8519 15.9949C24.8519 13.2431 26.5273 11.8672 29.8781 11.8672C30.7158 11.9245 31.8886 12.0965 33.3406 12.4405Z" fill="white"/>
<path d="M46.7438 25.6836L46.7438 26.7728C45.8503 27.1742 44.5658 27.3461 42.9462 27.3461C40.6565 27.3461 38.9252 26.6582 37.6407 25.2249C36.4121 23.7917 35.7419 21.7852 35.7419 19.148C35.7419 14.3323 37.8083 11.9245 41.941 11.9245C43.4488 11.9245 44.6775 12.3831 45.6269 13.2431C46.6321 14.2177 47.1348 15.5936 47.1348 17.4281L47.1348 17.8868L38.1434 17.8868L38.1434 18.5747C38.1434 20.3519 38.7018 22.0145 39.7629 23.5051C40.9916 25.2249 42.6111 26.1422 44.6216 26.1422C45.1243 26.0849 45.8503 25.9702 46.7438 25.6836ZM44.5099 16.8548L44.5099 16.5682C44.5099 15.6509 44.2307 14.8483 43.7281 14.2177C43.1696 13.5297 42.4436 13.1857 41.6059 13.1857C39.5395 13.1857 38.4226 14.3897 38.1992 16.8548L44.5099 16.8548Z" fill="white"/>
<path d="M50.1507 27.0021L50.1507 15.3643C50.1507 14.5043 49.8715 13.8737 49.313 13.587C49.0337 13.4151 48.5311 13.3004 47.8051 13.1857L47.8051 12.6124L52.4963 11.8672L52.4963 15.6509L52.5521 15.6509C53.2781 13.1284 54.6743 11.8672 56.629 11.8672C56.7407 11.8672 56.8524 11.8672 56.9082 11.9245L56.9082 14.5616C56.3497 14.447 56.0146 14.3323 55.903 14.3323C53.6132 14.3323 52.4963 15.9949 52.4963 19.3773L52.4963 27.0021L50.1507 27.0021Z" fill="white"/>
<path d="M65.7877 27.3461L61.0965 15.7656C60.6497 14.6763 60.3146 13.9884 60.0912 13.7017C59.6445 13.2431 58.9743 12.9564 57.9691 12.8418L57.9691 12.2685L62.2134 12.2685L66.9605 23.8491L71.0931 12.2685L72.7686 12.2685L67.2397 27.3462L65.7877 27.3461V27.3461Z" fill="white"/>
<path d="M75.8966 27.0022L75.8966 15.3069C75.8966 14.5043 75.6174 13.931 75.0589 13.5871C74.7797 13.4151 74.277 13.3004 73.551 13.2431L73.551 12.6698L78.2422 11.9245L78.2422 27.0022L75.8966 27.0022Z" fill="white"/>
<path d="M76.9572 8.88604C76.4546 8.88604 76.0637 8.71405 75.7286 8.37008C75.3935 8.0261 75.2259 7.62479 75.2259 7.10882C75.2259 6.59286 75.3935 6.19155 75.7286 5.84757C76.0637 5.50359 76.5104 5.3316 76.9572 5.3316C77.404 5.3316 77.8508 5.50359 78.1859 5.84757C78.5209 6.19155 78.6885 6.59286 78.6885 7.10882C78.6885 7.62479 78.5209 8.0261 78.1859 8.37008C77.8508 8.71405 77.404 8.88604 76.9572 8.88604Z" fill="white"/>
<path d="M91.8124 25.8555L91.8124 26.7728C90.8072 27.1168 89.7461 27.2888 88.5175 27.2888C83.6029 27.2888 81.1456 24.5943 81.1456 19.148C81.1456 16.9695 81.5924 15.3069 82.486 14.0457C83.5471 12.6124 85.1108 11.9245 87.1771 11.9245C88.7408 11.9245 90.0253 12.3258 91.0306 13.1857C91.9241 13.931 92.4268 14.8483 92.4268 15.9375L89.5786 15.9375C89.5786 14.103 88.685 13.1857 86.9537 13.1857C85.9485 13.1857 85.2225 13.587 84.664 14.447C84.0497 15.3069 83.7704 16.5108 83.7704 18.1161C83.7704 20.2372 84.2731 22.0145 85.2783 23.505C86.4511 25.2249 88.0707 26.0849 90.0812 26.0849C90.528 26.0849 91.0864 26.0275 91.8124 25.8555Z" fill="white"/>
<path d="M104.993 25.6835L104.993 26.7728C104.099 27.1741 102.815 27.3461 101.195 27.3461C98.9055 27.3461 97.1742 26.6582 95.8898 25.2249C94.6611 23.7917 93.991 21.7851 93.991 19.148C93.991 14.3323 96.0573 11.9245 100.19 11.9245C101.698 11.9245 102.927 12.3831 103.876 13.243C104.881 14.2177 105.384 15.5936 105.384 17.4281L105.384 17.8867L96.3924 17.8867L96.3924 18.5747C96.3924 20.3519 96.9509 22.0145 98.012 23.505C99.2964 25.2249 100.86 26.1422 102.871 26.1422C103.373 26.0849 104.099 25.9702 104.993 25.6835ZM102.703 16.8548L102.703 16.5682C102.703 15.6509 102.424 14.8483 101.921 14.2176C101.363 13.5297 100.637 13.1857 99.7991 13.1857C97.7327 13.1857 96.6158 14.3896 96.3924 16.8548L102.703 16.8548Z" fill="white"/>
<path d="M116.106 12.4405L116.106 14.3323C114.543 13.5297 113.314 13.1284 112.365 13.1284C110.689 13.1284 109.796 13.8164 109.796 15.1349C109.796 15.9949 110.41 16.7402 111.639 17.4281C112.811 18.0587 113.928 18.632 115.101 19.2627C116.33 20.1799 117 21.3265 117 22.7598C117 24.2503 116.497 25.3969 115.436 26.1995C114.487 26.9448 113.147 27.2888 111.527 27.2888C110.187 27.2888 108.846 27.0595 107.562 26.6582L107.562 24.6516C108.064 24.881 108.511 25.1103 109.014 25.3969C109.963 25.7982 110.857 26.0275 111.639 26.0275C113.761 26.0275 114.822 25.1103 114.822 23.3331C114.822 22.4731 114.208 21.6705 112.923 20.9252C111.75 20.2946 110.633 19.664 109.461 19.0333C108.232 18.1734 107.562 17.1988 107.562 15.9949C107.562 13.2431 109.237 11.8672 112.588 11.8672C113.482 11.9245 114.599 12.0965 116.106 12.4405Z" fill="white"/>
</svg>
