<svg width="177" height="52" viewBox="0 0 177 52" fill="none" xmlns="http://www.w3.org/2000/svg">
<path d="M32.2125 48.4074L32.2125 50.7446C30.1887 51.264 28.3336 51.5237 26.7314 51.5237C21.9248 51.5237 18.4674 51.0043 16.3593 49.8789C14.1668 48.7536 12.5646 46.6761 11.5527 43.6463C3.79472 42.0016 5.34405e-05 34.9899 5.3428e-05 22.4381C5.34206e-05 15.0802 1.18061 9.7132 3.54174 6.16407C6.24017 2.18213 10.7938 0.191152 17.2025 0.191155C23.3583 0.191158 27.7433 2.18213 30.4417 6.07752C32.8028 9.54008 33.9834 14.9071 33.9834 22.1784C33.9834 28.6708 33.0558 33.6049 31.1163 36.9809C29.0082 40.7897 25.4665 43.0404 20.5756 43.6463C21.2502 45.3776 22.1778 46.6761 23.1897 47.3686C24.4546 48.2342 26.3097 48.7536 28.8395 48.7536C29.5141 48.7536 30.6104 48.6671 32.2125 48.4074ZM6.74613 22.4381C6.74613 35.0765 10.2035 41.3957 17.1182 41.3957C21.3345 41.3957 24.2016 39.2316 25.7195 34.9899C26.647 32.3064 27.0687 28.1514 27.0687 22.4381C27.0687 16.7249 26.5627 12.4833 25.6351 9.71321C24.1173 5.385 21.2502 3.2209 17.1182 3.2209C12.8176 3.2209 9.86619 5.385 8.34833 9.62664C7.25209 12.4833 6.74613 16.7249 6.74613 22.4381Z" fill="white"/>
<path d="M50.3418 18.9755L50.3418 21.8321C47.9807 20.6202 46.1255 20.0143 44.692 20.0143C42.1622 20.0143 40.813 21.053 40.813 23.044C40.813 24.3425 41.7406 25.4678 43.6801 26.5066C45.4509 27.4588 47.1375 28.3244 48.9083 29.2766C50.7635 30.6617 51.7754 32.3929 51.7754 34.557C51.7754 36.8077 51.0165 38.539 49.4143 39.7509C47.9807 40.8762 45.9569 41.3956 43.5114 41.3956C41.4876 41.3956 39.4638 41.0494 37.5243 40.4434L37.5243 37.4137C38.2832 37.7599 38.9578 38.1062 39.7168 38.539C41.1503 39.1449 42.4995 39.4912 43.6801 39.4912C46.8845 39.4912 48.4867 38.1062 48.4867 35.4227C48.4867 34.1242 47.5591 32.9123 45.6196 31.787C43.8487 30.8348 42.1622 29.8826 40.3914 28.9304C38.5362 27.6319 37.5243 26.1603 37.5243 24.3425C37.5243 20.1874 40.0541 18.1099 45.1136 18.1099C46.3785 18.1964 48.1494 18.4561 50.3418 18.9755Z" fill="white"/>
<path d="M70.5806 38.9718L70.5806 40.6166C69.2314 41.2225 67.2919 41.4822 64.8465 41.4822C61.3891 41.4822 58.775 40.4434 56.8355 38.2793C54.9803 36.1152 53.9684 33.0855 53.9684 29.1035C53.9684 21.8321 57.0885 18.1964 63.3286 18.1964C65.6054 18.1964 67.4605 18.889 68.8941 20.1874C70.412 21.659 71.1709 23.7365 71.1709 26.5066L71.1709 27.1991L57.5944 27.1991L57.5944 28.2379C57.5944 30.9214 58.4377 33.4317 60.0399 35.6824C61.895 38.2793 64.3405 39.6643 67.3762 39.6643C68.1352 39.5778 69.2314 39.4047 70.5806 38.9718ZM67.2076 25.641L67.2076 25.2081C67.2076 23.8231 66.7859 22.6112 66.027 21.659C65.1838 20.6202 64.0875 20.1009 62.8226 20.1009C59.7026 20.1008 58.0161 21.9187 57.6787 25.641L67.2076 25.641Z" fill="white"/>
<path d="M75.7243 40.9628L75.7243 23.3903C75.7243 22.0918 75.3027 21.1396 74.4594 20.7068C74.0378 20.4471 73.2788 20.274 72.1826 20.1008L72.1826 19.2352L79.266 18.1099L79.266 23.8231L79.3503 23.8231C80.4465 20.0143 82.5547 18.1099 85.5061 18.1099C85.6748 18.1099 85.8434 18.1099 85.9277 18.1964L85.9277 22.1784C85.0845 22.0052 84.5785 21.8321 84.4099 21.8321C80.9525 21.8321 79.266 24.3425 79.266 29.4498L79.266 40.9628L75.7243 40.9628Z" fill="white"/>
<path d="M99.3352 41.4822L92.2519 23.9963C91.5773 22.3515 91.0713 21.3128 90.734 20.8799C90.0594 20.1874 89.0475 19.7546 87.5296 19.5815L87.5296 18.7158L93.9384 18.7158L101.106 36.2018L107.346 18.7159L109.876 18.7159L101.528 41.4822L99.3352 41.4822Z" fill="white"/>
<path d="M114.599 40.9628L114.599 23.3037C114.599 22.0918 114.177 21.2262 113.334 20.7068C112.912 20.4471 112.153 20.274 111.057 20.1874L111.057 19.3218L118.141 18.1964L118.141 40.9628L114.599 40.9628Z" fill="white"/>
<path d="M116.2 13.6085C115.441 13.6085 114.851 13.3488 114.345 12.8295C113.839 12.3101 113.586 11.7041 113.586 10.925C113.586 10.146 113.839 9.54001 114.345 9.02063C114.851 8.50124 115.526 8.24155 116.2 8.24155C116.875 8.24155 117.55 8.50124 118.056 9.02063C118.561 9.54001 118.814 10.146 118.814 10.925C118.814 11.7041 118.561 12.3101 118.056 12.8295C117.55 13.3488 116.875 13.6085 116.2 13.6085Z" fill="white"/>
<path d="M138.632 39.2315L138.632 40.6165C137.114 41.1359 135.512 41.3956 133.657 41.3956C126.236 41.3956 122.526 37.3271 122.526 29.1035C122.526 25.814 123.2 23.3037 124.55 21.3993C126.152 19.2352 128.513 18.1964 131.633 18.1964C133.994 18.1964 135.934 18.8024 137.451 20.1008C138.801 21.2262 139.56 22.6112 139.56 24.2559L135.259 24.2559C135.259 21.4858 133.91 20.1008 131.296 20.1008C129.778 20.1008 128.682 20.7068 127.838 22.0052C126.911 23.3037 126.489 25.1215 126.489 27.5453C126.489 30.7482 127.248 33.4317 128.766 35.6824C130.537 38.2793 132.982 39.5778 136.018 39.5778C136.692 39.5778 137.536 39.4912 138.632 39.2315Z" fill="white"/>
<path d="M158.533 38.9718L158.533 40.6165C157.184 41.2225 155.244 41.4822 152.799 41.4822C149.341 41.4822 146.727 40.4434 144.788 38.2793C142.932 36.1152 141.921 33.0854 141.921 29.1035C141.921 21.8321 145.041 18.1964 151.281 18.1964C153.558 18.1964 155.413 18.8889 156.846 20.1874C158.364 21.659 159.123 23.7365 159.123 26.5066L159.123 27.1991L145.547 27.1991L145.547 28.2378C145.547 30.9213 146.39 33.4317 147.992 35.6824C149.932 38.2793 152.293 39.6643 155.328 39.6643C156.087 39.5777 157.184 39.4046 158.533 38.9718ZM155.075 25.6409L155.075 25.2081C155.075 23.8231 154.654 22.6112 153.895 21.659C153.052 20.6202 151.955 20.1008 150.69 20.1008C147.57 20.1008 145.884 21.9187 145.547 25.6409L155.075 25.6409Z" fill="white"/>
<path d="M175.314 18.9755L175.314 21.8321C172.953 20.6202 171.098 20.0143 169.664 20.0143C167.134 20.0143 165.785 21.053 165.785 23.044C165.785 24.3425 166.713 25.4678 168.568 26.5066C170.339 27.4588 172.025 28.3244 173.796 29.2766C175.651 30.6617 176.663 32.3929 176.663 34.5571C176.663 36.8077 175.904 38.539 174.302 39.7509C172.868 40.8762 170.845 41.3956 168.399 41.3956C166.375 41.3956 164.352 41.0494 162.412 40.4434L162.412 37.4137C163.171 37.7599 163.846 38.1062 164.604 38.539C166.038 39.1449 167.387 39.4912 168.568 39.4912C171.772 39.4912 173.374 38.1062 173.374 35.4227C173.374 34.1242 172.447 32.9123 170.507 31.787C168.736 30.8348 167.05 29.8826 165.279 28.9304C163.424 27.6319 162.412 26.1603 162.412 24.3425C162.412 20.1874 164.942 18.1099 170.001 18.1099C171.351 18.1964 173.037 18.4561 175.314 18.9755Z" fill="white"/>
<path d="M40.7291 51.4371L40.6448 51.5236C40.3918 51.6102 40.1389 51.6968 39.8859 51.7833C39.8016 51.7833 39.6329 51.7833 39.4643 51.7833C39.2113 51.7833 38.9583 51.7833 38.7053 51.6968C38.1994 51.5236 37.8621 51.1774 37.6091 50.5714C37.4404 50.1386 37.3561 49.5327 37.3561 48.9267C37.3561 48.7536 37.3561 48.4939 37.3561 48.3208C37.5248 46.9357 38.115 46.2432 39.2113 46.2432C39.3799 46.2432 39.5486 46.2432 39.7172 46.3298C40.0545 46.4164 40.3075 46.5895 40.4762 46.7626C40.7291 47.0223 40.8135 47.282 40.8135 47.6282C40.8135 47.6282 40.8135 47.7148 40.8135 47.8014L40.1389 47.8014C40.1389 47.7148 40.1389 47.7148 40.1389 47.6282C40.1389 47.282 40.0545 47.1089 39.8016 46.9357C39.6329 46.7626 39.3799 46.676 39.127 46.676C38.5367 46.676 38.1994 47.0223 38.0307 47.7148C37.9464 47.8879 37.9464 48.1476 37.9464 48.4073C37.9464 48.5804 37.9464 48.7536 37.9464 48.9267C37.9464 50.2252 38.2837 51.0042 38.874 51.3505C39.0426 51.4371 39.2113 51.5236 39.4643 51.5236C39.8016 51.5236 40.1389 51.3505 40.5605 51.0908C40.5605 51.0908 40.6448 51.0042 40.7291 51.0042L40.7291 51.4371Z" fill="white"/>
<path d="M47.1386 50.9177C46.8013 51.5236 46.2953 51.7833 45.6207 51.7833C45.3677 51.7833 45.1991 51.7833 45.0304 51.6968C44.5245 51.5236 44.1872 51.1774 44.0185 50.658C43.9342 50.3983 43.8499 50.1386 43.8499 49.8789C43.7655 49.6192 43.7655 49.273 43.7655 49.0133C43.7655 48.7536 43.7655 48.4939 43.8499 48.1476C43.8499 47.8879 43.9342 47.6282 44.1028 47.3686C44.3558 46.676 44.9461 46.3298 45.7894 46.2432C46.0423 46.2432 46.211 46.2432 46.3796 46.3298C46.8013 46.5029 47.2229 46.8492 47.3916 47.3686C47.5602 47.8014 47.6445 48.3208 47.6445 49.0133C47.5602 49.8789 47.3916 50.5714 47.1386 50.9177ZM46.8856 49.1864C46.8856 48.9267 46.8856 48.667 46.8013 48.3208C46.8013 48.1476 46.717 47.8879 46.717 47.7148C46.6326 47.4551 46.5483 47.1954 46.2953 47.0223C46.0423 46.8492 45.8737 46.676 45.6207 46.676C45.3677 46.676 45.1991 46.7626 44.9461 46.9357C44.7775 47.1089 44.6088 47.282 44.5245 47.5417C44.4402 47.8879 44.3558 48.4073 44.3558 49.0133C44.3558 49.273 44.3558 49.5327 44.3558 49.7923C44.3558 50.052 44.4402 50.2252 44.5245 50.4849C44.6088 50.658 44.6088 50.8311 44.7775 51.0042C44.8618 51.1774 45.0304 51.2639 45.1991 51.3505C45.3677 51.4371 45.5364 51.4371 45.705 51.4371C46.1267 51.4371 46.3796 51.2639 46.6326 50.9177C46.8013 50.658 46.8856 50.3117 46.9699 49.8789C46.8856 49.6192 46.8856 49.4461 46.8856 49.1864Z" fill="white"/>
<path d="M53.7997 46.4163L54.3057 46.4163L54.3057 51.7833L53.5467 51.7833L51.3543 47.1954L51.3543 51.7833L50.8483 51.7833L50.8483 46.4163L51.6072 46.4163L53.7997 51.0042L53.7997 46.4163Z" fill="white"/>
<path d="M60.2086 47.0223C59.8713 46.8491 59.4497 46.7626 59.028 46.7626C58.775 46.7626 58.6064 46.8491 58.4377 46.9357C58.2691 47.1088 58.1848 47.282 58.1848 47.5417C58.1848 47.8014 58.2691 48.061 58.4377 48.1476C58.5221 48.2342 58.6064 48.3207 58.775 48.4073L59.1967 48.667L59.7026 48.9267C59.8713 49.0133 60.0399 49.1864 60.2086 49.3595C60.3773 49.5326 60.4616 49.6192 60.4616 49.8789C60.5459 50.052 60.5459 50.1386 60.5459 50.3117C60.5459 50.8311 60.3772 51.1774 59.9556 51.5236C59.6183 51.7833 59.1967 51.8699 58.6907 51.8699C58.3534 51.8699 58.0161 51.8699 57.5945 51.6968L57.4258 51.6968L57.4258 51.0042L57.5101 51.0908C57.9318 51.3505 58.2691 51.4371 58.6907 51.4371C59.1967 51.4371 59.534 51.2639 59.7026 50.9177C59.787 50.7446 59.787 50.658 59.787 50.4849C59.787 50.3983 59.787 50.3117 59.787 50.2252C59.7026 49.9655 59.3653 49.7058 58.775 49.3595L58.2691 49.0998C58.1004 49.0133 57.9318 48.8401 57.7631 48.7536C57.6788 48.667 57.5945 48.4939 57.5101 48.3207C57.4258 48.1476 57.4258 47.9745 57.4258 47.8014C57.4258 47.3685 57.5945 47.0223 57.9318 46.7626C58.1848 46.5895 58.6064 46.4163 59.028 46.4163C59.1123 46.4163 59.281 46.4163 59.4497 46.4163C59.6183 46.4163 59.8713 46.5029 60.0399 46.5029L60.2086 46.5029L60.2086 47.0223Z" fill="white"/>
<path d="M67.207 49.7048C67.207 49.878 67.207 49.9645 67.207 50.1377C67.207 51.263 66.6168 51.7824 65.5205 51.8689C64.8459 51.8689 64.4243 51.6958 64.087 51.263C64.0027 51.0899 63.9183 50.9167 63.834 50.7436C63.834 50.5705 63.7497 50.3973 63.7497 50.1376C63.7497 50.0511 63.7497 49.9645 63.7497 49.7914L63.7497 46.4154L64.34 46.4154L64.34 49.7048L64.34 49.9645C64.34 50.1377 64.34 50.2242 64.34 50.3108C64.4243 50.8302 64.5929 51.0899 65.0146 51.263C65.1832 51.3496 65.2675 51.3495 65.4362 51.3495C65.6048 51.3495 65.6892 51.3496 65.8578 51.263C66.2795 51.0899 66.4481 50.8302 66.5324 50.3108C66.5324 50.2242 66.5324 50.0511 66.5324 49.878L66.5324 49.6183L66.5324 46.3288L67.1227 46.3288L67.1227 49.7048L67.207 49.7048Z" fill="white"/>
<path d="M73.1943 51.3505L73.1943 51.7833L70.7489 51.7833L70.7489 46.4163L71.3392 46.4163L71.3392 51.3505L73.1943 51.3505Z" fill="white"/>
<path d="M76.989 51.7833L76.3987 51.7833L76.3987 46.8491L75.1339 46.8491L75.1339 46.4163L78.2539 46.4163L78.2539 46.8491L77.0733 46.8491L77.0733 51.7833L76.989 51.7833Z" fill="white"/>
<path d="M83.7356 50.9177C83.3983 51.5236 82.8923 51.7833 82.2177 51.7833C81.9648 51.7833 81.7961 51.7833 81.6275 51.6968C81.1215 51.5236 80.7842 51.1774 80.6155 50.658C80.5312 50.3983 80.4469 50.1386 80.4469 49.8789C80.3626 49.6192 80.3626 49.273 80.3626 49.0133C80.3626 48.7536 80.3626 48.4939 80.4469 48.1476C80.4469 47.8879 80.5312 47.6282 80.6155 47.3686C80.8685 46.676 81.4588 46.3298 82.3021 46.2432C82.555 46.2432 82.7237 46.2432 82.8923 46.3298C83.314 46.5029 83.7356 46.8492 83.9042 47.3686C84.0729 47.8014 84.1572 48.3208 84.1572 49.0133C84.0729 49.8789 83.9886 50.5714 83.7356 50.9177ZM83.3983 49.1864C83.3983 48.9267 83.3983 48.667 83.314 48.3208C83.314 48.1476 83.2296 47.8879 83.2296 47.7148C83.1453 47.4551 83.061 47.1954 82.808 47.0223C82.555 46.8492 82.3864 46.676 82.1334 46.676C81.8804 46.676 81.7118 46.7626 81.4588 46.9357C81.2902 47.1089 81.1215 47.282 81.0372 47.5417C80.9528 47.8879 80.8685 48.4073 80.8685 49.0133C80.8685 49.273 80.8685 49.5327 80.8685 49.7923C80.8685 50.052 80.9528 50.2252 81.0372 50.4849C81.1215 50.658 81.1215 50.8311 81.2902 51.0042C81.3745 51.1774 81.5431 51.2639 81.7118 51.3505C81.8804 51.4371 82.0491 51.4371 82.2177 51.4371C82.6394 51.4371 82.8923 51.2639 83.1453 50.9177C83.314 50.658 83.3983 50.3117 83.4826 49.8789C83.3983 49.6192 83.3983 49.4461 83.3983 49.1864Z" fill="white"/>
<path d="M87.6148 51.7833L87.0245 51.7833L87.0245 46.4163L87.5304 46.4163L88.0364 46.4163C88.5423 46.4163 88.964 46.5029 89.2169 46.5895C89.3856 46.676 89.5542 46.7626 89.6386 46.8491C89.8915 47.1088 89.9759 47.3685 89.9759 47.8014C89.9759 48.4939 89.6386 48.8401 88.964 49.0132L88.7953 49.0998L88.964 49.0998C89.3856 49.1864 89.6386 49.4461 89.7229 49.7923C89.7229 49.8789 89.8072 50.052 89.8072 50.1386L89.8916 50.3983L90.1445 51.7833L89.4699 51.7833L89.3013 50.658L89.2169 50.3983C89.1326 50.052 89.0483 49.8789 88.964 49.7058C88.7953 49.5326 88.6267 49.3595 88.3737 49.3595C88.205 49.3595 88.1207 49.3595 88.0364 49.3595L87.7834 49.3595L87.6148 49.3595L87.6148 51.7833ZM87.6148 48.9267L87.7834 48.9267C88.7953 48.9267 89.3013 48.5804 89.3013 47.8014C89.3013 47.1954 88.8796 46.8491 88.205 46.7626C88.1207 46.7626 88.0364 46.7626 87.8677 46.7626L87.6148 46.7626L87.6148 48.9267Z" fill="white"/>
<path d="M93.3482 46.4163L93.9385 46.4163L93.9385 51.7833L93.3482 51.7833L93.3482 46.4163Z" fill="white"/>
<path d="M98.0704 50.052L97.5644 51.7833L96.9741 51.7833L98.745 46.4163L99.4196 46.4163L101.19 51.7833L100.516 51.7833L100.01 50.052L98.0704 50.052ZM99.8412 49.6192L99.0823 46.9357L98.239 49.5326L99.8412 49.5326L99.8412 49.6192Z" fill="white"/>
<path d="M109.961 51.7833L109.371 51.7833L109.371 49.2729L107.768 46.4163L108.443 46.4163L109.708 48.667L110.973 46.4163L111.647 46.4163L110.045 49.2729L110.045 51.7833L109.961 51.7833Z" fill="white"/>
<path d="M118.73 46.4163L119.489 46.4163C119.742 46.4163 119.826 46.4163 119.911 46.4163C120.754 46.4163 121.344 46.676 121.682 47.1088C122.019 47.5417 122.188 48.1476 122.188 49.0133C122.188 49.2729 122.188 49.5326 122.103 49.7923C121.935 51.0908 121.176 51.6968 119.911 51.6968C119.826 51.6968 119.658 51.6968 119.489 51.6968L118.73 51.6968L118.73 46.4163ZM119.32 51.3505L119.742 51.3505C119.911 51.3505 119.995 51.3505 120.079 51.3505C120.754 51.3505 121.176 51.0042 121.344 50.3983C121.429 50.2252 121.429 50.052 121.513 49.7923C121.513 49.6192 121.513 49.3595 121.513 49.1864C121.513 48.9267 121.513 48.667 121.429 48.4073C121.344 47.8014 121.176 47.3685 120.838 47.1088C120.585 46.9357 120.164 46.8491 119.489 46.8491L119.236 46.8491L119.236 51.3505L119.32 51.3505Z" fill="white"/>
<path d="M126.066 51.3505L128.006 51.3505L128.006 51.7833L125.392 51.7833L125.392 46.4163L127.922 46.4163L127.922 46.8491L125.982 46.8491L125.982 48.7536L127.753 48.7536L127.753 49.1864L125.982 49.1864L125.982 51.3505L126.066 51.3505Z" fill="white"/>
<path d="M133.572 47.0223C133.15 46.8491 132.813 46.7626 132.391 46.7626C132.138 46.7626 131.97 46.8491 131.801 46.9357C131.632 47.1088 131.548 47.282 131.548 47.5417C131.548 47.8014 131.632 48.061 131.801 48.1476C131.885 48.2342 131.97 48.3207 132.138 48.4073L132.56 48.667L133.066 48.9267C133.235 49.0133 133.403 49.1864 133.572 49.3595C133.656 49.5326 133.825 49.6192 133.825 49.8789C133.909 50.052 133.909 50.1386 133.909 50.3117C133.909 50.8311 133.741 51.1774 133.319 51.5236C132.982 51.7833 132.56 51.8699 132.054 51.8699C131.717 51.8699 131.379 51.8699 130.958 51.6968L130.789 51.6968L130.789 51.0042L130.873 51.0908C131.295 51.3505 131.632 51.4371 132.054 51.4371C132.56 51.4371 132.897 51.2639 133.066 50.9177C133.15 50.7446 133.15 50.658 133.15 50.4849C133.15 50.3983 133.15 50.3117 133.15 50.2252C133.066 49.9655 132.729 49.7058 132.138 49.3595L131.632 49.0998C131.464 49.0133 131.295 48.8401 131.126 48.7536C131.042 48.667 130.958 48.4939 130.873 48.3207C130.789 48.1476 130.789 47.9745 130.789 47.8014C130.789 47.3685 130.958 47.0223 131.295 46.7626C131.548 46.5895 131.97 46.4163 132.476 46.4163C132.644 46.4163 132.729 46.4163 132.897 46.4163C133.066 46.4163 133.319 46.5029 133.488 46.5029L133.656 46.5029L133.572 47.0223Z" fill="white"/>
<path d="M137.282 50.052L136.776 51.7833L136.186 51.7833L137.957 46.4163L138.632 46.4163L140.402 51.7833L139.728 51.7833L139.222 50.052L137.282 50.052ZM139.053 49.6192L138.21 46.9357L137.367 49.5326L139.053 49.5326L139.053 49.6192Z" fill="white"/>
<path d="M144.028 51.7833L143.438 51.7833L143.438 46.4163L143.944 46.4163L144.449 46.4163C144.955 46.4163 145.377 46.5029 145.63 46.5895C145.799 46.676 145.967 46.7626 146.052 46.8491C146.305 47.1088 146.389 47.3685 146.389 47.8014C146.389 48.4939 146.052 48.8401 145.377 49.0132L145.208 49.0998L145.377 49.0998C145.799 49.1864 146.052 49.4461 146.136 49.7923C146.136 49.8789 146.22 50.052 146.22 50.1386L146.305 50.3983L146.558 51.7833L145.883 51.7833L145.714 50.658L145.63 50.3983C145.546 50.052 145.461 49.8789 145.377 49.7058C145.208 49.5326 145.04 49.3595 144.787 49.3595C144.618 49.3595 144.534 49.3595 144.449 49.3595L144.196 49.3595L144.028 49.3595L144.028 51.7833ZM144.028 48.9267L144.196 48.9267C145.208 48.9267 145.714 48.5804 145.714 47.8014C145.714 47.1954 145.293 46.8491 144.618 46.7626C144.534 46.7626 144.449 46.7626 144.281 46.7626L144.028 46.7626L144.028 48.9267Z" fill="white"/>
<path d="M150.353 51.7833L149.763 51.7833L149.763 46.4163L150.269 46.4163L150.775 46.4163C151.281 46.4163 151.702 46.5029 151.955 46.5895C152.124 46.676 152.293 46.7626 152.377 46.8491C152.63 47.1088 152.714 47.3685 152.714 47.8014C152.714 48.4939 152.377 48.8401 151.702 49.0132L151.534 49.0998L151.702 49.0998C152.124 49.1864 152.377 49.4461 152.461 49.7923C152.461 49.8789 152.546 50.052 152.546 50.1386L152.63 50.3983L152.883 51.7833L152.208 51.7833L152.04 50.658L151.955 50.3983C151.871 50.052 151.787 49.8789 151.702 49.7058C151.534 49.5326 151.365 49.3595 151.112 49.3595C151.028 49.3595 150.859 49.3595 150.775 49.3595L150.522 49.3595L150.353 49.3595L150.353 51.7833ZM150.353 48.9267L150.522 48.9267C151.534 48.9267 151.955 48.5804 152.04 47.8014C152.04 47.1954 151.702 46.8491 150.943 46.7626C150.859 46.7626 150.775 46.7626 150.606 46.7626L150.353 46.7626L150.353 48.9267Z" fill="white"/>
<path d="M158.87 50.9177C158.533 51.5236 158.027 51.7833 157.352 51.7833C157.1 51.7833 156.931 51.7833 156.762 51.6968C156.256 51.5236 155.919 51.1774 155.75 50.658C155.666 50.3983 155.582 50.1386 155.582 49.8789C155.497 49.6192 155.497 49.273 155.497 49.0133C155.497 48.7536 155.497 48.4939 155.582 48.1476C155.582 47.8879 155.666 47.6282 155.75 47.3686C156.003 46.676 156.594 46.3298 157.437 46.2432C157.605 46.2432 157.858 46.2432 158.027 46.3298C158.449 46.5029 158.87 46.8492 159.039 47.3686C159.208 47.8014 159.292 48.3208 159.292 49.0133C159.208 49.8789 159.123 50.5714 158.87 50.9177ZM158.617 49.1864C158.617 48.9267 158.617 48.667 158.533 48.3208C158.533 48.1476 158.449 47.8879 158.449 47.7148C158.364 47.4551 158.28 47.1954 158.027 47.0223C157.774 46.8492 157.605 46.676 157.268 46.676C157.015 46.676 156.847 46.7626 156.594 46.9357C156.425 47.1089 156.256 47.282 156.172 47.5417C156.088 47.8879 156.003 48.4073 156.003 49.0133C156.003 49.273 156.003 49.5327 156.003 49.7923C156.003 50.052 156.088 50.2252 156.172 50.4849C156.256 50.658 156.256 50.8311 156.425 51.0042C156.509 51.1774 156.678 51.2639 156.847 51.3505C157.015 51.4371 157.184 51.4371 157.352 51.4371C157.774 51.4371 158.027 51.2639 158.28 50.9177C158.449 50.658 158.533 50.3117 158.617 49.8789C158.617 49.6192 158.617 49.4461 158.617 49.1864Z" fill="white"/>
<path d="M165.026 51.3505L165.026 51.7833L162.581 51.7833L162.581 46.4164L163.171 46.4164L163.171 51.3505L165.026 51.3505Z" fill="white"/>
<path d="M170.423 51.3505L170.423 51.7833L167.977 51.7833L167.977 46.4164L168.568 46.4164L168.568 51.3505L170.423 51.3505Z" fill="white"/>
<path d="M176.494 50.9176C176.157 51.5235 175.651 51.7832 174.976 51.7832C174.723 51.7832 174.555 51.7832 174.386 51.6966C173.88 51.5235 173.543 51.1772 173.374 50.6579C173.29 50.3982 173.205 50.1385 173.205 49.8788C173.121 49.6191 173.121 49.2728 173.121 49.0131C173.121 48.7535 173.121 48.4938 173.205 48.1475C173.205 47.8878 173.29 47.6281 173.458 47.3684C173.711 46.6759 174.302 46.3297 175.145 46.2431C175.398 46.2431 175.566 46.2431 175.735 46.3297C176.157 46.5028 176.578 46.8491 176.747 47.3684C176.916 47.8013 177 48.3206 177 49.0131C176.916 49.8788 176.747 50.5713 176.494 50.9176ZM176.241 49.1863C176.241 48.9266 176.241 48.6669 176.157 48.3206C176.157 48.1475 176.072 47.8878 176.072 47.7147C175.988 47.455 175.904 47.1953 175.651 47.0222C175.398 46.8491 175.229 46.6759 174.976 46.6759C174.723 46.6759 174.555 46.7625 174.302 46.9356C174.133 47.1087 173.964 47.2819 173.88 47.5416C173.796 47.8878 173.711 48.4072 173.711 49.0131C173.711 49.2728 173.711 49.5325 173.711 49.7922C173.711 50.0519 173.796 50.225 173.88 50.4847C173.964 50.6579 173.964 50.831 174.133 51.0041C174.217 51.1772 174.386 51.2638 174.555 51.3504C174.723 51.4369 174.892 51.4369 175.061 51.4369C175.482 51.4369 175.735 51.2638 175.988 50.9176C176.157 50.6579 176.241 50.3116 176.325 49.8788C176.241 49.6191 176.241 49.446 176.241 49.1863Z" fill="white"/>
</svg>
