<svg width="68" height="68" viewBox="0 0 68 68" fill="none" xmlns="http://www.w3.org/2000/svg">
<path fill-rule="evenodd" clip-rule="evenodd" d="M27.2285 53.4286C26.6762 53.4286 26.2285 53.8763 26.2285 54.4286V59.2286C26.2285 59.7809 26.6762 60.2286 27.2285 60.2286H23.3428C22.7905 60.2286 22.3428 60.6763 22.3428 61.2286V66.0286C22.3428 66.5809 22.7905 67.0286 23.3428 67.0286H50.4856C51.0379 67.0286 51.4856 66.5809 51.4856 66.0286V61.2286C51.4856 60.6763 51.0379 60.2286 50.4856 60.2286H46.5999C47.1522 60.2286 47.5999 59.7809 47.5999 59.2286V54.4286C47.5999 53.8763 47.1522 53.4286 46.5999 53.4286H27.2285Z" fill="#C3DFE0"/>
<path d="M29.1426 12.7552C29.1426 12.1661 29.6493 11.7046 30.2359 11.7596L43.7788 13.0292C44.2926 13.0774 44.6854 13.5088 44.6854 14.0249V18.4285C44.6854 18.9808 44.2377 19.4285 43.6854 19.4285H30.1426C29.5903 19.4285 29.1426 18.9808 29.1426 18.4285V12.7552Z" fill="#C3DFE0"/>
<rect x="1.94238" y="50.5066" width="20.777" height="9.56507" rx="4.78254" transform="rotate(-43.7116 1.94238 50.5066)" fill="#C3DFE0"/>
<path d="M61.5293 10.1722C61.9477 9.81524 61.9976 9.18651 61.6406 8.76801C61.2836 8.34979 60.6551 8.29958 60.2362 8.65672L58.0859 10.4913C57.6675 10.8483 57.6176 11.477 57.9746 11.8955C58.1715 12.1264 58.4514 12.245 58.7329 12.245C58.9615 12.245 59.1913 12.1668 59.3789 12.0068L61.5293 10.1722Z" fill="#EC7836"/>
<path d="M57.1855 30.7671V31.9928C57.1855 32.5429 57.6314 32.9889 58.1816 32.9889C58.7319 32.9889 59.1777 32.5429 59.1777 31.9928V30.7671C59.1777 30.217 58.7319 29.771 58.1816 29.771C57.6314 29.771 57.1855 30.217 57.1855 30.7671V30.7671Z" fill="#EC7836"/>
<path d="M6.8249 51.3421C5.78753 52.3796 5.78753 54.0675 6.8249 55.1051C7.86466 56.1448 9.548 56.1452 10.588 55.1049C11.6254 54.0675 11.6254 52.3796 10.588 51.3421C9.54813 50.3022 7.86479 50.3021 6.8249 51.3421V51.3421ZM9.17919 53.6963C8.91876 53.9567 8.49616 53.9587 8.2336 53.6964C7.97289 53.4356 7.97289 53.0114 8.2336 52.7508C8.49403 52.4904 8.91676 52.4884 9.17919 52.7508C9.4399 53.0114 9.4399 53.4357 9.17919 53.6963V53.6963Z" fill="#EC7836"/>
<path d="M18.3954 47.2976C19.4354 46.2576 19.4355 44.5746 18.3955 43.5346C17.3556 42.4947 15.6725 42.4946 14.6325 43.5346C13.5925 44.5746 13.5926 46.2574 14.6325 47.2976C15.6723 48.3374 17.3553 48.3376 18.3954 47.2976ZM16.0412 44.9433C16.3031 44.6814 16.7258 44.6823 16.9867 44.9432V44.9433C17.248 45.2047 17.2483 45.6273 16.9867 45.8889C16.7253 46.1503 16.3027 46.1501 16.0411 45.8888C15.7802 45.6279 15.7793 45.2052 16.0412 44.9433Z" fill="#EC7836"/>
<path d="M11.4784 47.9937C11.0893 48.3827 11.0893 49.0134 11.4783 49.4023L12.5275 50.4517C12.7221 50.6462 12.9769 50.7435 13.2319 50.7435C13.4868 50.7435 13.7418 50.6462 13.9362 50.4518C14.3254 50.0628 14.3254 49.4321 13.9364 49.0432L12.8871 47.9938C12.4979 47.6048 11.8671 47.6047 11.4784 47.9937Z" fill="#EC7836"/>
<path d="M32.5449 15.4846H37.1828C37.7331 15.4846 38.1789 15.0386 38.1789 14.4885C38.1789 13.9384 37.7331 13.4924 37.1828 13.4924H32.5449C31.9947 13.4924 31.5488 13.9384 31.5488 14.4885C31.5488 15.0386 31.9947 15.4846 32.5449 15.4846Z" fill="#EC7836"/>
<path d="M67.0028 66.0079H50.4449V62.0208C50.4449 60.9884 49.6049 60.1484 48.5723 60.1484H46.6757V55.8417C46.6757 54.9856 45.9791 54.2891 45.123 54.2891H43.8726L39.2476 18.5533H40.9915C42.2469 18.5533 43.2683 17.532 43.2683 16.2766V12.4132L53.9091 13.5557V43.0919C53.9091 43.448 54.0991 43.7769 54.4075 43.9548C54.7112 44.1299 55.0913 44.1351 55.4041 43.954C58.3501 42.2491 60.718 39.5607 62.4426 35.963C62.6804 35.467 62.4711 34.872 61.9749 34.6343C61.4793 34.3963 60.884 34.6056 60.6462 35.1019C59.4075 37.6858 57.8158 39.7376 55.9011 41.2232C55.9011 39.9892 55.9011 10.761 55.9011 9.23163L62.3182 3.75687C64.2808 15.1258 64.1882 24.4505 62.0423 31.4806C61.8816 32.0068 62.1779 32.5635 62.7041 32.7241C63.23 32.8845 63.7868 32.5885 63.9474 32.0623C66.2219 24.6118 66.3002 14.7804 64.1804 2.84116C64.0764 2.256 63.664 1.76767 63.1043 1.56699C62.5447 1.36632 61.9164 1.48107 61.4642 1.86674L54.624 7.70234L25.6151 2.04563C25.0744 1.94032 24.5521 2.29279 24.4467 2.83266C24.3414 3.37252 24.6938 3.89565 25.2338 4.00097L53.9089 9.59273V11.5523C52.3098 11.3805 8.50363 6.67653 7.02601 6.51795L7.26267 6.08726C8.92291 3.06706 12.3112 1.4812 15.6941 2.14072L21.2512 3.22444C21.7924 3.33016 22.3142 2.97728 22.4196 2.43742C22.5249 1.89755 22.1725 1.37442 21.6325 1.2691L16.0754 0.185387C11.8394 -0.640814 7.59602 1.34547 5.51704 5.12758L4.55989 6.86883C4.39932 7.16075 4.39547 7.51362 4.54953 7.80912C4.70359 8.10462 4.9951 8.30343 5.32646 8.33902L8.51545 8.6814V10.5438C8.51545 11.7622 9.50673 12.7534 10.7253 12.7534H11.7792V42.2678L7.67053 46.3764C7.28153 46.7655 7.28153 47.3961 7.67053 47.7851C8.05952 48.1738 8.6901 48.1741 9.07922 47.7851L14.3306 42.5337C15.7304 41.1339 17.9965 41.1338 19.3967 42.5337C20.7935 43.9306 20.7935 46.2032 19.3967 47.5998L11.0849 55.9115C9.68842 57.3083 7.41553 57.3085 6.01879 55.9115C4.62191 54.5148 4.62191 52.2421 6.01879 50.8454L6.26316 50.601C6.65215 50.2119 6.65215 49.5813 6.26316 49.1923C5.87403 48.8035 5.24345 48.8035 4.85446 49.1923L4.61009 49.4367C2.43668 51.6102 2.43668 55.1467 4.61009 57.3202C4.80333 57.5134 5.00785 57.6887 5.22074 57.8476L2.56644 66.0076H0.997039C0.446814 66.0076 0.000976562 66.4534 0.000976562 67.0037C0.000976562 67.5539 0.446814 67.9997 0.997039 67.9997H67.0028C67.553 67.9997 67.9989 67.5539 67.9989 67.0037C67.9989 66.4534 67.5529 66.0079 67.0028 66.0079V66.0079ZM44.6836 60.1484H25.0458V56.2812H44.6836V60.1484ZM41.1061 48.4341L30.8976 44.4737L40.0819 40.5202L41.1061 48.4341ZM39.693 37.5154L31.7889 33.7001L38.7054 29.8848L39.693 37.5154ZM37.2852 18.9118L38.2635 26.4704L32.7277 22.8806L37.2852 18.9118ZM34.5948 18.6131L32.2146 20.6858L32.4828 18.6131H34.5948ZM31.7087 24.5941L37.4375 28.3092L30.7504 31.9978L31.7087 24.5941ZM30.3347 35.2103L38.3693 39.0885L29.329 42.98L30.3347 35.2103ZM28.9567 45.8575L39.7743 50.0543L31.9988 54.2772C31.9919 54.2809 31.9857 54.2854 31.979 54.2893H27.8654L28.9567 45.8575ZM36.1507 54.2891L41.4887 51.3902L41.8639 54.2891H36.1507ZM41.2761 16.2767C41.2761 16.4337 41.1483 16.5613 40.9913 16.5613H28.7378C28.5808 16.5613 28.4532 16.4337 28.4532 16.2767V10.8223L41.276 12.1992V16.2767H41.2761ZM10.5074 10.5438V8.89536L15.0426 9.38237V10.5439C15.0426 10.6638 14.9451 10.7614 14.825 10.7614H10.7251C10.6052 10.7613 10.5074 10.6637 10.5074 10.5438ZM20.8053 49.0087C22.9785 46.8353 22.9785 43.2988 20.8053 41.1253C18.8671 39.1872 15.9041 38.999 13.7711 40.427V12.7534H14.8252C16.0436 12.7534 17.0348 11.7622 17.0348 10.5438V9.59619L26.4613 10.6085V16.2767C26.4613 17.5322 27.4826 18.5534 28.738 18.5534H30.4821L25.8569 54.2893H24.6065C23.7504 54.2893 23.054 54.9857 23.054 55.8418V60.1485H21.1572C20.1248 60.1485 19.2847 60.9884 19.2847 62.021V66.008H15.7603L12.8261 56.9879L20.8053 49.0087ZM4.66109 66.0079L7.02587 58.7381C7.52404 58.879 8.03774 58.9506 8.55184 58.9504C9.44949 58.9503 10.347 58.7351 11.1601 58.3054L13.6655 66.0079H4.66109ZM21.2766 66.0079V62.1406H48.4528V66.0079H21.2766Z" fill="#EC681C"/>
</svg>
