<svg width="68" height="68" viewBox="0 0 68 68" fill="none" xmlns="http://www.w3.org/2000/svg">
<path d="M40.069 59.7017C40.1878 60.4942 40.6697 61.1857 41.372 61.571C42.0743 61.9569 42.9161 61.9927 43.6485 61.6675L54.4866 56.88C55.0234 56.6435 55.2905 56.0366 55.1028 55.4806L49.6643 39.3218C48.7939 36.7724 46.1994 35.235 43.5453 35.6956L41.8455 36.0006C38.9346 36.5084 36.9678 39.2564 37.4268 42.1761L40.069 59.7017ZM42.7341 59.5938C42.648 59.6342 42.5479 59.6301 42.4654 59.5824C42.3798 59.5373 42.3212 59.4527 42.3093 59.3562L39.6598 41.8452C39.6053 41.4681 39.6183 41.0843 39.6987 40.7119L41.6147 42.2259C42.5401 42.9474 43.2305 43.9277 43.5977 45.0429L47.7503 57.3842L42.7341 59.5938ZM42.2403 38.2398L43.9395 37.9348C44.1221 37.9021 44.3073 37.886 44.4929 37.886C45.8576 37.8897 47.0703 38.7579 47.5133 40.049L52.625 55.2326L49.8298 56.4666L45.7445 44.3277C45.2383 42.7934 44.2881 41.4437 43.0142 40.4504L40.9368 38.8072C41.3227 38.5219 41.7683 38.328 42.2403 38.2398V38.2398Z" fill="#EC681C"/>
<path d="M2.90509 10.7632L19.8253 15.7488C20.0541 15.8168 20.2667 15.9304 20.4498 16.0829L26.4179 21.0551L27.3801 21.8596L35.1776 62.3896C35.5718 64.4498 36.8841 66.2181 38.7425 67.1911C40.601 68.1637 42.8018 68.2352 44.7194 67.3851L55.5917 62.582C56.6509 63.8367 58.3983 64.2652 59.9181 63.6428L65.6528 61.2905C67.5838 60.499 68.5076 58.2924 67.7172 56.3614L57.2733 30.8677L58.0482 29.9724C59.4938 28.2981 59.3118 25.77 57.6416 24.3197L45.692 13.9666C44.8875 13.27 43.8392 12.922 42.7785 12.9987C41.7172 13.0755 40.7301 13.5709 40.0341 14.3754L38.1014 16.6109L33.7579 12.992H33.7512L25.7062 6.44819C25.2939 6.11208 24.8182 5.86207 24.3079 5.71269L5.97885 0.310514C3.85637 -0.312953 1.62962 0.900785 1.00356 3.02275L0.19233 5.77752C-0.110586 6.79831 0.00560124 7.89741 0.514438 8.83313C1.02327 9.76834 1.88326 10.4629 2.90509 10.7632V10.7632ZM39.088 18.9393L41.7489 15.8619C42.0513 15.5123 42.4802 15.2971 42.9419 15.2634C43.403 15.2302 43.8589 15.3816 44.2085 15.684L56.1581 26.0329C56.8843 26.6632 56.9631 27.7617 56.335 28.4895L55.1046 29.9122C54.8246 30.2354 54.7499 30.6887 54.9117 31.084L65.6206 57.2146C65.937 57.9869 65.5672 58.8698 64.7948 59.1862L59.0581 61.5374C58.6867 61.6894 58.2702 61.6878 57.8999 61.5327C57.5301 61.3776 57.237 61.0815 57.085 60.7101C56.9693 60.4269 56.7442 60.2023 56.46 60.0876C56.1763 59.973 55.8583 59.9777 55.5782 60.1016L43.8039 65.3036C42.5176 65.8721 41.0424 65.8228 39.797 65.1703C38.5511 64.5178 37.6709 63.3331 37.4053 61.9518L29.5316 21.0255C29.4818 20.7687 29.3449 20.5369 29.1441 20.3694L28.7883 20.0727L33.1292 15.4179L37.5075 19.0643C37.9816 19.4585 38.6844 19.401 39.088 18.9352V18.9393ZM2.36565 6.42122L3.17481 3.66437C3.305 3.22037 3.60688 2.84692 4.01301 2.62543C4.41915 2.40447 4.89634 2.35364 5.33983 2.48487L23.6574 7.87719C23.8794 7.94254 24.0859 8.05095 24.2648 8.1967L31.3761 13.9754L27.0455 18.6214L21.9001 14.3323C21.48 13.9811 20.9924 13.7202 20.4669 13.5662L3.54412 8.58416C2.62136 8.31185 2.09437 7.34397 2.36565 6.42122Z" fill="#EC681C"/>
<path d="M10.5002 36.9983C12.2353 37.0393 13.911 36.334 15.1383 35.0455C16.3656 33.757 17.0379 31.9978 16.9984 30.1757C16.9984 27.0687 13.4019 21.4579 11.9026 19.642C11.5405 19.2324 11.0323 19 10.5002 19C9.96771 19 9.45945 19.2324 9.09738 19.642C7.5981 21.4579 4.00162 27.0687 4.00162 30.1757C3.96252 31.9978 4.63439 33.757 5.86169 35.0455C7.08899 36.334 8.76463 37.0393 10.5002 36.9983ZM10.9641 25.8812C12.6015 27.8639 9.09738 24.4852 9.09738 26.7414C9.1403 28.0473 9.38628 32.2685 8.50617 33.1925C7.62649 34.1165 8.09652 35.1361 10.5002 35.0491C9.25632 35.0941 13.0731 28.9556 12.193 28.0316C11.3129 27.1076 13.7887 26.757 13.8316 25.4511C13.8316 23.1958 13.8316 22.8707 10.9641 25.8812Z" fill="#C3DFE0"/>
<path d="M7.9338 39.0904C10.0516 39.1382 12.0968 38.3181 13.5948 36.8201C15.0928 35.3221 15.9134 33.2769 15.8651 31.1586C15.8651 27.5464 11.4754 21.0234 9.64549 18.9123C9.20356 18.4361 8.58321 18.1659 7.9338 18.1659C7.28388 18.1659 6.66353 18.4361 6.2216 18.9123C4.39166 21.0234 0.00197208 27.5464 0.00197208 31.1586C-0.0457475 33.2769 0.774304 35.3221 2.27229 36.8201C3.77027 38.3181 5.81547 39.1382 7.9338 39.0904ZM7.9338 20.3942C9.93232 22.6993 13.599 28.5356 13.599 31.1586C13.6513 32.6768 13.0714 34.1483 11.9972 35.2226C10.9235 36.2968 9.4515 36.8767 7.9338 36.8243C6.41559 36.8767 4.94407 36.2968 3.86986 35.2226C2.79565 34.1483 2.21575 32.6768 2.26814 31.1586C2.26814 28.5366 5.9358 22.7003 7.9338 20.3942V20.3942Z" fill="#EC681C"/>
<path d="M32.4876 21.2791C32.1961 21.3538 31.9456 21.541 31.7921 21.7998C31.6385 22.0592 31.5945 22.3688 31.6697 22.6603L32.2361 24.8793C32.3647 25.3803 32.816 25.731 33.3331 25.7315C33.428 25.732 33.5224 25.7201 33.6142 25.6962C34.2206 25.5417 34.5868 24.9244 34.4322 24.3181L33.8658 22.0986C33.7916 21.8071 33.6049 21.5571 33.3466 21.4035C33.0883 21.25 32.7791 21.2049 32.4876 21.2791V21.2791Z" fill="#EC681C"/>
<path d="M33.457 28.587L35.0629 35.3855C35.1837 35.8964 35.6402 36.2579 36.1651 36.2579C36.2532 36.2584 36.3404 36.248 36.426 36.2273C37.0339 36.0841 37.4115 35.4757 37.2699 34.8673L35.6645 28.0688C35.5712 27.6746 35.275 27.3598 34.887 27.2436C34.499 27.1269 34.0784 27.2264 33.7832 27.5039C33.4886 27.782 33.3641 28.1959 33.457 28.5901V28.587Z" fill="#EC681C"/>
</svg>
