<svg width="73" height="73" viewBox="0 0 73 73" fill="none" xmlns="http://www.w3.org/2000/svg">
<path fill-rule="evenodd" clip-rule="evenodd" d="M36.5 73C56.6584 73 73 56.6584 73 36.5C73 16.3416 56.6584 0 36.5 0C16.3416 0 0 16.3416 0 36.5C0 56.6584 16.3416 73 36.5 73ZM46.761 22.7121H55.1705C56.1913 22.7121 57.0218 23.5425 57.0218 24.5634V47.7151C57.0218 48.7359 56.1913 49.5664 55.1705 49.5664H42.1367C42.3712 51.7614 43.8345 53.0609 44.2882 53.4141H46.8412C47.8357 53.4141 48.6448 54.2233 48.6448 55.2178C48.6448 56.2123 47.8357 57.0214 46.8412 57.0214H26.1594C25.1649 57.0214 24.3558 56.2123 24.3558 55.2178C24.3558 54.2233 25.1649 53.4141 26.1594 53.4141H28.7139C29.1736 53.0597 30.6319 51.7718 30.8645 49.5664H17.8301C16.8093 49.5664 15.9788 48.7359 15.9788 47.7151V24.5634C15.9788 23.5425 16.8093 22.7121 17.8301 22.7121H31.0393V21.5097H25.6484C25.3161 21.5097 25.0472 21.2407 25.0472 20.9085V19.4825C24.3473 19.2342 23.8447 18.5659 23.8447 17.7822C23.8447 16.7877 24.6539 15.9785 25.6484 15.9785C26.6429 15.9785 27.452 16.7877 27.452 17.7822C27.452 18.5659 26.9494 19.2342 26.2496 19.4825V20.3073H31.6405C31.9727 20.3073 32.2417 20.5762 32.2417 20.9085V22.7121H35.8991V19.4825C35.1992 19.2342 34.6966 18.5659 34.6966 17.7822C34.6966 16.7877 35.5058 15.9785 36.5003 15.9785C37.4948 15.9785 38.3039 16.7877 38.3039 17.7822C38.3039 18.5659 37.8014 19.2342 37.1015 19.4825V22.7121H40.7589V20.9085C40.7589 20.5762 41.0279 20.3073 41.3601 20.3073H46.751V19.4825C46.0511 19.2342 45.5486 18.5659 45.5486 17.7822C45.5486 16.7877 46.3577 15.9785 47.3522 15.9785C48.3467 15.9785 49.1559 16.7877 49.1559 17.7822C49.1559 18.5659 48.6533 19.2342 47.9534 19.4825V20.9085C47.9534 21.2407 47.6844 21.5097 47.3522 21.5097H41.9613V22.7121H44.1958C44.5281 22.7121 44.7971 22.9811 44.7971 23.3133C44.7971 23.6456 44.5281 23.9145 44.1958 23.9145H41.9613V25.117H54.0157C54.3479 25.117 54.6169 25.386 54.6169 25.7182V46.5603C54.6169 46.8925 54.3479 47.1615 54.0157 47.1615H18.9849C18.6527 47.1615 18.3837 46.8925 18.3837 46.5603V44.1689C18.3837 43.8367 18.6527 43.5677 18.9849 43.5677C19.3171 43.5677 19.5861 43.8367 19.5861 44.1689V45.9591H53.4145V26.3194H41.9613V29.5447L44.5353 30.7743C44.7438 30.8742 44.8772 31.0878 44.8772 31.317V41.1218C44.8772 41.3535 44.7441 41.5646 44.5353 41.6645L43.3 42.2544C43.0006 42.3975 42.6414 42.2707 42.4983 41.971C42.3552 41.6717 42.4821 41.3125 42.7817 41.1694L43.6748 40.7429V32.2705L37.1015 35.4109V43.8833L40.6123 42.2059C40.9117 42.0628 41.2712 42.1896 41.4143 42.4893C41.5574 42.7886 41.4306 43.1478 41.1309 43.2909L36.7596 45.3795C36.5996 45.4546 36.4095 45.4587 36.241 45.3795L28.4653 41.6645C28.2564 41.5646 28.1234 41.3535 28.1234 41.1218V31.317C28.1234 31.085 28.2599 30.8727 28.4653 30.7743L31.0393 29.5447V26.3194H19.5861V41.6037C19.5861 41.9356 19.3171 42.2049 18.9849 42.2049C18.6527 42.2049 18.3837 41.9356 18.3837 41.6037V25.7182C18.3837 25.386 18.6527 25.117 18.9849 25.117H31.0393V23.9145H17.8301C17.4722 23.9145 17.1813 24.2055 17.1813 24.5634V47.7151C17.1813 48.073 17.4722 48.3639 17.8301 48.3639H55.1705C55.5284 48.3639 55.8193 48.073 55.8193 47.7151V24.5634C55.8193 24.2055 55.5284 23.9145 55.1705 23.9145H46.761C46.4288 23.9145 46.1598 23.6456 46.1598 23.3133C46.1598 22.9811 46.4288 22.7121 46.761 22.7121ZM47.9534 17.7822C47.9534 17.4506 47.6838 17.1809 47.3522 17.1809C47.0206 17.1809 46.751 17.4506 46.751 17.7822C46.751 18.1138 47.0206 18.3834 47.3522 18.3834C47.6838 18.3834 47.9534 18.1138 47.9534 17.7822ZM37.1015 17.7822C37.1015 17.4506 36.8319 17.1809 36.5003 17.1809C36.1687 17.1809 35.8991 17.4506 35.8991 17.7822C35.8991 18.1138 36.1687 18.3834 36.5003 18.3834C36.8319 18.3834 37.1015 18.1138 37.1015 17.7822ZM26.2496 17.7822C26.2496 17.4506 25.98 17.1809 25.6484 17.1809C25.3168 17.1809 25.0472 17.4506 25.0472 17.7822C25.0472 18.1138 25.3168 18.3834 25.6484 18.3834C25.98 18.3834 26.2496 18.1138 26.2496 17.7822ZM35.8991 26.3194H32.2417V28.9704L35.8991 27.2228V26.3194ZM36.5003 34.3654L42.8813 31.317L36.5003 28.2683L30.1193 31.317L36.5003 34.3654ZM35.8991 35.4109L29.3258 32.2705V40.7429L35.8991 43.8833V35.4109ZM37.1015 27.2228L40.7589 28.9704V26.3194H37.1015V27.2228ZM40.7589 25.117V23.9145H37.1015V25.117H40.7589ZM35.8991 25.117V23.9145H32.2417V25.117H35.8991ZM46.8412 55.819C47.1728 55.819 47.4424 55.5494 47.4424 55.2178C47.4424 54.8862 47.1728 54.6166 46.8412 54.6166H26.1594C25.8278 54.6166 25.5582 54.8862 25.5582 55.2178C25.5582 55.5494 25.8278 55.819 26.1594 55.819H46.8412ZM32.0735 49.5664C31.9235 51.308 31.1417 52.5909 30.4368 53.4141H42.5638C41.8589 52.5909 41.077 51.308 40.927 49.5664H32.0735Z" fill="#EC681C"/>
</svg>
