<svg width="175" height="177" viewBox="0 0 175 177" fill="none" xmlns="http://www.w3.org/2000/svg">
<g clip-path="url(#clip0)">
<path d="M172.509 46.4786C172.508 46.4786 172.508 46.4786 172.508 46.4786L172.502 46.4727L161.206 44.8427C159.619 44.614 158.515 43.1268 158.741 41.521C158.85 40.7493 159.257 40.0532 159.873 39.5855L169.003 32.6602C170.286 31.6869 170.546 29.8462 169.584 28.5484L159.13 14.451C158.168 13.1532 156.348 12.8903 155.065 13.8636L145.938 20.7889C144.661 21.7695 142.839 21.5169 141.87 20.2247C141.399 19.5973 141.197 18.8047 141.31 18.0253L142.924 6.60046C143.152 4.99467 142.049 3.50673 140.462 3.27618C140.461 3.27618 140.46 3.27581 140.459 3.27581L123.222 0.785264C121.635 0.554712 120.163 1.66929 119.935 3.27508C119.935 3.27544 119.935 3.27544 119.935 3.27581L118.32 14.7006C118.094 16.3064 116.624 17.4228 115.036 17.1941C114.273 17.0843 113.585 16.6721 113.123 16.0487L106.278 6.81486C105.316 5.51708 103.496 5.25423 102.213 6.22746L93.4872 12.8503C89.5396 12.4259 85.5585 12.4259 81.6108 12.8503C55.7577 15.8391 35.4838 36.6923 32.9637 62.8874C32.8853 63.7186 32.8563 64.5439 32.8156 65.3692H31.9445C30.5667 65.3717 29.3801 66.3534 29.1046 67.7187L27.0981 77.3696L19.0604 71.7629C17.9069 70.9578 16.349 71.1014 15.3581 72.1036L6.64676 80.9145C5.6573 81.9164 5.51574 83.4899 6.30992 84.6562L11.8271 92.7711L2.28238 94.8005C0.947365 95.0964 -0.00289714 96.2936 6.6367e-06 97.6758V109.424C-0.000719309 110.813 0.961521 112.013 2.30561 112.299L11.8503 114.328L6.33315 122.443C5.53897 123.61 5.68053 125.183 6.66999 126.185L15.3813 134.996C16.3723 135.998 17.9301 136.142 19.0837 135.337L27.1068 129.742L29.1133 139.395C29.3888 140.761 30.5754 141.742 31.9532 141.745H43.5683C44.9418 141.746 46.128 140.772 46.4111 139.413L48.4177 129.759L56.4408 135.339C57.594 136.143 59.1497 136 60.1402 134.999L64.6498 130.423V138.793C64.6629 142.972 66.8759 146.826 70.4574 148.908V165.226C70.4574 171.714 75.6577 176.974 82.0725 176.974H93.6876C100.102 176.974 105.303 171.714 105.303 165.226V148.908C108.884 146.826 111.097 142.972 111.11 138.793V127.169C111.189 122.278 113.719 117.762 117.827 115.18C120.237 113.599 122.522 111.831 124.662 109.894L120.789 105.518C118.874 107.253 116.828 108.835 114.67 110.249C108.905 113.909 105.375 120.284 105.303 127.169V138.793C105.303 142.038 102.703 144.667 99.4952 144.667H76.2649C73.0573 144.667 70.4574 142.038 70.4574 138.793V126.925C70.3902 120.17 66.9162 113.919 61.2466 110.349C38.2315 95.722 31.2973 64.9943 45.7589 41.7163C54.7316 27.2734 70.3909 18.4827 87.2557 18.4218C87.2125 18.5264 87.1744 18.6332 87.1425 18.7419C87.0347 19.5128 87.2343 20.2959 87.6971 20.9182L94.5413 30.1491C95.2629 31.0937 95.3322 32.3911 94.7155 33.4091C94.1217 34.4334 92.9736 34.9921 91.8118 34.8218L80.5161 33.1888C78.9284 32.9586 77.4573 34.0736 77.2293 35.679C77.2293 35.6801 77.229 35.6812 77.229 35.6823L74.7637 53.125C74.5361 54.7304 75.6384 56.2187 77.2257 56.4492C77.2268 56.4492 77.2279 56.4496 77.229 56.4496L88.5247 58.0826C90.1123 58.3113 91.2161 59.7985 90.99 61.4043C90.8815 62.1759 90.4738 62.872 89.8575 63.3397L80.7309 70.2622C79.4478 71.2354 79.1879 73.0761 80.1502 74.3739L90.6038 88.4714C91.566 89.7691 93.386 90.032 94.6691 89.0587L103.799 82.1363C105.083 81.1649 106.903 81.4303 107.863 82.7296C108.323 83.3511 108.52 84.1316 108.413 84.9L106.801 96.3248C106.573 97.9302 107.675 99.4189 109.263 99.6495C109.263 99.6495 109.263 99.6495 109.263 99.6495L126.512 102.143C126.648 102.161 126.785 102.169 126.921 102.169C128.367 102.171 129.594 101.097 129.799 99.6495L131.411 88.2246C131.637 86.6189 133.107 85.5024 134.695 85.7312C135.458 85.8409 136.146 86.2532 136.608 86.8766L143.456 96.1075C144.418 97.4052 146.238 97.6681 147.521 96.6949L161.459 86.1218C162.742 85.1485 163.002 83.3078 162.04 82.01L155.195 72.7791C154.477 71.8331 154.408 70.5379 155.021 69.5191C155.602 68.4813 156.761 67.9188 157.925 68.1094L169.221 69.7394C170.808 69.9699 172.28 68.855 172.508 67.2496C172.508 67.2492 172.508 67.2492 172.508 67.2488L174.97 49.8032C175.198 48.1975 174.096 46.7091 172.509 46.4786ZM76.2649 150.541H99.4952V156.415H76.2649V150.541ZM76.2649 162.289H99.4952V165.226C99.4952 168.47 96.8952 171.1 93.6876 171.1H82.0725C78.8649 171.1 76.2649 168.47 76.2649 165.226V162.289ZM53.1479 111.641C54.7334 112.952 56.39 114.173 58.1105 115.298C60.8542 117.051 62.9195 119.705 63.9616 122.813L57.733 129.101L51.7018 124.896C49.0608 123.055 45.4445 123.728 43.6242 126.399C43.1879 127.04 42.8816 127.762 42.7233 128.523L41.2018 135.856H34.2995L32.7779 128.535C32.1173 125.36 29.0375 123.328 25.8988 123.996C25.1464 124.156 24.4328 124.466 23.7994 124.907L17.7653 129.101L12.4747 123.762L16.63 117.665C18.4517 114.995 17.7882 111.337 15.1483 109.494C14.5146 109.052 13.8002 108.741 13.0467 108.581L5.80757 107.039V100.061L13.0467 98.5187C16.1842 97.8458 18.1886 94.7278 17.5232 91.5541C17.3653 90.8011 17.063 90.0871 16.6329 89.4523L12.4747 83.3375L17.7653 77.9981L23.8023 82.2039C26.4444 84.0428 30.0607 83.3673 31.8788 80.695C32.3144 80.0551 32.62 79.3341 32.7779 78.5738L33.286 76.1302C33.7514 79.5143 34.522 82.8478 35.5887 86.0895C26.0342 87.2415 19.2122 96.0098 20.3512 105.674C21.4902 115.337 30.1594 122.237 39.7139 121.085C45.4656 120.391 50.5004 116.852 53.1479 111.641ZM48.6383 107.503C46.4699 113.599 39.8265 116.763 33.7993 114.57C27.7721 112.377 24.644 105.657 26.8121 99.5613C28.4709 94.8978 32.8487 91.7916 37.7488 91.8019C37.7865 91.8019 37.8214 91.8019 37.8591 91.8019C40.5295 97.6255 44.1763 102.937 48.6383 107.503ZM167.153 63.5013L158.732 62.2853C153.969 61.5974 149.557 64.9451 148.877 69.7621C148.55 72.0754 149.145 74.4253 150.532 76.2947L155.634 83.176L146.342 90.2247L141.237 83.3463C138.351 79.453 132.89 78.6633 129.042 81.5827C127.193 82.9844 125.971 85.0714 125.644 87.3847L124.468 95.9136L112.972 94.2513L114.174 85.7341C114.856 80.9171 111.548 76.4529 106.785 75.7635C104.497 75.432 102.172 76.034 100.323 77.4372L93.5192 82.5974L86.5501 73.1991L93.3508 68.0359C97.2001 65.1166 97.9809 59.594 95.0945 55.701C93.7087 53.8317 91.6452 52.5956 89.3581 52.2644L80.9371 51.0485L82.5806 39.4211L91.0016 40.637C95.7642 41.3268 100.178 37.9808 100.86 33.1639C101.187 30.8492 100.592 28.4981 99.2048 26.6276L94.0854 19.7404L103.378 12.6917L108.482 19.573C111.369 23.4664 116.829 24.256 120.678 21.3367C122.526 19.935 123.748 17.8479 124.076 15.5347L125.278 7.01751L136.774 8.67689L135.572 17.1941C134.892 22.0115 138.201 26.4742 142.964 27.1622C145.251 27.4926 147.575 26.8905 149.423 25.4881L156.226 20.3278L163.195 29.7261L156.392 34.8893C152.543 37.8087 151.762 43.3313 154.648 47.2242C156.034 49.0936 158.097 50.3297 160.385 50.6608L168.806 51.8767L167.153 63.5013Z" fill="#0E2829"/>
<path d="M124.862 27.964C112.032 27.964 101.632 38.4835 101.632 51.4597C101.632 64.436 112.032 74.9555 124.862 74.9555C137.692 74.9555 148.092 64.436 148.092 51.4597C148.078 38.4893 137.686 27.9783 124.862 27.964ZM124.862 69.0815C115.24 69.0815 107.439 61.1921 107.439 51.4597C107.439 41.7274 115.24 33.8379 124.862 33.8379C134.484 33.8379 142.285 41.7274 142.285 51.4597C142.273 61.1873 134.48 69.0701 124.862 69.0815Z" fill="#0E2829"/>
<path d="M90.7841 129.982H84.9766V138.793H90.7841V129.982Z" fill="#0E2829"/>
<path d="M75.1785 101.138C57.2531 94.056 48.3984 73.6169 55.4012 55.4866C58.1148 48.4614 62.9848 42.5019 69.2954 38.4842L66.1913 33.5148C47.1948 45.6192 41.4964 71.0074 53.464 90.221C58.0988 97.6622 64.9706 103.404 73.0704 106.604C80.2398 109.383 84.974 116.343 84.9759 124.108H90.7834C90.7925 113.92 84.5849 104.783 75.1785 101.138Z" fill="#0E2829"/>
<path d="M163.378 109.424H143.052V115.298H163.378V109.424Z" fill="#0E2829"/>
<path d="M142.007 124.787L138.29 129.3L155.714 143.982L159.431 139.47L142.007 124.787Z" fill="#0E2829"/>
<path d="M131.436 132.919H125.629V153.478H131.436V132.919Z" fill="#0E2829"/>
<path d="M26.1935 44.8965L2.96484 50.7695L4.37247 56.4649L27.6011 50.592L26.1935 44.8965Z" fill="#0E2829"/>
<path d="M11.1627 15.9916L7.78906 20.7688L28.1139 35.4521L31.4876 30.6749L11.1627 15.9916Z" fill="#0E2829"/>
<path d="M38.2953 0.0245184L32.6689 1.47949L38.6079 24.9734L44.2343 23.5184L38.2953 0.0245184Z" fill="#0E2829"/>
</g>
<defs>
<clipPath id="clip0">
<rect width="175" height="177" fill="white"/>
</clipPath>
</defs>
</svg>
