<svg width="179" height="179" viewBox="0 0 179 179" fill="none" xmlns="http://www.w3.org/2000/svg">
<path d="M128.656 19.5781C111.693 19.5781 97.8906 33.3807 97.8906 50.3438C97.8906 67.3068 111.693 81.1094 128.656 81.1094C145.619 81.1094 159.422 67.3068 159.422 50.3438C159.422 33.3807 145.619 19.5781 128.656 19.5781ZM128.656 75.5156C114.778 75.5156 103.484 64.2218 103.484 50.3438C103.484 36.4657 114.778 25.1719 128.656 25.1719C142.534 25.1719 153.828 36.4657 153.828 50.3438C153.828 64.2218 142.534 75.5156 128.656 75.5156Z" fill="#103638"/>
<path d="M168.556 37.4613C167.863 35.3022 167.001 33.2129 165.986 31.2271L169.656 24.0979L154.905 9.34716L147.776 13.0167C145.79 12.0014 143.701 11.14 141.541 10.4463L139.086 2.79688H118.224L115.774 10.4435C113.615 11.1372 111.525 11.9986 109.54 13.0139L102.41 9.34436L87.6597 24.0951L91.0886 30.7656H11.1875C6.56147 30.7656 2.79688 34.5302 2.79688 39.1562V156.625C2.79688 161.251 6.56147 165.016 11.1875 165.016H110.994C114.143 171.619 120.867 176.203 128.656 176.203C139.452 176.203 148.234 167.421 148.234 156.625C148.234 146.783 140.926 138.635 131.453 137.271V103.484H125.859V137.271C116.386 138.635 109.078 146.783 109.078 156.625C109.078 157.576 109.17 158.505 109.302 159.422H11.1875C9.64642 159.422 8.39062 158.166 8.39062 156.625V69.9219H91.0914L87.6597 76.5896L102.41 91.3403L109.54 87.6708C111.525 88.6861 113.615 89.5475 115.774 90.2412L118.227 97.8906H139.089L141.539 90.244C143.698 89.5503 145.787 88.6889 147.773 87.6736L154.902 91.3431L169.653 76.5924L165.983 69.466C166.999 67.483 167.857 65.3937 168.554 63.2318L176.203 60.7733V39.9114L168.556 37.4613ZM128.656 142.641C136.367 142.641 142.641 148.914 142.641 156.625C142.641 164.336 136.367 170.609 128.656 170.609C120.945 170.609 114.672 164.336 114.672 156.625C114.672 148.914 120.945 142.641 128.656 142.641ZM8.39062 39.1562C8.39062 37.6152 9.64642 36.3594 11.1875 36.3594H89.1616C89.0301 36.7286 88.8791 37.0866 88.7588 37.4613L81.1094 39.9142V60.7761L88.756 63.2262C88.8763 63.6009 89.0301 63.9589 89.1588 64.3281H8.39062V39.1562ZM170.609 56.6955L164.02 58.8071L163.612 60.2531C162.831 63.0164 161.746 65.6455 160.387 68.0703L159.651 69.3821L162.812 75.5212L153.831 84.502L147.692 81.3443L146.383 82.0771C143.952 83.4364 141.32 84.5244 138.563 85.3019L137.117 85.7102L135.008 92.2969H122.307L120.196 85.7074L118.75 85.2991C115.992 84.5188 113.36 83.4336 110.93 82.0743L109.621 81.3415L103.482 84.4992L94.5008 75.5184L97.6613 69.3793L96.9257 68.0675C95.5664 65.6427 94.4812 63.0108 93.7009 60.2503L93.2926 58.8043L86.7031 56.6955V43.9948L93.2926 41.8832L93.7009 40.4372C94.4812 37.6795 95.5664 35.0476 96.9257 32.6172L97.6585 31.3082L94.5008 25.1691L103.482 16.1883L109.621 19.346L110.93 18.6132C113.36 17.2539 115.992 16.1659 118.75 15.3884L120.196 14.9801L122.305 8.39062H135.005L137.117 14.9801L138.563 15.3884C141.32 16.1687 143.952 17.2539 146.383 18.6132L147.692 19.346L153.831 16.1883L162.812 25.1691L159.654 31.3082L160.387 32.6172C161.746 35.0476 162.834 37.6795 163.612 40.4372L164.02 41.8832L170.609 43.992V56.6955Z" fill="#103638"/>
<path d="M134.81 40.8343L141.942 50.3437L134.81 59.8531L139.285 63.2093L148.934 50.3437L139.285 37.4781L134.81 40.8343Z" fill="#103638"/>
<path d="M118.028 37.4781L108.379 50.3437L118.028 63.2093L122.503 59.8531L115.371 50.3437L122.503 40.8343L118.028 37.4781Z" fill="#103638"/>
<path d="M123.132 69.5339L128.748 30.3761L134.286 31.1704L128.67 70.3282L123.132 69.5339Z" fill="#103638"/>
<path d="M47.5469 41.9531H19.5781C16.4932 41.9531 13.9844 44.4619 13.9844 47.5469V53.1406C13.9844 56.2256 16.4932 58.7344 19.5781 58.7344H47.5469C50.6318 58.7344 53.1406 56.2256 53.1406 53.1406V47.5469C53.1406 44.4619 50.6318 41.9531 47.5469 41.9531ZM36.3594 47.5469V53.1406H30.7656V47.5469H36.3594ZM19.5781 47.5469H25.1719V53.1406H19.5781V47.5469ZM41.9531 53.1406V47.5469H47.5469L47.5497 53.1406H41.9531Z" fill="#103638"/>
<path d="M128.656 165.016C133.282 165.016 137.047 161.251 137.047 156.625C137.047 151.999 133.282 148.234 128.656 148.234C124.03 148.234 120.266 151.999 120.266 156.625C120.266 161.251 124.03 165.016 128.656 165.016ZM128.656 153.828C130.197 153.828 131.453 155.084 131.453 156.625C131.453 158.166 130.197 159.422 128.656 159.422C127.115 159.422 125.859 158.166 125.859 156.625C125.859 155.084 127.115 153.828 128.656 153.828Z" fill="#103638"/>
<path d="M165.016 137.561V127.498L153.828 116.311V95.0938H148.234V118.627L159.422 129.814V137.561C156.175 138.719 153.828 141.796 153.828 145.438C153.828 150.064 157.593 153.828 162.219 153.828C166.845 153.828 170.609 150.064 170.609 145.438C170.609 141.796 168.263 138.719 165.016 137.561ZM162.219 148.234C160.678 148.234 159.422 146.979 159.422 145.438C159.422 143.896 160.678 142.641 162.219 142.641C163.76 142.641 165.016 143.896 165.016 145.438C165.016 146.979 163.76 148.234 162.219 148.234Z" fill="#103638"/>
<path d="M109.078 118.627V95.0938H103.484V116.311L92.2969 127.498V137.561C89.0497 138.719 86.7031 141.796 86.7031 145.438C86.7031 150.064 90.4677 153.828 95.0938 153.828C99.7198 153.828 103.484 150.064 103.484 145.438C103.484 141.796 101.138 138.719 97.8906 137.561V129.814L109.078 118.627ZM95.0938 148.234C93.5527 148.234 92.2969 146.979 92.2969 145.438C92.2969 143.896 93.5527 142.641 95.0938 142.641C96.6348 142.641 97.8906 143.896 97.8906 145.438C97.8906 146.979 96.6348 148.234 95.0938 148.234Z" fill="#103638"/>
<path d="M27.9688 81.1094H30.7656V75.5156H27.9688C23.3427 75.5156 19.5781 79.2802 19.5781 83.9062C19.5781 85.4473 18.3223 86.7031 16.7812 86.7031H13.9844V92.2969H16.7812C18.3223 92.2969 19.5781 93.5527 19.5781 95.0938C19.5781 99.7198 23.3427 103.484 27.9688 103.484H30.7656V97.8906H27.9688C26.4277 97.8906 25.1719 96.6348 25.1719 95.0938C25.1719 92.9374 24.33 90.9879 22.9903 89.5C24.33 88.0121 25.1719 86.0626 25.1719 83.9062C25.1719 82.3652 26.4277 81.1094 27.9688 81.1094Z" fill="#103638"/>
<path d="M36.3594 75.5156H69.9219V81.1094H36.3594V75.5156Z" fill="#103638"/>
<path d="M36.3594 86.7031H69.9219V92.2969H36.3594V86.7031Z" fill="#103638"/>
<path d="M64.3281 97.8906H69.9219V103.484H64.3281V97.8906Z" fill="#103638"/>
<path d="M36.3594 97.8906H58.7344V103.484H36.3594V97.8906Z" fill="#103638"/>
<path d="M75.5156 139.844C75.5156 138.303 76.7714 137.047 78.3125 137.047H81.1094V131.453H78.3125C76.7714 131.453 75.5156 130.197 75.5156 128.656C75.5156 124.03 71.751 120.266 67.125 120.266H64.3281V125.859H67.125C68.6661 125.859 69.9219 127.115 69.9219 128.656C69.9219 130.813 70.7637 132.762 72.1034 134.25C70.7609 135.738 69.9219 137.687 69.9219 139.844C69.9219 141.385 68.6661 142.641 67.125 142.641H64.3281V148.234H67.125C71.751 148.234 75.5156 144.47 75.5156 139.844Z" fill="#103638"/>
<path d="M25.1719 142.641H58.7344V148.234H25.1719V142.641Z" fill="#103638"/>
<path d="M36.3594 131.453H58.7344V137.047H36.3594V131.453Z" fill="#103638"/>
<path d="M25.1719 131.453H30.7656V137.047H25.1719V131.453Z" fill="#103638"/>
<path d="M25.1719 120.266H58.7344V125.859H25.1719V120.266Z" fill="#103638"/>
<path d="M13.9844 109.078H69.9219V114.672H13.9844V109.078Z" fill="#103638"/>
</svg>
