<svg width="73" height="73" viewBox="0 0 73 73" fill="none" xmlns="http://www.w3.org/2000/svg">
<path fill-rule="evenodd" clip-rule="evenodd" d="M73 36.5C73 56.6584 56.6582 73 36.5 73C16.3418 73 0 56.6584 0 36.5C0 16.3416 16.3418 0 36.5 0C56.6582 0 73 16.3416 73 36.5ZM53.8975 43.6708C54.6016 42.8757 55.0303 41.8315 55.0303 40.6887V39.2894C55.0303 36.8049 53.0088 34.7834 50.5244 34.7834C48.0391 34.7834 46.0186 36.8047 46.0186 39.2894V40.6887C46.0186 41.8318 46.4473 42.8763 47.1514 43.6715C46.5371 43.822 45.9531 44.0796 45.4268 44.4339C44.5586 43.1978 43.3193 42.2414 41.8711 41.7291C41.8486 41.7198 41.8252 41.7117 41.8027 41.7051C41.46 41.5878 41.1064 41.4951 40.7432 41.4294C41.6406 40.5525 42.2676 39.401 42.4883 38.1119C42.7393 38.188 43.001 38.2285 43.2695 38.2285C44.7549 38.2285 45.9629 37.0205 45.9629 35.5358C45.9629 34.7003 45.5781 33.9316 44.9463 33.429C45.0176 33.2594 45.0586 33.0734 45.0586 32.8779V31.1474C45.0586 28.1969 42.6582 25.7965 39.707 25.7965H38.2715C38.2051 25.7965 38.1377 25.8 38.0713 25.8052C37.543 25.15 36.7344 24.7297 35.8291 24.7297H35.0586C35.0654 24.5903 35.0703 24.4504 35.0703 24.31C35.0703 19.7278 31.3428 16 26.7607 16C22.1787 16 18.4502 19.7279 18.4502 24.31C18.4502 28.8921 22.1787 32.62 26.7607 32.62C27.1582 32.62 27.5527 32.5912 27.9414 32.5358V33.0899C27.9414 33.1692 27.9482 33.247 27.9609 33.3228C27.9697 33.3749 27.9814 33.4261 27.9951 33.4761C27.3945 33.9818 27.0371 34.7305 27.0371 35.5357C27.0371 37.0204 28.2451 38.2284 29.7305 38.2284C29.999 38.2284 30.2607 38.1877 30.5117 38.1118C30.7324 39.4011 31.3604 40.5529 32.2578 41.43C31.9004 41.4948 31.5527 41.5858 31.2158 41.7007C31.1807 41.7097 31.1455 41.722 31.1113 41.7374C29.6729 42.2526 28.4395 43.2072 27.5752 44.4382C27.0576 44.0872 26.4746 43.8243 25.8496 43.6708C26.5537 42.8756 26.9814 41.8314 26.9814 40.6885V39.2892C26.9814 36.8047 24.9609 34.7833 22.4756 34.7833C19.9912 34.7833 17.9697 36.8046 17.9697 39.2892V40.6885C17.9697 41.8313 18.3984 42.8755 19.1025 43.6707C16.75 44.2476 15 46.3725 15 48.8996V54.3463C15 54.6942 15.2822 54.9762 15.6299 54.9762C15.9775 54.9762 16.2598 54.6942 16.2598 54.3463V48.8996C16.2598 46.6253 18.1104 44.7751 20.3848 44.7751H20.5811C20.6797 44.8213 20.7812 44.864 20.8848 44.903L21.0059 44.9469L19.7451 49.8668C19.6387 50.2814 19.7725 50.7145 20.0938 50.9971L21.7295 52.4344C21.9424 52.6216 22.209 52.7151 22.4756 52.7151C22.7432 52.7151 23.0098 52.6216 23.2227 52.4344L24.8574 50.9971C25.1797 50.7144 25.3125 50.2813 25.207 49.8668L23.9463 44.9469C24.0146 44.9232 24.082 44.8979 24.1494 44.871L24.2578 44.8261L24.3711 44.7751H24.5674C25.4512 44.7751 26.2695 45.0549 26.9414 45.5297C26.5059 46.4562 26.2588 47.4875 26.252 48.5742C26.249 48.9221 26.5293 49.2059 26.8818 49.2083C27.2275 49.2083 27.5088 48.929 27.5117 48.5826C27.5273 46.1525 28.9922 44.0562 31.0781 43.11L35.8701 52.2372V56.9868C35.8701 57.3347 36.1523 57.6167 36.5 57.6167C36.8477 57.6167 37.1299 57.3347 37.1299 56.9868V52.2372L41.9229 43.108C44.0234 44.058 45.4902 46.172 45.4902 48.6234V56.9918C45.4902 57.3396 45.7715 57.6216 46.1201 57.6216C46.4678 57.6216 46.75 57.3396 46.75 56.9918V48.6234C46.75 47.5167 46.502 46.467 46.0596 45.5259C46.751 45.0396 47.5801 44.775 48.4326 44.775H48.6289C48.7666 44.8392 48.9082 44.8966 49.0537 44.9468L47.793 49.8666C47.6865 50.2812 47.8203 50.7143 48.1426 50.9969L49.7773 52.4343C49.9902 52.6215 50.2568 52.715 50.5244 52.715C50.791 52.715 51.0576 52.6215 51.2705 52.4343L52.9062 50.9969C53.2275 50.7144 53.3613 50.2812 53.2549 49.8667L53.0537 49.0809C52.9678 48.744 52.624 48.541 52.2871 48.6271C51.9502 48.7134 51.7471 49.0566 51.833 49.3936L52.0146 50.103L50.5244 51.4137L49.0332 50.103L50.292 45.1886C50.3691 45.1926 50.4463 45.1945 50.5244 45.1945C50.6016 45.1945 50.6787 45.1924 50.7559 45.1886L51.0762 46.4377C51.0986 46.5245 51.1377 46.6025 51.1895 46.6689C51.3076 46.8201 51.4912 46.9114 51.6855 46.9114C51.7373 46.9114 51.79 46.905 51.8428 46.8915C52.1797 46.8052 52.3828 46.462 52.2959 46.1251L51.9941 44.947C52.1406 44.8964 52.2832 44.8386 52.4229 44.7737L52.4512 44.7751H52.6162C54.8906 44.7751 56.7402 46.6254 56.7402 48.8997V54.3464C56.7402 54.6943 57.0225 54.9763 57.3701 54.9763C57.7178 54.9763 58 54.6943 58 54.3464V48.8997C58 46.3725 56.25 44.2476 53.8975 43.6708ZM19.2295 39.2894C19.2295 37.4994 20.6855 36.0432 22.4756 36.0432C24.2656 36.0432 25.7217 37.4994 25.7217 39.2894V40.6887C25.7217 42.4786 24.2656 43.9348 22.4756 43.9348C20.6855 43.9348 19.2295 42.4786 19.2295 40.6887V39.2894ZM23.9668 50.103L22.4756 51.4137L20.9854 50.103L22.2441 45.1886L22.2793 45.1902C22.3447 45.1931 22.4102 45.1945 22.4756 45.1945C22.5537 45.1945 22.6309 45.1924 22.708 45.1886L23.9668 50.103ZM43.2695 36.9686C43.0244 36.9686 42.7871 36.9062 42.5762 36.7889V35.1193C42.5762 34.869 42.5605 34.6151 42.5283 34.3616C43.0176 34.3441 43.4512 34.3109 43.791 34.2772C43.835 34.2729 43.8779 34.2664 43.9199 34.2583C44.3984 34.5018 44.7031 34.9926 44.7031 35.5357C44.7031 36.3259 44.0596 36.9686 43.2695 36.9686ZM39.707 27.0562C41.9629 27.0562 43.7988 28.8915 43.7988 31.1473V32.8778C43.7988 32.9027 43.793 32.9261 43.7822 32.9467C43.7725 32.9639 43.7598 32.9791 43.7451 32.9913C43.7236 33.0089 43.6963 33.0205 43.667 33.0234C42.5898 33.1304 40.5205 33.2383 38.7637 32.7601C38.6641 32.7329 38.5664 32.699 38.4717 32.6589C38.3086 32.5901 38.1533 32.503 38.0088 32.3998C38.4531 31.7224 38.708 30.914 38.708 30.0593V27.6091C38.708 27.4199 38.6895 27.2352 38.6543 27.0562L39.707 27.0562ZM31.3848 31.2155C31.6729 31.0216 31.75 30.6303 31.5566 30.3414C31.3623 30.0525 30.9717 29.9755 30.6826 30.1693C29.5215 30.9484 28.165 31.3602 26.7607 31.3602C22.873 31.3602 19.71 28.1974 19.71 24.31C19.71 20.4225 22.873 17.2598 26.7607 17.2598C30.6484 17.2598 33.8105 20.4225 33.8105 24.31C33.8105 25.6926 33.4102 27.0312 32.6533 28.1815C32.4619 28.4719 32.542 28.8625 32.833 29.0538C33.123 29.2452 33.5137 29.1648 33.7051 28.8742C34.2871 27.9911 34.6885 27.0136 34.8984 25.9894H35.8291C36.7217 25.9894 37.4482 26.716 37.4482 27.6091V30.0593C37.4482 31.4042 36.5557 32.5865 35.2783 32.9343C33.0596 33.5383 30.3799 33.3458 29.3301 33.2351C29.2568 33.2274 29.2012 33.1649 29.2012 33.0898V32.2551C29.9717 32.019 30.7061 31.6705 31.3848 31.2155ZM28.2969 35.5357C28.2969 35.0882 28.5049 34.674 28.8506 34.4049C28.9609 34.446 29.0762 34.4752 29.1982 34.488L29.4346 34.5117C29.6162 34.529 29.8164 34.5458 30.0303 34.5606C30.1641 34.5699 30.3037 34.5785 30.4482 34.586C30.4404 34.6749 30.4346 34.7636 30.4307 34.8521L30.4268 34.9617L30.4238 35.1193V36.7889C30.2129 36.9063 29.9766 36.9686 29.7305 36.9686C28.9404 36.9686 28.2969 36.3259 28.2969 35.5357ZM31.6836 37.0854V35.1193C31.6836 34.9534 31.6934 34.7851 31.7109 34.6165C32.9336 34.6113 34.3232 34.4999 35.6094 34.15C36.1924 33.9913 36.7188 33.7113 37.165 33.3419C37.542 33.6333 37.9736 33.8507 38.4326 33.9758C39.3574 34.2274 40.3467 34.334 41.2559 34.3645C41.2959 34.6172 41.3164 34.871 41.3164 35.1194V37.0856C41.3164 39.7415 39.1562 41.9022 36.5 41.9022C33.8438 41.9022 31.6836 39.7414 31.6836 37.0854ZM36.5 50.7269L34.5693 47.0493L36 43.1396C36.165 43.1531 36.332 43.1619 36.5 43.1619C36.668 43.1619 36.835 43.1531 37 43.1396L38.4307 47.0493L36.5 50.7269ZM33.5615 42.5725H33.8916C34.0088 42.6285 34.1279 42.6807 34.25 42.7292C34.4121 42.7938 34.5771 42.8516 34.7451 42.9025L33.7783 45.5438L32.29 42.7088C32.7002 42.6203 33.125 42.5725 33.5615 42.5725ZM39.2217 45.5438L38.2549 42.9025C38.5488 42.8134 38.835 42.703 39.1094 42.5721L39.1182 42.5725H39.4385C39.875 42.5725 40.2998 42.6199 40.71 42.7079L39.2217 45.5438ZM47.2783 40.6885V39.2893C47.2783 37.4993 48.7344 36.0431 50.5244 36.0431C52.3145 36.0431 53.7705 37.4993 53.7705 39.2893V40.6885C53.7705 42.4785 52.3145 43.9347 50.5244 43.9347C48.7344 43.9347 47.2783 42.4785 47.2783 40.6885ZM26.25 51.6262C26.25 51.2783 26.5322 50.9963 26.8799 50.9963C27.2285 50.9963 27.5098 51.2783 27.5098 51.6262V56.9918C27.5098 57.3397 27.2285 57.6216 26.8799 57.6216C26.5322 57.6216 26.25 57.3397 26.25 56.9918V51.6262ZM38.8701 52.704H38.8564C38.5068 52.704 38.2256 52.9849 38.2246 53.3322C38.2236 53.68 38.5049 53.9628 38.8525 53.9638H38.8672C39.2158 53.9638 39.498 53.6829 39.499 53.3357C39.5 53.1546 39.4238 52.9911 39.3018 52.8759C39.1885 52.7697 39.0371 52.7045 38.8701 52.704ZM30.8779 20.1799L32.0156 21.3181C32.415 21.7178 32.415 22.368 32.0156 22.7676L26.2705 28.5131C25.9932 28.79 25.6299 28.9285 25.2656 28.9285C25.085 28.9285 24.9043 28.8943 24.7344 28.8259C24.5625 28.7567 24.4014 28.6524 24.2617 28.5131L21.5059 25.757C21.1055 25.3572 21.1055 24.707 21.5059 24.3074L22.6436 23.1691C22.8379 22.9755 23.0947 22.8689 23.3682 22.8689C23.6426 22.8689 23.8994 22.9755 24.0938 23.1691L25.2656 24.3416L29.4277 20.1798C29.6211 19.9862 29.8789 19.8796 30.1523 19.8796C30.4268 19.8796 30.6836 19.9862 30.8779 20.1799ZM25.1846 27.6473C25.2451 27.6833 25.3262 27.675 25.3799 27.6223L30.959 22.0427L30.1523 21.2365L25.7109 25.6777C25.4658 25.9236 25.0664 25.9236 24.8203 25.6777L23.3691 24.2258L22.5625 25.0321L25.1523 27.6223C25.1621 27.6322 25.1729 27.6405 25.1846 27.6473Z" fill="#EC681C"/>
</svg>
