<svg width="68" height="68" viewBox="0 0 68 68" fill="none" xmlns="http://www.w3.org/2000/svg">
<path fill-rule="evenodd" clip-rule="evenodd" d="M56.9962 32.3748C56.9987 32.2502 57 32.1252 57 32C57 22.0589 48.9411 14 39 14C30.0802 14 22.6758 20.488 21.2485 29.0022C19.2044 27.1373 16.485 26 13.5 26C7.14873 26 2 31.1487 2 37.5C2 42.035 4.62503 45.9569 8.43851 47.8291C9.43462 48.565 10.6665 49 12 49H13.5H33.069C34.9262 49.6479 36.922 50 39 50C41.078 50 43.0738 49.6479 44.931 49H59.5H60C60.8947 49 61.7436 48.8042 62.5062 48.4531C65.717 47.2388 68 44.136 68 40.5C68 35.8056 64.1944 32 59.5 32C58.6285 32 57.7877 32.1311 56.9962 32.3748Z" fill="#C3DFE0"/>
<path d="M13.7124 51.5104C13.7124 50.9603 13.2664 50.5143 12.7163 50.5143C6.80292 50.5143 1.99219 45.7071 1.99219 39.7982C1.99219 35.6065 4.46024 31.7758 8.27966 30.039C8.7805 29.8114 9.0019 29.2208 8.77413 28.7199C8.54648 28.2191 7.95573 27.9977 7.45503 28.2255C2.92626 30.2849 0 34.8273 0 39.7982C0 46.8056 5.70443 52.5065 12.7163 52.5065C13.2664 52.5065 13.7124 52.0605 13.7124 51.5104V51.5104Z" fill="#EC681C"/>
<path d="M20.8585 30.702C22.2947 22.6811 29.2658 16.8595 37.434 16.8595C43.6804 16.8595 49.3828 20.287 52.3158 25.8045C52.5741 26.2902 53.1771 26.4747 53.6629 26.2165C54.1486 25.9583 54.3331 25.3552 54.0749 24.8694C53.5171 23.8201 52.8696 22.8383 52.1449 21.9316V8.65366L54.5546 5.78226C54.8806 5.90445 55.2332 5.97125 55.6013 5.97125C57.2491 5.97125 58.5896 4.63197 58.5896 2.98562C58.5896 1.33928 57.249 0 55.6013 0C53.9537 0 52.6131 1.33928 52.6131 2.98562C52.6131 3.53892 52.7645 4.05755 53.0281 4.50221L50.3858 7.65066C50.2353 7.83009 50.1527 8.0568 50.1527 8.29095V19.8007C48.4038 18.1996 46.369 16.9449 44.1561 16.1015V9.14905C45.3155 8.73827 46.1483 7.63141 46.1483 6.33396C46.1483 4.68762 44.8078 3.34834 43.16 3.34834C41.5122 3.34834 40.1717 4.68762 40.1717 6.33396C40.1717 7.63141 41.0044 8.73827 42.1639 9.14905V15.4669C40.6407 15.0734 39.0537 14.8673 37.434 14.8673C36.6094 14.8673 35.7955 14.9204 34.9963 15.0236V5.80072C36.1557 5.38993 36.9885 4.28307 36.9885 2.98562C36.9885 1.33928 35.648 0 34.0002 0C32.3524 0 31.0119 1.33928 31.0119 2.98562C31.0119 4.28307 31.8446 5.38993 33.0041 5.80072V15.3904C30.3626 16.0254 27.9257 17.2171 25.8365 18.8461V9.14905C26.9959 8.73827 27.8286 7.63141 27.8286 6.33396C27.8286 4.68762 26.4882 3.34834 24.8404 3.34834C23.1926 3.34834 21.8521 4.68762 21.8521 6.33396C21.8521 7.63141 22.6848 8.73827 23.8443 9.14905V20.6413C21.6733 22.8978 20.0543 25.7081 19.2225 28.8757C18.7573 28.5973 18.2772 28.3506 17.7844 28.1359V8.29109C17.7844 8.0568 17.7018 7.83009 17.5514 7.6508L14.9092 4.50234C15.1728 4.05755 15.3242 3.53892 15.3242 2.98562C15.3242 1.33928 13.9837 0 12.3359 0C10.6881 0 9.34766 1.33928 9.34766 2.98562C9.34766 4.63197 10.6881 5.97125 12.3359 5.97125C12.704 5.97125 13.0567 5.90445 13.3825 5.78226L15.7923 8.65366V27.4612C14.7978 27.2154 13.7675 27.09 12.7163 27.09C12.1662 27.09 11.7202 27.536 11.7202 28.0861C11.7202 28.6362 12.1662 29.0822 12.7163 29.0822C15.1124 29.0822 17.3782 29.8543 19.2689 31.3148C19.4459 31.4516 19.6608 31.5226 19.878 31.5226C19.9987 31.5226 20.1201 31.5007 20.2362 31.456C20.5611 31.3306 20.797 31.0448 20.8585 30.702V30.702ZM55.6013 1.99219C56.1506 1.99219 56.5974 2.43777 56.5974 2.98562C56.5974 3.53348 56.1506 3.97906 55.6013 3.97906C55.052 3.97906 54.6052 3.53348 54.6052 2.98562C54.6052 2.43777 55.052 1.99219 55.6013 1.99219ZM43.16 5.34039C43.7093 5.34039 44.1561 5.78611 44.1561 6.33383C44.1561 6.88155 43.7093 7.32727 43.16 7.32727C42.6107 7.32727 42.1639 6.88168 42.1639 6.33383C42.1639 5.78598 42.6107 5.34039 43.16 5.34039V5.34039ZM34.0002 1.99219C34.5495 1.99219 34.9963 2.43777 34.9963 2.98562C34.9963 3.53348 34.5495 3.97906 34.0002 3.97906C33.4509 3.97906 33.0041 3.53348 33.0041 2.98562C33.0041 2.43777 33.4509 1.99219 34.0002 1.99219ZM24.8404 5.34039C25.3897 5.34039 25.8365 5.78611 25.8365 6.33383C25.8365 6.88155 25.3897 7.32727 24.8404 7.32727C24.2911 7.32727 23.8443 6.88168 23.8443 6.33383C23.8443 5.78598 24.2911 5.34039 24.8404 5.34039V5.34039ZM11.3398 2.98562C11.3398 2.43777 11.7866 1.99219 12.3359 1.99219C12.8853 1.99219 13.332 2.43777 13.332 2.98562C13.332 3.53348 12.8853 3.97906 12.3359 3.97906C11.7866 3.97906 11.3398 3.53334 11.3398 2.98562Z" fill="#EC681C"/>
<path d="M58.4073 33.3316C57.6802 33.3316 56.9641 33.4119 56.2657 33.5713C56.2574 32.1842 56.0971 30.8023 55.7895 29.462C55.6664 28.9257 55.1318 28.5908 54.5957 28.714C54.0596 28.8371 53.7246 29.3715 53.8477 29.9077C54.1305 31.1393 54.2738 32.4109 54.2738 33.687C54.2738 34.0763 54.26 34.4731 54.2328 34.8664C54.2091 35.208 54.3627 35.5379 54.6393 35.7397C54.916 35.9418 55.2769 35.9872 55.595 35.8606C56.4893 35.5045 57.4354 35.3239 58.4072 35.3239C62.5985 35.3239 66.0082 38.7311 66.0082 42.9192C66.0082 47.1073 62.5984 50.5145 58.4072 50.5145H55.1405C54.5904 50.5145 54.1444 50.9605 54.1444 51.5106C54.1444 52.0607 54.5904 52.5067 55.1405 52.5067H58.4072C63.697 52.5067 68.0004 48.2058 68.0004 42.9192C68.0005 37.6326 63.697 33.3316 58.4073 33.3316V33.3316Z" fill="#EC681C"/>
<path d="M47.2177 50.5143H37.9863C37.4362 50.5143 36.9902 50.9603 36.9902 51.5104C36.9902 52.0605 37.4362 52.5065 37.9863 52.5065H42.1637V62.1993C41.0042 62.6101 40.1715 63.7169 40.1715 65.0144C40.1715 66.6607 41.512 68 43.1598 68C44.8076 68 46.148 66.6607 46.148 65.0144C46.148 63.7168 45.3153 62.6099 44.1559 62.1993V52.5065H47.2177C47.7678 52.5065 48.2138 52.0605 48.2138 51.5104C48.2138 50.9603 47.7678 50.5143 47.2177 50.5143V50.5143ZM43.1598 66.0078C42.6105 66.0078 42.1637 65.5622 42.1637 65.0144C42.1637 64.4665 42.6105 64.0209 43.1598 64.0209C43.7091 64.0209 44.1559 64.4667 44.1559 65.0144C44.1559 65.5621 43.7091 66.0078 43.1598 66.0078Z" fill="#EC681C"/>
<path d="M30.0107 50.5143H20.9404C20.3903 50.5143 19.9443 50.9603 19.9443 51.5104C19.9443 52.0605 20.3903 52.5065 20.9404 52.5065H23.8442V62.1993C22.6848 62.6101 21.8521 63.7169 21.8521 65.0144C21.8521 66.6607 23.1925 68 24.8403 68C26.4881 68 27.8286 66.6607 27.8286 65.0144C27.8286 63.7168 26.9959 62.6099 25.8364 62.1993V52.5065H30.0107C30.5608 52.5065 31.0068 52.0605 31.0068 51.5104C31.0068 50.9603 30.5608 50.5143 30.0107 50.5143V50.5143ZM24.8403 66.0078C24.291 66.0078 23.8442 65.5622 23.8442 65.0144C23.8442 64.4665 24.291 64.0209 24.8403 64.0209C25.3896 64.0209 25.8364 64.4667 25.8364 65.0144C25.8364 65.5621 25.3896 66.0078 24.8403 66.0078Z" fill="#EC681C"/>
<path d="M16.852 41.9205C15.2042 41.9205 13.8637 43.2598 13.8637 44.9062C13.8637 46.2036 14.6964 47.3105 15.8559 47.7213V61.3359L11.6364 66.3635C11.2828 66.7849 11.3377 67.4131 11.7592 67.7668C11.9458 67.9234 12.173 67.9999 12.3989 67.9999C12.6831 67.9999 12.9655 67.8789 13.1624 67.6441L17.615 62.3386C17.7655 62.1592 17.8481 61.9325 17.8481 61.6983V47.7211C19.0075 47.3103 19.8403 46.2035 19.8403 44.906C19.8403 43.2598 18.4998 41.9205 16.852 41.9205ZM16.852 45.8996C16.3027 45.8996 15.8559 45.454 15.8559 44.9062C15.8559 44.3583 16.3027 43.9127 16.852 43.9127C17.4013 43.9127 17.8481 44.3584 17.8481 44.9062C17.8481 45.4539 17.4013 45.8996 16.852 45.8996Z" fill="#EC681C"/>
<path d="M34 41.9205C32.3522 41.9205 31.0117 43.2598 31.0117 44.9062C31.0117 46.2036 31.8445 47.3105 33.0039 47.7212V67.0039C33.0039 67.554 33.4499 68 34 68C34.5501 68 34.9961 67.554 34.9961 67.0039V47.7212C36.1555 47.3105 36.9883 46.2036 36.9883 44.9062C36.9883 43.2598 35.6478 41.9205 34 41.9205V41.9205ZM34 45.8996C33.4507 45.8996 33.0039 45.454 33.0039 44.9062C33.0039 44.3583 33.4507 43.9127 34 43.9127C34.5493 43.9127 34.9961 44.3584 34.9961 44.9062C34.9961 45.4539 34.5493 45.8996 34 45.8996Z" fill="#EC681C"/>
<path d="M52.1445 61.3359V47.7212C53.304 47.3105 54.1367 46.2036 54.1367 44.9062C54.1367 43.2598 52.7962 41.9205 51.1484 41.9205C49.5006 41.9205 48.1602 43.2598 48.1602 44.9062C48.1602 46.2036 48.9929 47.3105 50.1523 47.7212V61.6984C50.1523 61.9327 50.235 62.1594 50.3854 62.3387L54.838 67.6442C55.0351 67.879 55.3173 68 55.6015 68C55.8274 68 56.0547 67.9235 56.2413 67.7669C56.6627 67.4132 56.7175 66.7849 56.364 66.3636L52.1445 61.3359ZM51.1484 43.9127C51.6977 43.9127 52.1445 44.3584 52.1445 44.9062C52.1445 45.4539 51.6977 45.8996 51.1484 45.8996C50.5991 45.8996 50.1523 45.454 50.1523 44.9062C50.1523 44.3583 50.5991 43.9127 51.1484 43.9127Z" fill="#EC681C"/>
</svg>
