<svg width="68" height="68" viewBox="0 0 68 68" fill="none" xmlns="http://www.w3.org/2000/svg">
<rect x="7" y="5" width="59" height="53" rx="6" fill="#C3DFE0"/>
<path d="M26.9367 48C26.6936 48 26.4487 47.9214 26.2489 47.7615L19.3735 42.2602C19.1364 42.0702 19 41.7928 19 41.4997C19 41.2072 19.137 40.9297 19.3735 40.7397L26.2489 35.2384C26.6954 34.8807 27.366 34.9314 27.7466 35.3509C28.1267 35.771 28.0733 36.4012 27.6262 36.7583L21.7013 41.4997L27.6262 46.2411C28.0733 46.5988 28.1267 47.2289 27.7466 47.6484C27.5361 47.8808 27.2373 48 26.9367 48Z" fill="#EC681C"/>
<path d="M39.9449 48C39.6777 48 39.4121 47.8808 39.2255 47.6484C38.8872 47.2289 38.9351 46.5988 39.332 46.2411L44.5988 41.4997L39.332 36.7583C38.9351 36.4012 38.8872 35.771 39.2255 35.3509C39.5634 34.9314 40.16 34.8807 40.5563 35.2384L46.668 40.7397C46.8788 40.9297 47 41.2072 47 41.4997C47 41.7928 46.8788 42.0702 46.668 42.2602L40.5563 47.7615C40.3787 47.9214 40.161 48 39.9449 48V48Z" fill="#EC681C"/>
<path d="M30.9961 52C30.9278 52 30.859 51.9928 30.7896 51.9784C30.2524 51.8653 29.9083 51.3384 30.0216 50.802L34.0322 31.7884C34.1454 31.252 34.6726 30.9085 35.2104 31.0215C35.7476 31.1346 36.0917 31.661 35.9784 32.1979L31.9678 51.2115C31.869 51.6792 31.4561 52 30.9961 52V52Z" fill="#EC681C"/>
<path d="M57.2382 63H9.76179C6.03359 63 3 59.9568 3 56.2155V15.7845C3 12.0438 6.03359 9 9.76179 9H57.2382C60.9664 9 64 12.0438 64 15.7845V56.2155C64 59.9568 60.9664 63 57.2382 63ZM9.76179 11.0209C7.14407 11.0209 5.01415 13.158 5.01415 15.7845V56.2155C5.01415 58.842 7.14407 60.9791 9.76179 60.9791H57.2382C59.8559 60.9791 61.9858 58.842 61.9858 56.2155V15.7845C61.9858 13.158 59.8559 11.0209 57.2382 11.0209H9.76179Z" fill="#EC681C"/>
<path d="M62.9929 25H4.00708C3.45071 25 3 24.5525 3 24C3 23.4481 3.45071 23 4.00708 23H62.9929C63.5493 23 64 23.4481 64 24C64 24.5525 63.5493 25 62.9929 25Z" fill="#EC681C"/>
<path d="M20 20C18.3463 20 17 18.6537 17 17C17 15.3458 18.3463 14 20 14C21.6542 14 23 15.3458 23 17C23 18.6537 21.6542 20 20 20ZM20 15.896C19.3916 15.896 18.896 16.3911 18.896 17C18.896 17.6089 19.3916 18.104 20 18.104C20.6089 18.104 21.104 17.6089 21.104 17C21.104 16.3911 20.6089 15.896 20 15.896Z" fill="#EC681C"/>
<path d="M10 20C8.34579 20 7 18.6542 7 17C7 15.3458 8.34579 14 10 14C11.6542 14 13 15.3458 13 17C13 18.6542 11.6542 20 10 20ZM10 15.896C9.39164 15.896 8.89596 16.3916 8.89596 17C8.89596 17.6089 9.39164 18.104 10 18.104C10.6089 18.104 11.104 17.6089 11.104 17C11.104 16.3916 10.6089 15.896 10 15.896Z" fill="#EC681C"/>
<path d="M29.9997 20C28.3459 20 27 18.6541 27 16.9997C27 15.3459 28.3459 14 29.9997 14C31.6541 14 33 15.3459 33 16.9997C33 18.6541 31.6541 20 29.9997 20ZM29.9997 15.8956C29.3913 15.8956 28.8961 16.3908 28.8961 16.9997C28.8961 17.6087 29.3913 18.1039 29.9997 18.1039C30.6087 18.1039 31.1039 17.6087 31.1039 16.9997C31.1039 16.3908 30.6087 15.8956 29.9997 15.8956Z" fill="#EC681C"/>
</svg>
